<svg width="132" height="41" viewBox="0 0 132 41" fill="none" xmlns="http://www.w3.org/2000/svg">
<rect x="1.09961" y="40" width="39" height="129.581" rx="11.5" transform="rotate(-90 1.09961 40)" fill="#F28B02" stroke="#CCD8E5" stroke-linecap="round" stroke-linejoin="round"/>
<path d="M28.1119 16.9608C28.5659 17.152 28.9589 17.4644 29.2483 17.864C29.4855 18.1751 29.6438 18.5393 29.7094 18.9254C29.7776 19.5162 29.8057 20.111 29.7935 20.7057V26.1176H27.3427V20.5113C27.3605 20.0962 27.2743 19.6832 27.092 19.3101C26.9719 19.0925 26.7903 18.9154 26.5701 18.8011C26.35 18.6867 26.101 18.6403 25.8546 18.6675C25.582 18.6503 25.3093 18.6994 25.0597 18.8106C24.8101 18.9218 24.5909 19.0917 24.4208 19.3061C24.0626 19.8432 23.8908 20.4838 23.932 21.1288V26.119H21.5312V13.5469H23.932V17.6948C24.2353 17.3548 24.6165 17.094 25.0427 16.9348C25.5323 16.7519 26.051 16.66 26.5735 16.6638C27.1011 16.6569 27.6246 16.7579 28.1119 16.9608Z" fill="white"/>
<path d="M37.2243 17.0918C37.8714 17.3854 38.4216 17.8579 38.8105 18.454C39.1955 19.0245 39.4456 19.6757 39.5417 20.358C39.6153 20.9641 39.6417 21.5751 39.6207 22.1854H32.9353C32.9727 23.1093 33.2927 23.757 33.8953 24.1285C34.2944 24.3683 34.7537 24.4885 35.2187 24.4747C35.5938 24.5042 35.9691 24.4191 36.2951 24.2306C36.6211 24.0421 36.8826 23.7591 37.0453 23.4187H39.4957C39.385 24.055 39.0729 24.6387 38.6057 25.0832C37.7833 25.9788 36.6321 26.4266 35.1523 26.4266C33.9749 26.4424 32.8296 26.0411 31.918 25.2933C30.9844 24.5377 30.5176 23.3088 30.5176 21.6063C30.5176 20.0112 30.939 18.788 31.782 17.9368C32.2129 17.5099 32.7266 17.1763 33.2912 16.9566C33.8559 16.7369 34.4595 16.6359 35.0646 16.6597C35.807 16.6482 36.5432 16.7955 37.2243 17.0918ZM33.6339 19.1718C33.2744 19.5662 33.0502 20.0657 32.9943 20.5971H37.1289C37.1267 20.3237 37.0688 20.0536 36.9588 19.8034C36.8489 19.5532 36.6891 19.3281 36.4894 19.142C36.0924 18.8057 35.5853 18.6287 35.066 18.6453C34.8039 18.6292 34.5413 18.6677 34.2948 18.7584C34.0483 18.849 33.8231 18.9899 33.6335 19.1721L33.6339 19.1718Z" fill="white"/>
<path d="M48.2109 17.8952C48.9596 18.6893 49.3339 19.8553 49.3339 21.3931C49.3339 23.015 48.968 24.2512 48.2362 25.1018C47.8912 25.5143 47.4578 25.8433 46.9683 26.0642C46.4788 26.2851 45.9459 26.3923 45.4093 26.3776C44.7553 26.4023 44.1116 26.2091 43.5785 25.8283C43.2708 25.5785 43.0072 25.2786 42.7986 24.9412V29.5002H40.4238V16.9067H42.7229V18.2671C42.9464 17.9084 43.227 17.5887 43.5535 17.3208C44.1046 16.9049 44.7795 16.6875 45.469 16.704C45.9841 16.696 46.495 16.7982 46.9678 17.0035C47.4405 17.2089 47.8643 17.5129 48.2109 17.8952ZM46.369 19.6273C46.2056 19.3571 45.9708 19.1376 45.6908 18.993C45.4107 18.8484 45.0963 18.7842 44.7822 18.8077C44.386 18.7861 43.9938 18.896 43.6662 19.1206C43.3386 19.3451 43.0939 19.6717 42.9699 20.0497C42.7839 20.587 42.6973 21.1538 42.7145 21.7223C42.7145 22.7927 43.0007 23.5447 43.5731 23.9782C43.9233 24.2347 44.348 24.3683 44.7815 24.3582C45.0839 24.3731 45.385 24.3094 45.6556 24.1732C45.9262 24.037 46.1571 23.8329 46.326 23.5808C46.6674 22.9797 46.8504 22.3012 46.8579 21.6094C46.8654 20.9176 46.697 20.2353 46.3686 19.6269L46.369 19.6273Z" fill="white"/>
<path d="M52.2192 23.1767C52.2325 23.5079 52.3479 23.8268 52.5493 24.0896C52.8483 24.4105 53.4012 24.5709 54.2078 24.5709C54.5955 24.5882 54.982 24.5159 55.3375 24.3598C55.4551 24.3075 55.5561 24.2238 55.6297 24.118C55.7033 24.0121 55.7467 23.8881 55.755 23.7593C55.7634 23.6305 55.7365 23.5019 55.6773 23.3874C55.618 23.2728 55.5287 23.1767 55.4189 23.1095C55.1939 22.9687 54.357 22.7266 52.9081 22.3829C51.8649 22.1238 51.13 21.8004 50.7034 21.4128C50.483 21.2002 50.3115 20.9418 50.2009 20.6557C50.0903 20.3697 50.0433 20.0629 50.0632 19.7567C50.0614 19.3403 50.1499 18.9286 50.3227 18.55C50.4954 18.1714 50.7482 17.8351 51.0635 17.5643C51.7304 16.9533 52.6687 16.6477 53.8784 16.6475C54.8595 16.6047 55.8325 16.8431 56.6836 17.3345C57.4065 17.7937 57.8215 18.5865 57.9287 19.7129H55.5279C55.5108 19.4479 55.4202 19.193 55.2662 18.977C55.0014 18.6505 54.5511 18.4871 53.9151 18.4869C53.526 18.4541 53.1361 18.5395 52.7961 18.7321C52.6977 18.793 52.6158 18.8773 52.5576 18.9775C52.4994 19.0778 52.4668 19.1909 52.4626 19.3068C52.4561 19.4307 52.4863 19.5539 52.5494 19.6606C52.6126 19.7673 52.7058 19.8529 52.8174 19.9066C53.6325 20.1995 54.4709 20.4227 55.3235 20.5739C56.1172 20.7196 56.8587 21.0722 57.4735 21.5965C57.7048 21.82 57.8872 22.0895 58.009 22.3876C58.1309 22.6858 58.1894 23.0061 58.1811 23.3282C58.1923 23.7538 58.1066 24.1764 57.9303 24.5637C57.7541 24.951 57.492 25.2928 57.1641 25.5631C56.4861 26.1402 55.4383 26.4289 54.0208 26.4291C52.5759 26.4291 51.5089 26.1235 50.8198 25.5122C50.4854 25.2242 50.2191 24.8652 50.0403 24.4611C49.8615 24.057 49.7747 23.618 49.7862 23.176L52.2192 23.1767Z" fill="white"/>
<path d="M59.1289 16.9082H61.563V26.1172H59.1289V16.9082Z" fill="white"/>
<path d="M71.1184 17.9948C71.8375 18.9693 72.2012 20.162 72.1487 21.3733C72.1975 22.6373 71.8415 23.8838 71.1327 24.9301C70.5927 25.6185 69.8266 26.0924 68.9709 26.2672C68.1152 26.442 67.2254 26.3065 66.46 25.8848C66.1069 25.6257 65.8029 25.3052 65.5627 24.9385V26.0958H63.1953V13.5H65.596V18.0878C65.8632 17.6964 66.2062 17.363 66.6047 17.1077C67.1061 16.8084 67.6833 16.6616 68.2662 16.6852C68.8112 16.6602 69.3542 16.766 69.8503 16.9938C70.3463 17.2215 70.781 17.5647 71.1184 17.9948ZM69.1121 23.6048C69.4822 23.0144 69.663 22.3245 69.6303 21.6278C69.6471 21.0758 69.5607 20.5256 69.3755 20.0055C69.2528 19.6343 69.0117 19.314 68.6894 19.0941C68.3671 18.8742 67.9815 18.7669 67.5923 18.7889C67.2029 18.764 66.816 18.8668 66.4898 19.0816C66.1636 19.2964 65.9159 19.6117 65.7838 19.9801C65.5969 20.5055 65.5105 21.0616 65.529 21.6191C65.5023 22.3109 65.6859 22.9944 66.0555 23.579C66.2332 23.8367 66.4745 24.0438 66.7558 24.18C67.037 24.3163 67.3487 24.377 67.6603 24.3564C67.9464 24.367 68.2303 24.3034 68.4847 24.1717C68.7391 24.04 68.955 23.8448 69.1121 23.6048Z" fill="white"/>
<path d="M75.5521 16.8867V22.4379C75.5314 22.8406 75.5941 23.2434 75.7362 23.6207C75.954 24.089 76.3814 24.3231 77.0183 24.3231C77.3664 24.3531 77.7152 24.273 78.0157 24.0942C78.3163 23.9154 78.5536 23.6468 78.6944 23.326C78.867 22.8706 78.9463 22.3851 78.9278 21.8983V16.8867H81.3619V26.096H79.0279V24.7948C79.0056 24.8229 78.9501 24.9074 78.8612 25.0483C78.7735 25.1872 78.666 25.3124 78.542 25.42C78.2279 25.7197 77.8584 25.9551 77.4544 26.1127C77.0578 26.2439 76.6419 26.3068 76.2243 26.2987C74.8684 26.2987 73.9558 25.8087 73.4865 24.8286C73.1837 24.0698 73.049 23.2541 73.0917 22.4379V16.8867H75.5521Z" fill="white"/>
<path d="M87.9742 16.6668C88.0052 16.6698 88.0742 16.6742 88.1806 16.6795V19.1469C88.029 19.1299 87.8943 19.1188 87.7765 19.1134C87.6588 19.1077 87.5631 19.1047 87.49 19.1047C86.5242 19.1047 85.8756 19.4201 85.5444 20.051C85.3284 20.569 85.2334 21.1296 85.2667 21.6901V26.0919H82.8496V16.8822H85.1399V18.4879C85.3946 18.0201 85.7209 17.5954 86.1069 17.2291C86.6041 16.8354 87.226 16.6344 87.8588 16.6628C87.9058 16.6625 87.9435 16.6641 87.9742 16.6668Z" fill="white"/>
<path d="M103.126 17.0347C103.557 17.279 103.92 17.6295 104.179 18.053V13.5H106.613V26.0969H104.279V24.821C103.994 25.3098 103.591 25.7193 103.108 26.0122C102.605 26.2756 102.042 26.4037 101.474 26.3839C100.954 26.3881 100.439 26.2727 99.9696 26.0466C99.5003 25.8204 99.0889 25.4896 98.7667 25.0793C98.0075 24.1332 97.6165 22.9427 97.6663 21.7292C97.6663 20.1579 98.0271 18.9217 98.7487 18.0205C99.0905 17.5821 99.5308 17.2309 100.034 16.9957C100.537 16.7604 101.088 16.6477 101.642 16.6668C102.16 16.6572 102.672 16.7841 103.126 17.0347ZM103.715 23.5951C104.091 23.01 104.277 22.3222 104.246 21.6268C104.246 20.5004 103.962 19.6951 103.395 19.2107C103.057 18.9217 102.626 18.7656 102.182 18.7715C101.877 18.7512 101.572 18.8148 101.299 18.9555C101.027 19.0962 100.798 19.3086 100.637 19.57C100.312 20.1903 100.143 20.8809 100.145 21.5817C100.146 22.2825 100.318 22.9724 100.646 23.5914C100.809 23.8419 101.036 24.0445 101.303 24.1788C101.57 24.3131 101.868 24.3742 102.166 24.3561C102.467 24.3723 102.768 24.311 103.039 24.178C103.31 24.045 103.543 23.8447 103.715 23.5961V23.5951Z" fill="white"/>
<path d="M94.4789 26.1023C94.4789 26.1023 94.4959 25.2326 94.4789 25.0246C94.1434 25.3867 93.7559 25.6965 93.3292 25.9438C92.7928 26.2461 92.1861 26.4002 91.5709 26.3903C90.8175 26.4187 90.0806 26.1648 89.5037 25.6778C89.2266 25.4234 89.0095 25.1102 88.8685 24.7609C88.7274 24.4117 88.6657 24.0353 88.6881 23.6591C88.6881 22.5294 89.1254 21.7116 90.0001 21.2058C90.6622 20.8771 91.3802 20.6769 92.1164 20.6158L92.9377 20.5154C93.2643 20.4871 93.5859 20.4163 93.8943 20.3047C94.0417 20.261 94.1714 20.1712 94.2643 20.0484C94.3572 19.9255 94.4086 19.7761 94.4108 19.6219C94.4266 19.4675 94.3976 19.3117 94.3273 19.1733C94.2571 19.035 94.1485 18.9199 94.0147 18.8419C93.6499 18.6781 93.2513 18.6045 92.8523 18.6271C92.6309 18.604 92.4071 18.6297 92.1966 18.7025C91.9862 18.7753 91.7941 18.8934 91.634 19.0486C91.448 19.2943 91.3303 19.5852 91.2932 19.8916H88.9822C89.0014 19.1776 89.2369 18.4865 89.6574 17.9103C90.2931 17.1012 91.3847 16.6966 92.932 16.6963C93.8614 16.6788 94.7814 16.884 95.6158 17.2948C96.3979 17.6942 96.7889 18.4473 96.7889 19.554V23.7688C96.7889 24.0612 96.7946 25.6865 96.8059 26.1027L94.4789 26.1023ZM94.4032 21.6357C94.2563 21.7278 94.1009 21.8053 93.939 21.8671C93.7296 21.94 93.5144 21.9951 93.2958 22.0317L92.7507 22.1321C92.3686 22.1817 91.9971 22.2929 91.6503 22.4612C91.4696 22.5604 91.3205 22.7089 91.2202 22.8894C91.12 23.0699 91.0726 23.2751 91.0835 23.4815C91.0682 23.6465 91.0914 23.8128 91.1515 23.9672C91.2115 24.1217 91.3066 24.2599 91.4293 24.3709C91.6695 24.557 91.9665 24.6538 92.2698 24.6449C92.7873 24.6468 93.2926 24.4879 93.7163 24.19C94.1571 23.8862 94.3859 23.3326 94.4028 22.5291L94.4032 21.6357Z" fill="white"/>
<path d="M113.496 26.1023C113.496 26.1023 113.513 25.2326 113.496 25.0246C113.161 25.3867 112.773 25.6965 112.347 25.9438C111.81 26.2461 111.204 26.4002 110.589 26.3903C109.835 26.4189 109.098 26.1649 108.521 25.6778C108.244 25.4234 108.027 25.1102 107.886 24.7609C107.745 24.4117 107.683 24.0353 107.706 23.6591C107.706 22.5294 108.143 21.7116 109.018 21.2058C109.68 20.8771 110.398 20.6769 111.134 20.6158L111.955 20.5154C112.282 20.4872 112.604 20.4163 112.912 20.3047C113.059 20.261 113.189 20.1712 113.282 20.0484C113.375 19.9255 113.426 19.7761 113.428 19.6219C113.444 19.4675 113.415 19.3117 113.345 19.1733C113.275 19.035 113.166 18.9199 113.032 18.8419C112.667 18.6781 112.269 18.6045 111.87 18.6271C111.648 18.604 111.425 18.6297 111.214 18.7025C111.004 18.7753 110.812 18.8934 110.652 19.0486C110.466 19.2943 110.348 19.5852 110.311 19.8916H108C108.019 19.1777 108.254 18.4866 108.675 17.9103C109.311 17.1012 110.402 16.6966 111.95 16.6963C112.879 16.6788 113.799 16.884 114.633 17.2948C115.415 17.6942 115.806 18.4473 115.806 19.554V23.7688C115.806 24.0612 115.812 25.6865 115.823 26.1027L113.496 26.1023ZM113.421 21.6357C113.274 21.7278 113.118 21.8053 112.957 21.8671C112.747 21.94 112.532 21.9951 112.313 22.0317L111.768 22.1321C111.386 22.1817 111.015 22.2929 110.668 22.4612C110.487 22.5604 110.338 22.7089 110.238 22.8894C110.138 23.0699 110.09 23.2751 110.101 23.4815C110.086 23.6465 110.109 23.8128 110.169 23.9672C110.229 24.1217 110.324 24.2599 110.447 24.3709C110.687 24.557 110.984 24.6538 111.287 24.6449C111.805 24.6468 112.31 24.4879 112.734 24.19C113.175 23.8862 113.403 23.3326 113.42 22.5291L113.421 21.6357Z" fill="white"/>
<path d="M60.31 16.152C61.04 16.152 61.6318 15.5583 61.6318 14.826C61.6318 14.0937 61.04 13.5 60.31 13.5C59.58 13.5 58.9883 14.0937 58.9883 14.826C58.9883 15.5583 59.58 16.152 60.31 16.152Z" fill="white"/>
</svg>
