<svg width="132" height="41" viewBox="0 0 132 41" fill="none" xmlns="http://www.w3.org/2000/svg">
<rect x="0.364844" y="40.35" width="39.7" height="131.277" rx="11.85" transform="rotate(-90 0.364844 40.35)" fill="#F4F7FE" stroke="#CCD8E5" stroke-width="0.3" stroke-linecap="round" stroke-linejoin="round"/>
<path d="M21.205 14.2734C20.3325 14.7721 19.6121 15.4947 19.115 16.37C18.5976 17.2555 18.3339 18.2529 18.344 19.2809C18.3339 20.2987 18.6078 21.2961 19.115 22.1816C19.6121 23.0569 20.3325 23.7795 21.205 24.2782C22.0876 24.7973 23.0818 25.0619 24.1065 25.0517C25.121 25.0619 26.1255 24.7871 27.0081 24.2782C27.8806 23.7795 28.6009 23.0569 29.098 22.1816C29.6053 21.3063 29.869 20.2987 29.8589 19.2809C29.869 18.2631 29.6053 17.2555 29.098 16.37C28.6009 15.4947 27.8806 14.7721 27.0081 14.2734C26.1255 13.7645 25.1312 13.4999 24.1065 13.51C23.0818 13.4999 22.0775 13.7645 21.205 14.2734ZM26.6631 16.6753C27.3226 17.3776 27.6878 18.314 27.6676 19.2809C27.6878 20.2478 27.3226 21.1739 26.653 21.866C26.0037 22.5683 25.0805 22.9551 24.1268 22.9245C23.163 22.9449 22.2398 22.5581 21.5804 21.866C20.8905 21.1841 20.5151 20.2478 20.5354 19.2809C20.5151 18.314 20.8905 17.3776 21.5702 16.6957C22.2398 15.9934 23.163 15.6169 24.1268 15.6372C25.0805 15.6067 25.9935 15.9833 26.6631 16.6753Z" fill="#F219AF"/>
<path d="M16.1641 29.3879H18.3757V23.4644C19.2482 24.5229 20.5468 25.1132 21.9164 25.0725C22.931 25.0725 23.9353 24.8078 24.8078 24.299C25.6803 23.8002 26.4007 23.0674 26.9079 22.1921C27.4253 21.3169 27.6891 20.3093 27.6789 19.2915C27.6891 18.2737 27.4152 17.2661 26.9079 16.3806C26.4108 15.5053 25.6803 14.7827 24.8078 14.2738C23.9252 13.7649 22.931 13.5003 21.9164 13.5105C18.741 13.5105 16.1641 16.0956 16.1641 19.2813C16.1641 19.2813 16.1641 19.2813 16.1641 19.2915V29.3879ZM21.9164 22.9453C20.9526 22.9657 20.0294 22.5789 19.3699 21.8868C18.6902 21.1947 18.3149 20.2584 18.3352 19.2915C18.3149 18.3246 18.6902 17.3882 19.3699 16.6961C20.0294 15.9939 20.9526 15.6071 21.9164 15.6376C22.8802 15.6173 23.8035 15.9939 24.4731 16.6859C25.1426 17.3882 25.5079 18.3246 25.4876 19.2915C25.5079 20.2584 25.1426 21.1947 24.4629 21.8868C23.8034 22.5789 22.8802 22.9657 21.9164 22.9453ZM37.3676 25.0725C38.1184 25.0826 38.859 24.8893 39.5184 24.5127C40.117 24.2073 40.604 23.7188 40.9185 23.1183V24.8893H43.1098V19.2813C43.1199 18.2635 42.8562 17.2559 42.3489 16.3704C41.8518 15.4951 41.1214 14.7725 40.2489 14.2636C39.3764 13.7547 38.3821 13.4901 37.3676 13.5003C36.3531 13.4901 35.3487 13.7547 34.4762 14.2636C33.6037 14.7623 32.8733 15.4951 32.366 16.3704C31.8486 17.2559 31.5848 18.2635 31.5949 19.2813C31.5949 22.4873 34.182 25.0725 37.3676 25.0725ZM34.8313 21.8868C34.1414 21.2049 33.7661 20.2685 33.7864 19.2915C33.7661 18.3246 34.1415 17.3882 34.8212 16.6961C35.4908 15.9939 36.4241 15.6071 37.3879 15.6376C38.3416 15.6173 39.2648 15.9939 39.9344 16.6859C40.5938 17.3882 40.9591 18.3246 40.9388 19.2915C40.9591 20.2584 40.5938 21.1947 39.9242 21.8868C39.275 22.5891 38.3517 22.9758 37.3879 22.9453C36.4241 22.9657 35.4908 22.5891 34.8313 21.8868ZM52.9812 15.8208V13.6835H44.5301V15.8208H50.181C50.181 15.8208 44.6722 22.1921 44.3475 22.7214C44.2359 22.9453 44.1853 23.1997 44.2056 23.444C44.1954 24.187 44.2056 24.8893 44.2056 24.8893H53.1638V22.7519H46.9752L52.9812 15.8208ZM59.2915 25.0725C60.0422 25.0826 60.7828 24.8893 61.4423 24.5127C62.0408 24.2073 62.5278 23.7188 62.8423 23.1183V24.8893H65.0337V19.2813C65.0439 18.2635 64.7801 17.2559 64.2728 16.3704C63.7757 15.4951 63.0452 14.7725 62.1727 14.2636C61.3003 13.7547 60.306 13.4901 59.2915 13.5003C58.2769 13.4901 57.2726 13.7547 56.4001 14.2636C55.5276 14.7623 54.7971 15.4951 54.2899 16.3704C53.7725 17.2559 53.5087 18.2635 53.5189 19.2813C53.5189 22.4873 56.1059 25.0725 59.2915 25.0725ZM56.7551 21.8868C56.0653 21.2049 55.6899 20.2685 55.7102 19.2915C55.6899 18.3246 56.0653 17.3882 56.745 16.6961C57.4146 15.9939 58.348 15.6071 59.3118 15.6376C60.2654 15.6173 61.1887 15.9939 61.8583 16.6859C62.5279 17.3882 62.8829 18.3246 62.8626 19.2915C62.8829 20.2584 62.5177 21.1947 61.8481 21.8868C61.1988 22.5891 60.2756 22.9758 59.3118 22.9453C58.348 22.9657 57.4146 22.5891 56.7551 21.8868ZM68.7672 24.8994V19.037C68.7672 16.8386 69.6701 15.7598 71.2731 15.7598H71.4963V13.6326H71.2731C69.9948 13.5715 68.7469 14.0702 67.8541 14.9862C66.9917 15.8921 66.5656 17.2457 66.5656 19.0268V24.8893H68.7672V24.8994ZM77.8268 25.0725C78.5776 25.0826 79.3182 24.8893 79.9777 24.5127C80.5762 24.2073 81.0632 23.7188 81.3777 23.1183V24.8893H83.5691V19.2813C83.5793 18.2635 83.3155 17.2559 82.8082 16.3704C82.3111 15.4951 81.5806 14.7725 80.7081 14.2636C79.8356 13.7547 78.8414 13.4901 77.8268 13.5003C76.8123 13.4901 75.8079 13.7547 74.9354 14.2636C74.063 14.7623 73.3325 15.4951 72.8253 16.3704C72.3078 17.2559 72.0441 18.2635 72.0543 19.2813C72.0644 22.4771 74.6412 25.0725 77.8268 25.0725ZM75.3007 21.8868C74.6109 21.2049 74.2354 20.2685 74.2557 19.2915C74.2354 18.3246 74.6108 17.3882 75.2905 16.6961C75.9601 15.9939 76.8935 15.6071 77.8573 15.6376C78.8109 15.6173 79.7342 15.9939 80.4038 16.6859C81.0632 17.3882 81.4284 18.3246 81.4081 19.2915C81.4284 20.2584 81.0632 21.1947 80.3936 21.8868C79.7443 22.5891 78.8211 22.9758 77.8573 22.9453C76.8833 22.9758 75.9602 22.5891 75.3007 21.8868ZM97.2652 13.5105C95.7231 13.429 94.2622 14.2331 93.5115 15.5867C92.7607 14.2331 91.2998 13.4189 89.7577 13.5105C88.4388 13.4494 87.1605 13.9481 86.2373 14.8946C85.3547 15.831 84.9082 17.1948 84.9082 18.9963V24.8994H87.0996V18.9963C87.0996 16.747 88.0533 15.6376 89.7577 15.6376C91.5331 15.6376 92.4157 16.7572 92.4157 18.9963V24.8994H94.5969V18.9963C94.5969 16.747 95.5506 15.6376 97.255 15.6376C99.0304 15.6376 99.9131 16.7572 99.9131 18.9963V24.8994H102.094V18.9963C102.094 17.1948 101.658 15.8208 100.775 14.8946C99.8623 13.9481 98.5841 13.4494 97.2652 13.5105ZM109.105 25.0725C109.855 25.0826 110.596 24.8893 111.255 24.5127C111.854 24.2073 112.341 23.7188 112.655 23.1183V24.8893H114.847V19.2813C114.857 18.2635 114.593 17.2559 114.086 16.3704C113.589 15.4951 112.858 14.7725 111.986 14.2636C111.113 13.7547 110.119 13.4901 109.105 13.5003C108.09 13.4901 107.086 13.7547 106.213 14.2636C105.341 14.7623 104.61 15.485 104.103 16.3602C103.586 17.2457 103.322 18.2533 103.332 19.2711C103.342 22.4771 105.919 25.0725 109.105 25.0725ZM106.579 21.8868C105.889 21.2049 105.513 20.2685 105.534 19.2915C105.513 18.3246 105.889 17.3882 106.568 16.6961C107.238 15.9939 108.171 15.6071 109.135 15.6376C110.089 15.6173 111.012 15.9939 111.682 16.6859C112.341 17.3882 112.706 18.3246 112.686 19.2915C112.706 20.2584 112.341 21.1947 111.671 21.8868C111.022 22.5891 110.099 22.9758 109.135 22.9453C108.161 22.9657 107.238 22.5891 106.579 21.8868Z" fill="#0136F4"/>
<path d="M20.5273 19.1791H18.3359C18.3664 16.0138 20.9432 13.4795 24.0984 13.51C27.2434 13.4795 29.8204 16.024 29.8508 19.1791H27.7203C27.7 18.2427 27.3144 17.3471 26.6651 16.6753C26.0057 15.9832 25.0825 15.6067 24.1288 15.627C23.165 15.6067 22.2317 15.9934 21.5722 16.6855C20.9128 17.3471 20.5374 18.2427 20.5273 19.1791Z" fill="#F219AF"/>
</svg>
