<svg width="133" height="41" viewBox="0 0 133 41" fill="none" xmlns="http://www.w3.org/2000/svg">
<rect x="1.38672" y="40" width="39" height="130.577" rx="11.5" transform="rotate(-90 1.38672 40)" fill="white" stroke="#E8EEFF"/>
<g clip-path="url(#clip0_0_12989)">
<path fill-rule="evenodd" clip-rule="evenodd" d="M20.0615 12.3071C20.4975 11.248 21.5918 10.4988 22.7382 10.5019C31.3618 10.4988 39.9854 10.5029 48.609 10.4988C49.3569 10.482 50.1059 10.7614 50.6577 11.269C51.2898 11.8362 51.6497 12.6838 51.632 13.5336C51.6289 16.8499 51.6382 20.1651 51.6278 23.4815C51.6216 24.98 50.3166 26.3174 48.8239 26.3583C45.6788 26.3719 42.5327 26.3593 39.3877 26.3645C39.8101 27.4089 40.2378 28.4523 40.6603 29.4977C38.7868 28.4627 36.9321 27.3911 35.0482 26.3781C30.9111 26.3415 26.7709 26.3813 22.6328 26.3572C21.1422 26.3153 19.8424 24.979 19.8341 23.4836C19.8215 20.2384 19.8341 16.9912 19.8278 13.7439C19.8163 13.2562 19.8622 12.7581 20.0615 12.3071Z" fill="#9C5C8F"/>
<path fill-rule="evenodd" clip-rule="evenodd" d="M32.7115 12.5488C33.1893 12.0391 34.0958 12.2045 34.4483 12.7811C34.6392 13.0835 34.6559 13.4875 34.5026 13.8098C33.8381 15.121 33.5606 16.5819 33.3051 18.0177C33.0026 19.8899 32.7512 21.7861 32.8492 23.6865C32.8763 24.1711 32.6427 24.7592 32.1242 24.8722C31.634 24.9821 31.1875 24.6598 30.8798 24.3123C29.4715 22.7928 28.6746 20.8244 28.0998 18.8601C27.5188 20.0102 26.9357 21.1603 26.3724 22.3198C25.9781 23.1036 25.5619 23.9032 24.9318 24.5258C24.6658 24.7906 24.2162 25.0302 23.873 24.7581C23.3567 24.305 23.2294 23.5829 23.0103 22.9624C22.179 20.0856 21.7075 17.1209 21.2245 14.1698C21.1139 13.6779 21.3194 13.0888 21.8087 12.892C22.204 12.7434 22.7099 12.7225 23.0469 13.0145C23.2816 13.2248 23.3462 13.5503 23.3901 13.8475C23.7291 16.1319 24.1328 18.4091 24.6825 20.6528C25.6244 18.8612 26.5612 17.0665 27.5 15.2728C27.6398 15.0101 27.8067 14.7464 28.0633 14.5831C28.4065 14.3623 28.9155 14.378 29.2024 14.6867C29.4434 14.94 29.5237 15.2927 29.5905 15.6254C29.8711 17.1083 30.2508 18.5765 30.8026 19.982C31.0404 17.8639 31.3314 15.7196 32.1023 13.7198C32.2765 13.3169 32.4299 12.891 32.7115 12.5488ZM38.0065 13.6832C39.0204 13.5586 40.1147 13.8967 40.8052 14.67C41.3685 15.3094 41.6846 16.1393 41.791 16.9786C41.9631 18.4143 41.7054 19.9066 41.017 21.1802C40.6279 21.9065 40.1188 22.6024 39.4011 23.0293C38.3497 23.6698 36.9393 23.5913 35.9233 22.9153C35.1118 22.3575 34.6559 21.4073 34.4702 20.4602C34.0968 18.317 34.7352 15.9279 36.3531 14.4314C36.8173 14.0296 37.3962 13.7575 38.0065 13.6832ZM38.2182 15.8881C37.7311 16.0503 37.4234 16.4982 37.1615 16.9147C36.5054 17.9748 36.3156 19.3729 36.8434 20.5261C36.9821 20.8296 37.2053 21.1488 37.5569 21.2126C37.9303 21.2744 38.2777 21.0598 38.55 20.8265C39.1498 20.3106 39.4481 19.5351 39.5931 18.7743C39.7558 17.9078 39.6724 16.9482 39.1654 16.2062C38.962 15.9038 38.5625 15.7667 38.2182 15.8881ZM46.1419 13.6853C47.1329 13.5618 48.2083 13.8684 48.902 14.6104C49.5227 15.2822 49.8586 16.1811 49.9535 17.0842C50.0996 18.4719 49.845 19.9066 49.1889 21.1404C48.7946 21.8866 48.2741 22.6045 47.5355 23.0388C46.5258 23.6457 45.1926 23.5903 44.1923 22.9917C43.5163 22.5835 43.0667 21.8866 42.808 21.154C42.0987 18.9135 42.6975 16.2774 44.3321 14.5863C44.8223 14.107 45.4586 13.7711 46.1419 13.6853ZM46.3568 15.8913C45.8248 16.0817 45.5056 16.5914 45.2292 17.0539C44.6304 18.1129 44.4833 19.4765 45.0247 20.5889C45.1707 20.8966 45.4294 21.2064 45.7956 21.2231C46.1941 21.2378 46.5372 20.9845 46.8137 20.7229C47.4156 20.1274 47.691 19.2766 47.7869 18.451C47.886 17.6776 47.7577 16.8467 47.3092 16.1979C47.1037 15.8954 46.7 15.7667 46.3568 15.8913Z" fill="white"/>
<path fill-rule="evenodd" clip-rule="evenodd" d="M56.9889 13.9802C57.8537 13.7887 58.7633 13.8148 59.6239 14.0158C59.627 14.7221 59.6239 15.4285 59.626 16.1349C58.9198 15.9643 58.1301 15.8042 57.4448 16.1349C56.6259 16.5367 56.1784 17.4629 56.1701 18.3524C56.1242 19.2388 56.4183 20.2256 57.2007 20.7237C57.9194 21.2009 58.8374 21.0994 59.626 20.8723C59.6239 21.5787 59.626 22.2851 59.6239 22.9915C58.5807 23.295 57.4406 23.2573 56.4225 22.8774C55.1999 22.4169 54.2267 21.3579 53.8543 20.1032C53.5726 19.1509 53.5361 18.119 53.7646 17.151C54.1328 15.598 55.4399 14.3255 56.9889 13.9791V13.9802ZM63.3437 13.8755C64.4077 13.7562 65.5656 13.9205 66.4251 14.6049C67.2544 15.2506 67.6685 16.2919 67.8125 17.309C67.9585 18.4225 67.9262 19.581 67.583 20.6568C67.2909 21.5703 66.6797 22.4149 65.7993 22.8303C64.9042 23.2531 63.8611 23.2813 62.9087 23.0658C62.0262 22.8669 61.2491 22.2799 60.811 21.4877C60.2049 20.4192 60.0943 19.1509 60.1413 17.9453C60.1914 16.9051 60.4532 15.8209 61.15 15.0193C61.6966 14.3674 62.5061 13.9708 63.3437 13.8755ZM63.6713 15.9015C63.2144 16.0177 62.9557 16.4698 62.8409 16.8957C62.6146 17.7381 62.6532 18.6245 62.7105 19.4868C62.7658 19.9525 62.8159 20.4673 63.1466 20.8305C63.5857 21.3317 64.4682 21.2637 64.8719 20.7509C65.1389 20.4223 65.2078 19.9891 65.2693 19.5831C65.3549 18.8568 65.3768 18.118 65.2662 17.3938C65.189 16.9595 65.0691 16.5012 64.7509 16.1768C64.4776 15.8921 64.0457 15.8052 63.6713 15.9015ZM105.401 14.0168C106.304 13.7793 107.262 13.8138 108.17 14.0084C108.191 14.7169 108.175 15.4264 108.18 16.1349C107.488 15.9685 106.725 15.8126 106.048 16.1119C105.269 16.4677 104.798 17.3049 104.737 18.141C104.641 19.0787 104.899 20.1565 105.723 20.7049C106.445 21.203 107.381 21.1057 108.18 20.8734C108.17 21.585 108.201 22.2976 108.163 23.0082C107.051 23.2981 105.84 23.2594 104.78 22.7979C103.616 22.2893 102.714 21.2344 102.379 20.0079C102.122 19.0661 102.093 18.0531 102.33 17.1039C102.7 15.62 103.93 14.4019 105.401 14.0168ZM69.2155 14.0869C70.2211 14.0848 71.2277 14.0848 72.2344 14.0869C72.5984 15.7236 72.9447 17.3656 73.2472 19.0148C73.5351 17.3582 73.9222 15.7215 74.3112 14.0869C75.3429 14.0848 76.3746 14.0869 77.4073 14.0869C77.8078 17.0495 78.2063 20.0121 78.6037 22.9747C77.8141 22.9747 77.0255 22.9758 76.2358 22.9747C76.0168 20.9456 75.8228 18.9144 75.5912 16.8863C75.1124 18.9185 74.6075 20.9445 74.1193 22.9747C73.581 22.9768 73.0417 22.9758 72.5035 22.9747C71.9871 20.9424 71.4791 18.907 70.9586 16.8758C70.7552 18.9091 70.5539 20.9424 70.3484 22.9758C69.5942 22.9747 68.839 22.9758 68.0848 22.9747C68.4603 20.0121 68.839 17.0506 69.2155 14.088V14.0869ZM80.0443 14.0859C81.0509 14.0859 82.0576 14.0838 83.0652 14.0859C83.4283 15.7205 83.7714 17.3593 84.076 19.0065C84.3681 17.353 84.751 15.7173 85.1411 14.0848H88.2246C88.6241 17.0474 89.0226 20.01 89.42 22.9726C88.6314 22.9747 87.8428 22.9726 87.0542 22.9747C86.8351 20.9445 86.6307 18.9144 86.4148 16.8842C85.9224 18.9133 85.4394 20.9445 84.9471 22.9737C84.4088 22.9726 83.8716 22.9737 83.3344 22.9737C82.818 20.9393 82.3048 18.9039 81.7895 16.8685C81.5829 18.9028 81.3837 20.9383 81.1782 22.9726C80.423 22.9726 79.6688 22.9737 78.9136 22.9726C79.2901 20.01 79.6678 17.0474 80.0443 14.0848V14.0859ZM90.0939 14.1152C91.7097 14.0785 93.3276 14.1099 94.9445 14.0995C94.9476 14.7305 94.9424 15.3605 94.9476 15.9915C94.1319 16.0009 93.3161 15.9915 92.5004 15.9968C92.5004 16.5388 92.5004 17.0809 92.5004 17.623C93.2066 17.6251 93.9128 17.623 94.619 17.623C94.619 18.2373 94.6201 18.8505 94.619 19.4638C93.9128 19.4638 93.2066 19.4638 92.5004 19.4638C92.5004 20.0058 92.5004 20.549 92.5004 21.0911C93.3193 21.0931 94.1392 21.0911 94.958 21.0911C94.958 21.7221 94.9591 22.3531 94.958 22.9841C93.3412 22.9841 91.7243 22.9841 90.1085 22.9841C90.0981 20.0268 90.1262 17.0684 90.0939 14.112V14.1152ZM95.6423 14.0859C96.6542 14.0901 97.666 14.0775 98.6779 14.0922C99.6313 14.1225 100.642 14.3611 101.354 15.0382C101.996 15.6378 102.218 16.6163 101.969 17.4503C101.772 18.1284 101.265 18.6789 100.632 18.9761C101.265 20.3104 101.904 21.6405 102.537 22.9737C101.696 22.9737 100.854 22.9737 100.013 22.9747C99.3528 21.6143 98.7133 20.2424 98.0447 18.8861C98.028 20.2486 98.0426 21.6112 98.0374 22.9737C97.2383 22.9737 96.4403 22.9747 95.6423 22.9737C95.6423 20.0111 95.6413 17.0485 95.6423 14.0859ZM98.0259 15.7948C98.0238 16.5012 98.0238 17.2086 98.0259 17.916C98.4588 17.8857 98.9293 17.8689 99.2975 17.6063C99.721 17.2996 99.6751 16.6435 99.4081 16.2479C99.0774 15.8419 98.5026 15.8335 98.0259 15.7948ZM108.849 14.088C110.463 14.0838 112.077 14.088 113.691 14.0859C113.692 14.718 113.691 15.35 113.691 15.9821C112.872 15.9832 112.053 15.9821 111.234 15.9832C111.233 16.5242 111.233 17.0652 111.233 17.6073C111.939 17.6094 112.645 17.6073 113.352 17.6073C113.352 18.2216 113.352 18.8369 113.352 19.4512C112.645 19.4512 111.94 19.4512 111.235 19.4512C111.232 19.9933 111.233 20.5354 111.235 21.0785C112.057 21.0806 112.879 21.0785 113.702 21.0785C113.702 21.7095 113.702 22.3406 113.701 22.9726C112.085 22.9726 110.468 22.9726 108.853 22.9716C108.849 20.01 108.853 17.0474 108.851 14.0859L108.849 14.088Z" fill="black"/>
</g>
<defs>
<clipPath id="clip0_0_12989">
<rect width="93.875" height="19" fill="white" transform="translate(19.8262 10.5)"/>
</clipPath>
</defs>
</svg>
