<svg width="133" height="41" viewBox="0 0 133 41" fill="none" xmlns="http://www.w3.org/2000/svg">
<rect x="0.827734" y="40.35" width="39.7" height="131.277" rx="11.85" transform="rotate(-90 0.827734 40.35)" fill="#F4F7FE" stroke="#CCD8E5" stroke-width="0.3" stroke-linecap="round" stroke-linejoin="round"/>
<path d="M91.6757 16.6859C92.0732 13.9164 90.652 11.1033 88.0003 9.85782C85.3486 8.61784 82.2886 9.33342 80.4318 11.4201C76.7728 11.9499 73.4459 14.2715 71.7689 17.8876C69.1226 23.5904 71.5729 30.3693 77.252 33.0295C82.9256 35.6897 89.6719 33.2207 92.3182 27.5125C93.9898 23.8854 93.6195 19.8377 91.6757 16.6859Z" fill="#231F1F"/>
<path d="M85.2658 7.44841C85.7504 7.67237 86.333 7.44295 86.5781 6.92948C86.8176 6.41601 86.6216 5.81514 86.1316 5.58572C85.647 5.36176 85.0644 5.59118 84.8193 6.10465C84.5852 6.61812 84.7812 7.21899 85.2658 7.44841Z" fill="#231F1F"/>
<path d="M91.509 10.3683C91.9936 10.5923 92.5762 10.3629 92.8213 9.8494C93.0608 9.33593 92.8648 8.73506 92.3748 8.50564C91.8902 8.28168 91.3076 8.5111 91.0625 9.02457C90.8284 9.54351 91.0299 10.1444 91.509 10.3683Z" fill="#231F1F"/>
<path d="M49.6477 29.6728C47.8563 29.6728 47.3064 29.0719 47.3064 27.2747V23.1451C47.3064 21.561 46.7728 20.8509 45.4115 20.8509C44.2354 20.8509 43.5983 21.6429 43.5983 23.0796V29.6782H42.2371C40.511 29.6782 39.5527 28.9954 39.5527 27.2802V23.1506C39.5527 19.7639 41.7906 17.5625 45.5204 17.5625C49.6749 17.5625 51.3574 19.7693 51.3574 23.2544V29.6782L49.6477 29.6728Z" fill="#5D3EBC"/>
<path d="M57.564 29.6638C56.3498 29.6638 55.4078 28.8281 55.4078 27.4133V18.9356L54.0684 19.3616C53.7689 19.4436 53.4694 19.4873 53.1917 19.4873C52.3369 19.4873 51.678 19.083 51.5528 18.3729L51.2969 16.9581L55.1519 15.3303C55.789 15.0518 56.6057 14.877 57.515 14.877C58.4733 14.877 59.4534 15.5598 59.4534 16.7178V29.6474H57.564V29.6638Z" fill="#5D3EBC"/>
<path d="M66.8453 29.6638C65.6311 29.6638 64.6891 28.8281 64.6891 27.4133V18.9356L63.3496 19.3616C63.0501 19.4436 62.7507 19.4873 62.473 19.4873C61.6181 19.4873 60.9593 19.083 60.834 18.3729L60.5781 16.9581L64.4332 15.3303C65.0702 15.0518 65.887 14.877 66.7963 14.877C67.7546 14.877 68.7347 15.5598 68.7347 16.7178V29.6474H66.8453V29.6638Z" fill="#5D3EBC"/>
<path d="M91.6757 16.6761C92.0732 13.9067 90.652 11.0935 88.0003 9.84805C85.3486 8.60808 82.2886 9.32366 80.4318 11.4103C76.7728 11.9402 73.4459 14.2562 71.7689 17.8779C69.1226 23.5807 71.5729 30.3596 77.252 33.0198C82.9311 35.68 89.6719 33.2109 92.3182 27.5027C93.9898 23.8811 93.6195 19.8334 91.6757 16.6761Z" fill="white"/>
<path d="M91.1313 18.4997C89.6176 21.7607 85.768 23.1701 82.5282 21.646C79.283 20.1275 77.8837 16.2546 79.3919 12.999C80.9056 9.7379 84.7552 8.32859 88.0004 9.85261C91.2402 11.3712 92.645 15.2386 91.1313 18.4997Z" fill="#231F1F"/>
<path d="M92.3173 27.5C89.671 33.2028 82.9247 35.6718 77.2511 33.0171C71.5774 30.3569 69.1218 23.5834 71.768 17.8752C74.4143 12.1724 81.1606 9.70335 86.8342 12.3581C92.5133 15.0183 94.9636 21.7972 92.3173 27.5Z" fill="#5D3EBC"/>
<path d="M88.3656 15.8536C87.6959 17.2957 85.9916 17.9184 84.5542 17.2465C83.1167 16.5746 82.5014 14.8594 83.1657 13.4173C83.8354 11.9752 85.5397 11.3525 86.9772 12.0244C88.4092 12.7017 89.0299 14.4169 88.3656 15.8536Z" fill="#FFD10D"/>
<path d="M79.8066 22.5499C79.3056 23.6369 78.0152 24.1067 76.9371 23.5987C75.8535 23.0961 75.3852 21.8015 75.8916 20.7145C76.3926 19.6275 77.683 19.1577 78.7611 19.6657C79.8392 20.1737 80.3075 21.4683 79.8066 22.5499Z" fill="#FFD10D"/>
<path d="M78.3422 15.9122C78.0264 16.5896 77.2314 16.8791 76.5563 16.5623C75.8865 16.2454 75.5925 15.4425 75.9083 14.7706C76.2241 14.0932 77.0191 13.8037 77.6943 14.1205C78.364 14.4264 78.6526 15.2349 78.3422 15.9122Z" fill="#FFD10D"/>
<path d="M75.6703 27.0431C75.3545 27.7204 74.5596 28.0099 73.8844 27.6931C73.2147 27.3763 72.9206 26.5733 73.2364 25.9014C73.5522 25.2241 74.3472 24.9346 75.0224 25.2514C75.6976 25.5682 75.9807 26.3712 75.6703 27.0431Z" fill="#FFD10D"/>
<path d="M83.567 24.3248C83.0661 25.4118 83.5289 26.7064 84.6124 27.2089C85.696 27.7115 86.981 27.2472 87.4819 26.1602C87.9829 25.0731 87.52 23.7785 86.4365 23.276C85.3584 22.768 84.0679 23.2323 83.567 24.3248Z" fill="#FFD10D"/>
<path d="M89.5665 21.1779C89.2507 21.8552 89.5447 22.6527 90.2145 22.9696C90.8842 23.2864 91.6846 22.9914 92.0004 22.3195C92.3162 21.6422 92.0222 20.8447 91.3525 20.5279C90.6773 20.211 89.8823 20.506 89.5665 21.1779Z" fill="#FFD10D"/>
<path d="M82.8067 30.3869C82.4909 31.0642 82.785 31.8617 83.4547 32.1786C84.1244 32.4954 84.9248 32.2004 85.2406 31.5285C85.5565 30.8512 85.2624 30.0537 84.5927 29.7368C83.923 29.42 83.1226 29.715 82.8067 30.3869Z" fill="#FFD10D"/>
<path d="M86.8787 12.2327C86.7807 12.1835 86.6772 12.1453 86.5738 12.1016L76.8164 33.1375C76.9144 33.1866 77.0124 33.2358 77.1104 33.2849C77.2084 33.3341 77.3119 33.3723 77.4154 33.416L87.1727 12.3747C87.0802 12.3255 86.9822 12.2818 86.8787 12.2327Z" fill="#231F1F"/>
</svg>
