<svg width="132" height="41" viewBox="0 0 132 41" fill="none" xmlns="http://www.w3.org/2000/svg">
<rect x="0.78125" y="40" width="39" height="130.577" rx="11.5" transform="rotate(-90 0.78125 40)" fill="#EDEFF6" stroke="#E8EEFF"/>
<path d="M76.8565 19.4419C77.7112 19.9342 78.1385 20.6774 78.1385 21.6714C78.1385 22.4981 77.8459 23.1763 77.2606 23.7058C76.6754 24.2353 75.9554 24.5 75.1008 24.5H70.9624V14.7461H74.8082C75.6442 14.7461 76.3456 15.0062 76.9123 15.5264C77.4882 16.0373 77.7762 16.6922 77.7762 17.4911C77.7762 18.2993 77.4696 18.9495 76.8565 19.4419ZM74.8082 16.5436H72.8853V18.6894H74.8082C75.1055 18.6894 75.3516 18.5873 75.5467 18.3829C75.7511 18.1785 75.8533 17.9231 75.8533 17.6165C75.8533 17.31 75.7557 17.0545 75.5606 16.8501C75.3656 16.6458 75.1148 16.5436 74.8082 16.5436ZM75.1008 22.7025C75.4259 22.7025 75.6953 22.5957 75.909 22.382C76.1227 22.1591 76.2295 21.8804 76.2295 21.546C76.2295 21.2208 76.1227 20.9514 75.909 20.7378C75.6953 20.5148 75.4259 20.4033 75.1008 20.4033H72.8853V22.7025H75.1008ZM78.543 24.5V23.0648L81.8733 19.637C82.6164 18.8567 82.988 18.2064 82.988 17.6862C82.988 17.3053 82.8672 16.9988 82.6257 16.7665C82.3935 16.5343 82.0916 16.4182 81.72 16.4182C80.9861 16.4182 80.4427 16.799 80.0897 17.5608L78.4733 16.6132C78.7799 15.9444 79.2211 15.4335 79.7971 15.0805C80.373 14.7275 81.0047 14.551 81.6921 14.551C82.5746 14.551 83.3317 14.8297 83.9634 15.387C84.5951 15.9351 84.9109 16.6783 84.9109 17.6165C84.9109 18.6291 84.3768 19.6695 83.3085 20.7378L81.3995 22.6468H85.0642V24.5H78.543ZM92.3692 19.4419C93.2238 19.9342 93.6511 20.6774 93.6511 21.6714C93.6511 22.4981 93.3585 23.1763 92.7733 23.7058C92.188 24.2353 91.4681 24.5 90.6135 24.5H86.475V14.7461H90.3209C91.1569 14.7461 91.8583 15.0062 92.4249 15.5264C93.0009 16.0373 93.2888 16.6922 93.2888 17.4911C93.2888 18.2993 92.9823 18.9495 92.3692 19.4419ZM90.3209 16.5436H88.3979V18.6894H90.3209C90.6181 18.6894 90.8643 18.5873 91.0594 18.3829C91.2637 18.1785 91.3659 17.9231 91.3659 17.6165C91.3659 17.31 91.2684 17.0545 91.0733 16.8501C90.8782 16.6458 90.6274 16.5436 90.3209 16.5436ZM90.6135 22.7025C90.9386 22.7025 91.208 22.5957 91.4217 22.382C91.6353 22.1591 91.7422 21.8804 91.7422 21.546C91.7422 21.2208 91.6353 20.9514 91.4217 20.7378C91.208 20.5148 90.9386 20.4033 90.6135 20.4033H88.3979V22.7025H90.6135Z" fill="#747C98"/>
<path d="M53.3359 7.5L57.9574 12.1363L53.3359 16.7726" stroke="#747C98" stroke-width="2.31815" stroke-linecap="round" stroke-linejoin="round"/>
<path d="M37.1621 19.0912V16.773C37.1621 15.5434 37.649 14.3641 38.5157 13.4947C39.3824 12.6252 40.5579 12.1367 41.7836 12.1367H57.9587" stroke="#747C98" stroke-width="2.31815" stroke-linecap="round" stroke-linejoin="round"/>
<path d="M41.7836 33.0011L37.1621 28.3648L41.7836 23.7285" stroke="#747C98" stroke-width="2.31815" stroke-linecap="round" stroke-linejoin="round"/>
<path d="M57.9587 21.4082V23.7264C57.9587 24.956 57.4718 26.1352 56.6051 27.0047C55.7384 27.8742 54.5629 28.3627 53.3372 28.3627H37.1621" stroke="#747C98" stroke-width="2.31815" stroke-linecap="round" stroke-linejoin="round"/>
</svg>
