<svg width="132" height="41" viewBox="0 0 132 41" fill="none" xmlns="http://www.w3.org/2000/svg">
<rect x="0.921875" y="40" width="39" height="130.577" rx="11.5" transform="rotate(-90 0.921875 40)" fill="white" stroke="#E8EEFF"/>
<g clip-path="url(#clip0_0_12995)">
<path fill-rule="evenodd" clip-rule="evenodd" d="M46.48 19.4392C46.48 20.9261 46.9269 22.1477 47.8198 23.1045C48.7127 24.0416 49.8595 24.5091 51.2602 24.5091C52.6598 24.5091 53.8066 24.0411 54.6994 23.1045C55.5928 22.1472 56.0388 20.9261 56.0388 19.4392C56.0388 17.9529 55.5928 16.7419 54.6994 15.8048C53.8066 14.8485 52.6603 14.3699 51.2602 14.3699C49.86 14.3699 48.7127 14.8485 47.8198 15.8048C46.9269 16.7419 46.48 17.9529 46.48 19.4392ZM43.6797 19.4392C43.6797 17.22 44.4403 15.3776 45.9621 13.9119C47.4236 12.5073 49.1898 11.8047 51.2602 11.8047C53.3294 11.8047 55.0956 12.5067 56.5566 13.9119C58.0795 15.3776 58.8401 17.22 58.8401 19.4392C58.8401 21.6595 58.089 23.4913 56.5873 24.9368C55.1051 26.3621 53.3294 27.0738 51.2602 27.0738C49.1898 27.0738 47.4236 26.3616 45.9621 24.9368C44.4403 23.4908 43.6797 21.6589 43.6797 19.4392Z" fill="#EC008C"/>
<path d="M91.4893 17.8711C91.2803 17.0687 90.8963 16.3757 90.3362 15.7888C89.4443 14.8309 88.297 14.3528 86.8969 14.3528C85.4967 14.3528 84.3494 14.8309 83.4565 15.7888C82.5637 16.7249 82.1167 17.9358 82.1167 19.4227C82.1167 20.9096 82.5642 22.1312 83.4565 23.0869C84.3494 24.024 85.4967 24.4921 86.8969 24.4921C88.297 24.4921 89.4443 24.0235 90.3362 23.0869C90.5678 22.8401 90.7678 22.5759 90.9386 22.293L93.1021 23.9221C92.8471 24.2729 92.5514 24.6056 92.224 24.9198C90.7434 26.3456 88.9677 27.0572 86.8974 27.0572C84.8271 27.0572 83.0614 26.3451 81.6004 24.9198C80.0776 23.4737 79.3164 21.6408 79.3164 19.4227C79.3164 17.203 80.0776 15.3611 81.6004 13.8949C83.0614 12.4902 84.8271 11.7871 86.8974 11.7871C88.9677 11.7871 90.7334 12.4897 92.1944 13.8949C93.7172 15.3611 94.4774 17.203 94.4774 19.4227C94.4774 19.7262 94.4641 20.0229 94.435 20.3126H85.6649V17.8711H91.4893Z" fill="#F15A37"/>
<path d="M31.3223 19.4033V5.49805H34.1236V13.4526C35.4793 12.353 37.0715 11.8038 38.9033 11.8038C40.9731 11.8038 42.7382 12.5059 44.2008 13.9111C45.7226 15.3767 46.4832 17.2192 46.4832 19.4384C46.4832 21.6586 45.7321 23.4904 44.2299 24.9359C42.7488 26.3613 40.9731 27.0729 38.9033 27.0729C36.8329 27.0729 35.0673 26.3607 33.6058 24.9359C32.0834 23.4899 31.3223 21.6581 31.3223 19.4384V19.4033ZM34.1236 19.4384C34.1236 20.9252 34.5701 22.1468 35.4629 23.1036C36.3558 24.0407 37.5026 24.5082 38.9033 24.5082C40.3029 24.5082 41.4497 24.0402 42.3431 23.1036C43.2359 22.1463 43.6829 20.9252 43.6829 19.4384C43.6829 17.952 43.2354 16.741 42.3431 15.8039C41.4502 14.8477 40.3034 14.369 38.9033 14.369C37.5031 14.369 36.3563 14.8477 35.4629 15.8039C34.5701 16.741 34.1236 17.952 34.1236 19.4384Z" fill="#F15A37"/>
<path d="M71.8717 27.0626H69.0762V18.4893C69.0762 16.5116 69.6908 14.9079 70.9201 13.6741C72.1484 12.4197 73.7067 11.793 75.5929 11.793C77.4781 11.793 79.0364 12.4197 80.2657 13.6741C81.4939 14.9079 82.1075 16.5121 82.1075 18.4893V27.062H79.3109V18.4893C79.3109 17.3415 78.9401 16.3847 78.198 15.6195C77.4781 14.8543 76.609 14.4717 75.5924 14.4717C74.5747 14.4717 73.6945 14.8543 72.9539 15.6195C72.234 16.3847 71.8722 17.3415 71.8722 18.4893L71.8717 27.0626Z" fill="#EC008C"/>
<path d="M99.2724 14.3495C97.8717 14.3495 96.7165 14.8276 95.8236 15.7838C94.9307 16.7209 94.4848 17.9399 94.4848 19.4268V20.3124H91.6914V19.4177C91.6914 17.1991 92.4446 15.3572 93.9664 13.891C95.4285 12.4853 97.1941 11.7832 99.2645 11.7832H100.101V14.3489L99.2724 14.3495Z" fill="#EC008C"/>
<path d="M69.0806 19.0898H71.8762V28.6188C71.8762 30.5966 71.2615 32.2013 70.0322 33.4345C68.8029 34.6884 67.2457 35.3157 65.3594 35.3157C63.4737 35.3157 61.9154 34.6884 60.6866 33.4345C59.4584 32.2013 58.8438 30.596 58.8438 28.6188H61.6403C61.6403 29.7672 62.0111 30.7239 62.7533 31.4886C63.4732 32.2549 64.3423 32.6364 65.3594 32.6364C66.3771 32.6364 67.2573 32.2549 67.9989 31.4886C68.7178 30.7239 69.0785 29.7672 69.0785 28.6188L69.0796 25.9831C68.028 26.7021 66.7881 27.0608 65.3594 27.0608C63.4737 27.0608 61.9154 26.4341 60.6866 25.1796C59.4584 23.9464 58.8438 22.3417 58.8438 20.365V19.0898H61.6403V20.365C61.6403 21.5128 62.0111 22.4696 62.7533 23.2353C63.4732 24 64.3423 24.3826 65.3594 24.3826C66.3771 24.3826 67.2573 24 67.9989 23.2353C68.7178 22.4696 69.0785 21.5128 69.0785 20.365L69.0806 19.0898Z" fill="#F15A37"/>
<path d="M43.6798 19.4546C43.6708 17.2206 44.4404 15.3776 45.9622 13.9119C47.4237 12.5078 49.201 11.8047 51.2708 11.8047V14.3699C49.8596 14.3699 48.7123 14.8491 47.8199 15.8053C46.927 16.7424 46.4801 17.9677 46.4801 19.4546H43.6798Z" fill="#EC008C"/>
</g>
<defs>
<clipPath id="clip0_0_12995">
<rect width="68.7791" height="29.818" fill="white" transform="translate(31.3223 5.5)"/>
</clipPath>
</defs>
</svg>
