<svg width="370" height="49" viewBox="0 0 370 49" fill="none" xmlns="http://www.w3.org/2000/svg">
<rect x="0.612499" y="48.3875" width="47.7751" height="368.775" rx="14.0875" transform="rotate(-90 0.612499 48.3875)" fill="#F28B02" stroke="#CCD8E5" stroke-width="1.225" stroke-linecap="round" stroke-linejoin="round"/>
<path d="M115.325 16.9348C116.107 17.2628 116.783 17.7987 117.281 18.4842C117.689 19.0178 117.962 19.6427 118.075 20.305C118.192 21.3185 118.24 22.3389 118.219 23.359V32.6432H114.002V23.0256C114.032 22.3134 113.884 21.6049 113.57 20.9649C113.363 20.5916 113.051 20.2878 112.672 20.0917C112.293 19.8955 111.865 19.8158 111.44 19.8625C110.971 19.8331 110.502 19.9173 110.073 20.108C109.643 20.2987 109.266 20.5903 108.973 20.958C108.356 21.8795 108.061 22.9785 108.132 24.0849V32.6455H104V11.0781H108.132V18.1938C108.654 17.6106 109.31 17.1632 110.043 16.89C110.886 16.5763 111.779 16.4188 112.678 16.4252C113.586 16.4133 114.487 16.5867 115.325 16.9348Z" fill="white"/>
<path d="M131.011 17.1594C132.125 17.6629 133.072 18.4735 133.741 19.4961C134.403 20.4749 134.834 21.592 134.999 22.7624C135.126 23.8022 135.171 24.8504 135.135 25.8973H123.63C123.694 27.4823 124.245 28.5934 125.282 29.2308C125.969 29.6421 126.759 29.8482 127.559 29.8247C128.205 29.8753 128.851 29.7293 129.412 29.4059C129.973 29.0826 130.423 28.597 130.703 28.0131H134.92C134.73 29.1047 134.193 30.106 133.389 30.8685C131.973 32.4049 129.992 33.1731 127.445 33.1731C125.419 33.2002 123.448 32.5118 121.879 31.2289C120.272 29.9328 119.469 27.8245 119.469 24.904C119.469 22.1675 120.194 20.0692 121.645 18.6089C122.386 17.8766 123.27 17.3042 124.242 16.9274C125.214 16.5505 126.253 16.3771 127.294 16.418C128.572 16.3983 129.839 16.651 131.011 17.1594ZM124.832 20.7275C124.213 21.4041 123.827 22.261 123.731 23.1727H130.847C130.843 22.7036 130.743 22.2403 130.554 21.811C130.365 21.3818 130.09 20.9957 129.746 20.6765C129.063 20.0995 128.19 19.7959 127.297 19.8243C126.846 19.7967 126.394 19.8627 125.969 20.0183C125.545 20.1738 125.158 20.4155 124.831 20.7281L124.832 20.7275Z" fill="white"/>
<path d="M149.917 18.5391C151.206 19.9014 151.85 21.9016 151.85 24.5398C151.85 27.3222 151.22 29.4429 149.961 30.902C149.367 31.6097 148.621 32.1741 147.779 32.5531C146.936 32.932 146.019 33.1158 145.096 33.0907C143.97 33.133 142.862 32.8017 141.945 32.1484C141.415 31.7199 140.962 31.2054 140.603 30.6266V38.4475H136.516V16.8434H140.472V19.1772C140.857 18.5617 141.34 18.0133 141.902 17.5538C142.85 16.8402 144.012 16.4674 145.198 16.4956C146.085 16.482 146.964 16.6572 147.778 17.0095C148.591 17.3618 149.321 17.8832 149.917 18.5391ZM146.747 21.5105C146.466 21.0471 146.062 20.6705 145.58 20.4224C145.098 20.1743 144.557 20.0643 144.016 20.1046C143.335 20.0675 142.66 20.2561 142.096 20.6413C141.532 21.0264 141.111 21.5866 140.898 22.2352C140.577 23.1569 140.428 24.1293 140.458 25.1045C140.458 26.9408 140.95 28.2308 141.936 28.9745C142.538 29.4145 143.269 29.6437 144.015 29.6264C144.536 29.652 145.054 29.5427 145.52 29.309C145.985 29.0754 146.383 28.7253 146.673 28.2928C147.261 27.2615 147.576 26.0976 147.589 24.9108C147.602 23.7241 147.312 22.5536 146.747 21.5099L146.747 21.5105Z" fill="white"/>
<path d="M156.814 27.5999C156.837 28.1681 157.035 28.7152 157.382 29.1659C157.897 29.7164 158.848 29.9917 160.236 29.9917C160.904 30.0212 161.569 29.8974 162.181 29.6296C162.383 29.5397 162.557 29.3963 162.684 29.2147C162.81 29.0331 162.885 28.8203 162.899 28.5994C162.914 28.3785 162.867 28.1578 162.765 27.9613C162.663 27.7648 162.51 27.5999 162.321 27.4845C161.934 27.2431 160.493 26.8277 158 26.2381C156.204 25.7936 154.939 25.2389 154.205 24.574C153.826 24.2092 153.531 23.7659 153.34 23.2752C153.15 22.7845 153.069 22.2581 153.104 21.7329C153.1 21.0186 153.253 20.3122 153.55 19.6628C153.847 19.0133 154.282 18.4363 154.825 17.9719C155.973 16.9237 157.588 16.3994 159.669 16.399C161.358 16.3257 163.032 16.7346 164.497 17.5777C165.741 18.3654 166.456 19.7254 166.64 21.6577H162.508C162.479 21.2031 162.323 20.7658 162.058 20.3953C161.602 19.8352 160.827 19.555 159.733 19.5546C159.063 19.4983 158.392 19.6449 157.807 19.9752C157.637 20.0797 157.496 20.2243 157.396 20.3962C157.296 20.5682 157.24 20.7622 157.233 20.9611C157.222 21.1737 157.274 21.3849 157.382 21.568C157.491 21.7512 157.652 21.898 157.844 21.99C159.246 22.4925 160.689 22.8755 162.157 23.1348C163.523 23.3847 164.799 23.9897 165.857 24.889C166.255 25.2725 166.569 25.7348 166.778 26.2462C166.988 26.7577 167.089 27.3073 167.074 27.8598C167.094 28.59 166.946 29.3149 166.643 29.9793C166.34 30.6437 165.889 31.2301 165.324 31.6937C164.157 32.6838 162.354 33.179 159.915 33.1794C157.428 33.1794 155.592 32.6551 154.406 31.6065C153.83 31.1125 153.372 30.4965 153.064 29.8032C152.756 29.11 152.607 28.3569 152.627 27.5987L156.814 27.5999Z" fill="white"/>
<path d="M168.707 16.8457H172.896V32.6437H168.707V16.8457Z" fill="white"/>
<path d="M189.339 18.7108C190.576 20.3825 191.202 22.4286 191.112 24.5066C191.196 26.6751 190.583 28.8134 189.364 30.6083C188.434 31.7893 187.116 32.6022 185.643 32.9021C184.17 33.202 182.639 32.9695 181.322 32.2461C180.714 31.8017 180.191 31.2518 179.777 30.6226V32.6081H175.703V11H179.835V18.8703C180.295 18.1989 180.885 17.627 181.571 17.1889C182.434 16.6756 183.427 16.4238 184.43 16.4642C185.368 16.4213 186.303 16.6028 187.156 16.9936C188.01 17.3843 188.758 17.973 189.339 18.7108ZM185.886 28.3347C186.523 27.322 186.834 26.1383 186.778 24.9433C186.807 23.9963 186.658 23.0524 186.339 22.1601C186.128 21.5234 185.713 20.974 185.158 20.5967C184.604 20.2195 183.94 20.0354 183.27 20.0731C182.6 20.0304 181.934 20.2067 181.373 20.5752C180.812 20.9437 180.385 21.4847 180.158 22.1165C179.836 23.0179 179.688 23.9719 179.719 24.9284C179.673 26.1151 179.989 27.2877 180.626 28.2905C180.931 28.7326 181.347 29.0878 181.831 29.3215C182.315 29.5553 182.851 29.6595 183.387 29.6242C183.88 29.6423 184.368 29.5332 184.806 29.3073C185.244 29.0814 185.616 28.7464 185.886 28.3347Z" fill="white"/>
<path d="M196.97 16.8086V26.3316C196.935 27.0226 197.043 27.7134 197.287 28.3607C197.662 29.164 198.398 29.5657 199.494 29.5657C200.093 29.6171 200.693 29.4798 201.21 29.1731C201.728 28.8663 202.136 28.4055 202.378 27.8551C202.675 27.074 202.812 26.241 202.78 25.4059V16.8086H206.969V32.6071H202.952V30.3749C202.914 30.4231 202.818 30.5681 202.665 30.8098C202.514 31.0481 202.329 31.2629 202.116 31.4474C201.575 31.9616 200.94 32.3653 200.244 32.6358C199.562 32.8608 198.846 32.9687 198.127 32.9549C195.794 32.9549 194.223 32.1142 193.415 30.4328C192.894 29.1312 192.662 27.7317 192.736 26.3316V16.8086H196.97Z" fill="white"/>
<path d="M218.351 16.4314C218.404 16.4365 218.523 16.444 218.706 16.4532V20.6859C218.445 20.6568 218.213 20.6377 218.01 20.6285C217.808 20.6187 217.643 20.6136 217.517 20.6136C215.855 20.6136 214.739 21.1547 214.169 22.237C213.797 23.1255 213.634 24.0873 213.691 25.0488V32.6H209.531V16.8009H213.473V19.5554C213.911 18.753 214.473 18.0243 215.137 17.396C215.993 16.7205 217.063 16.3757 218.152 16.4245C218.233 16.4239 218.298 16.4268 218.351 16.4314Z" fill="white"/>
<path d="M244.425 17.0638C245.167 17.4829 245.791 18.0841 246.237 18.8106V11H250.426V32.6099H246.409V30.4212C245.918 31.2597 245.225 31.9622 244.394 32.4647C243.527 32.9166 242.559 33.1362 241.582 33.1022C240.686 33.1095 239.8 32.9115 238.993 32.5236C238.185 32.1357 237.477 31.5681 236.923 30.8642C235.616 29.2412 234.943 27.199 235.029 25.1172C235.029 22.4216 235.65 20.3009 236.891 18.755C237.48 18.0028 238.238 17.4004 239.103 16.9968C239.968 16.5933 240.917 16.3999 241.871 16.4326C242.763 16.4161 243.644 16.6338 244.425 17.0638ZM245.439 28.3181C246.086 27.3144 246.405 26.1345 246.352 24.9416C246.352 23.0093 245.864 21.6276 244.888 20.7967C244.307 20.3008 243.565 20.0331 242.801 20.0432C242.275 20.0085 241.75 20.1176 241.281 20.3589C240.813 20.6003 240.419 20.9647 240.142 21.413C239.582 22.4772 239.291 23.6619 239.294 24.8642C239.296 26.0664 239.592 27.2499 240.156 28.3118C240.438 28.7415 240.828 29.0891 241.288 29.3194C241.747 29.5498 242.259 29.6547 242.772 29.6236C243.291 29.6515 243.808 29.5463 244.275 29.3181C244.742 29.09 245.142 28.7463 245.439 28.3198V28.3181Z" fill="white"/>
<path d="M229.544 32.6182C229.544 32.6182 229.573 31.1262 229.544 30.7693C228.967 31.3904 228.3 31.9219 227.565 32.3462C226.642 32.8649 225.598 33.1292 224.539 33.1123C223.243 33.161 221.975 32.7253 220.982 31.89C220.505 31.4535 220.131 30.9161 219.888 30.317C219.646 29.7179 219.54 29.0722 219.578 28.4268C219.578 26.4888 220.331 25.0859 221.836 24.2182C222.976 23.6542 224.211 23.3108 225.478 23.206L226.892 23.0338C227.454 22.9853 228.007 22.8638 228.538 22.6723C228.792 22.5974 229.015 22.4434 229.175 22.2326C229.335 22.0219 229.423 21.7656 229.427 21.5011C229.454 21.2361 229.404 20.9689 229.283 20.7315C229.162 20.4942 228.975 20.2967 228.745 20.1629C228.117 19.882 227.431 19.7557 226.745 19.7945C226.364 19.7548 225.978 19.7989 225.616 19.9238C225.254 20.0487 224.924 20.2513 224.648 20.5175C224.328 20.9391 224.125 21.4381 224.061 21.9636H220.084C220.117 20.7389 220.522 19.5533 221.246 18.5647C222.34 17.1768 224.219 16.4826 226.882 16.4822C228.481 16.4522 230.065 16.8042 231.501 17.5089C232.847 18.194 233.52 19.4859 233.52 21.3846V28.615C233.52 29.1166 233.529 31.9049 233.549 32.6188L229.544 32.6182ZM229.414 24.9556C229.161 25.1137 228.894 25.2467 228.615 25.3527C228.255 25.4778 227.884 25.5722 227.508 25.6351L226.57 25.8072C225.912 25.8924 225.273 26.0831 224.676 26.3719C224.365 26.5421 224.109 26.7967 223.936 27.1064C223.763 27.416 223.682 27.7681 223.701 28.1221C223.674 28.4052 223.714 28.6906 223.818 28.9554C223.921 29.2203 224.085 29.4575 224.296 29.648C224.709 29.9672 225.22 30.1333 225.742 30.118C226.633 30.1212 227.502 29.8486 228.232 29.3375C228.99 28.8165 229.384 27.8668 229.413 26.4884L229.414 24.9556Z" fill="white"/>
<path d="M262.27 32.6182C262.27 32.6182 262.3 31.1262 262.27 30.7693C261.693 31.3904 261.026 31.9219 260.292 32.3462C259.369 32.8649 258.325 33.1292 257.266 33.1123C255.969 33.1613 254.701 32.7256 253.708 31.89C253.231 31.4535 252.858 30.9161 252.615 30.317C252.372 29.7179 252.266 29.0722 252.305 28.4268C252.305 26.4888 253.057 25.0859 254.563 24.2182C255.702 23.6543 256.938 23.3108 258.205 23.206L259.618 23.0338C260.18 22.9854 260.734 22.8638 261.265 22.6723C261.518 22.5974 261.741 22.4434 261.901 22.2326C262.061 22.0219 262.15 21.7656 262.153 21.5011C262.181 21.2361 262.131 20.9689 262.01 20.7315C261.889 20.4942 261.702 20.2967 261.472 20.1629C260.844 19.882 260.158 19.7557 259.471 19.7945C259.09 19.7548 258.705 19.7989 258.343 19.9238C257.981 20.0487 257.65 20.2513 257.374 20.5175C257.054 20.9391 256.852 21.4381 256.788 21.9636H252.811C252.844 20.7389 253.249 19.5534 253.973 18.5647C255.067 17.1768 256.945 16.4826 259.608 16.4822C261.208 16.4522 262.791 16.8041 264.227 17.5089C265.573 18.194 266.246 19.4859 266.246 21.3846V28.615C266.246 29.1166 266.256 31.9049 266.275 32.6188L262.27 32.6182ZM262.14 24.9556C261.888 25.1137 261.62 25.2467 261.341 25.3527C260.981 25.4778 260.611 25.5722 260.234 25.6351L259.296 25.8072C258.639 25.8924 257.999 26.0831 257.403 26.3719C257.092 26.5421 256.835 26.7967 256.662 27.1064C256.49 27.416 256.408 27.7681 256.427 28.1221C256.401 28.4052 256.441 28.6906 256.544 28.9554C256.647 29.2203 256.811 29.4575 257.022 29.648C257.435 29.9672 257.947 30.1333 258.469 30.118C259.359 30.1212 260.229 29.8486 260.958 29.3375C261.717 28.8165 262.111 27.8668 262.14 26.4884L262.14 24.9556Z" fill="white"/>
<path d="M170.74 15.5494C171.996 15.5494 173.014 14.531 173.014 13.2747C173.014 12.0184 171.996 11 170.74 11C169.483 11 168.465 12.0184 168.465 13.2747C168.465 14.531 169.483 15.5494 170.74 15.5494Z" fill="white"/>
</svg>
