<svg width="370" height="49" viewBox="0 0 370 49" fill="none" xmlns="http://www.w3.org/2000/svg">
<rect x="0.612499" y="48.3875" width="47.7751" height="368.775" rx="14.0875" transform="rotate(-90 0.612499 48.3875)" fill="#F4F7FE" stroke="#E8EEFF" stroke-width="1.225"/>
<path d="M114.958 13.2172C113.581 14.0019 112.444 15.139 111.659 16.5163C110.842 17.9096 110.426 19.4791 110.442 21.0966C110.426 22.6981 110.858 24.2676 111.659 25.6609C112.444 27.0382 113.581 28.1753 114.958 28.96C116.351 29.7768 117.921 30.1932 119.538 30.1772C121.14 30.1932 122.725 29.7608 124.119 28.96C125.496 28.1753 126.633 27.0382 127.418 25.6609C128.219 24.2836 128.635 22.6981 128.619 21.0966C128.635 19.4951 128.219 17.9096 127.418 16.5163C126.633 15.139 125.496 14.0019 124.119 13.2172C122.725 12.4164 121.156 12.0001 119.538 12.0161C117.921 12.0001 116.335 12.4164 114.958 13.2172ZM123.574 16.9968C124.615 18.1018 125.192 19.5752 125.16 21.0966C125.192 22.6181 124.615 24.0754 123.558 25.1645C122.533 26.2695 121.076 26.8781 119.57 26.83C118.049 26.8621 116.592 26.2535 115.551 25.1645C114.462 24.0914 113.869 22.6181 113.901 21.0966C113.869 19.5752 114.462 18.1018 115.535 17.0288C116.592 15.9238 118.049 15.3312 119.57 15.3632C121.076 15.3152 122.517 15.9077 123.574 16.9968Z" fill="#F219AF"/>
<path d="M107 37H110.491V27.6792C111.869 29.3448 113.919 30.2737 116.081 30.2096C117.682 30.2096 119.268 29.7932 120.645 28.9925C122.022 28.2077 123.159 27.0546 123.96 25.6773C124.777 24.3 125.193 22.7145 125.177 21.113C125.193 19.5115 124.761 17.926 123.96 16.5327C123.175 15.1554 122.022 14.0183 120.645 13.2176C119.252 12.4168 117.682 12.0004 116.081 12.0165C111.068 12.0165 107 16.0843 107 21.097C107 21.097 107 21.097 107 21.113V37ZM116.081 26.8625C114.559 26.8945 113.102 26.2859 112.061 25.1969C110.988 24.1079 110.395 22.6345 110.427 21.113C110.395 19.5916 110.988 18.1182 112.061 17.0292C113.102 15.9241 114.559 15.3156 116.081 15.3636C117.602 15.3316 119.059 15.9242 120.116 17.0132C121.173 18.1182 121.75 19.5916 121.718 21.113C121.75 22.6345 121.173 24.1079 120.1 25.1969C119.059 26.2859 117.602 26.8945 116.081 26.8625ZM140.472 30.2096C141.657 30.2256 142.826 29.9213 143.867 29.3288C144.812 28.8483 145.58 28.0796 146.077 27.1347V29.9213H149.536V21.097C149.552 19.4955 149.136 17.91 148.335 16.5167C147.55 15.1394 146.397 14.0023 145.02 13.2016C143.643 12.4008 142.073 11.9844 140.472 12.0004C138.87 11.9844 137.285 12.4008 135.907 13.2016C134.53 13.9863 133.377 15.1394 132.576 16.5167C131.759 17.91 131.343 19.4955 131.359 21.097C131.359 26.1418 135.443 30.2096 140.472 30.2096ZM136.468 25.1969C135.379 24.1239 134.786 22.6505 134.818 21.113C134.786 19.5916 135.379 18.1182 136.452 17.0292C137.509 15.9241 138.982 15.3156 140.504 15.3636C142.009 15.3316 143.466 15.9242 144.523 17.0132C145.564 18.1182 146.141 19.5916 146.109 21.113C146.141 22.6345 145.564 24.1079 144.507 25.1969C143.482 26.3019 142.025 26.9105 140.504 26.8625C138.982 26.8945 137.509 26.3019 136.468 25.1969ZM165.119 15.6519V12.2887H151.778V15.6519H160.699C160.699 15.6519 152.002 25.6773 151.49 26.5101C151.314 26.8624 151.234 27.2628 151.266 27.6472C151.25 28.8163 151.266 29.9213 151.266 29.9213H165.407V26.5582H155.638L165.119 15.6519ZM175.08 30.2096C176.265 30.2256 177.434 29.9213 178.475 29.3288C179.42 28.8483 180.189 28.0796 180.685 27.1347V29.9213H184.145V21.097C184.161 19.4955 183.744 17.91 182.944 16.5167C182.159 15.1394 181.006 14.0023 179.628 13.2016C178.251 12.4008 176.682 11.9844 175.08 12.0004C173.479 11.9844 171.893 12.4008 170.516 13.2016C169.138 13.9863 167.985 15.1394 167.185 16.5167C166.368 17.91 165.952 19.4955 165.968 21.097C165.968 26.1418 170.051 30.2096 175.08 30.2096ZM171.076 25.1969C169.987 24.1239 169.395 22.6505 169.427 21.113C169.395 19.5916 169.987 18.1182 171.06 17.0292C172.117 15.9241 173.591 15.3156 175.112 15.3636C176.618 15.3316 178.075 15.9242 179.132 17.0132C180.189 18.1182 180.749 19.5916 180.717 21.113C180.749 22.6345 180.173 24.1079 179.116 25.1969C178.091 26.3019 176.634 26.9105 175.112 26.8625C173.591 26.8945 172.117 26.3019 171.076 25.1969ZM190.038 29.9373V20.7127C190.038 17.2534 191.464 15.5558 193.994 15.5558H194.346V12.2086H193.994C191.976 12.1126 190.006 12.8973 188.597 14.3386C187.236 15.764 186.563 17.894 186.563 20.6966V29.9213H190.038V29.9373ZM204.34 30.2096C205.525 30.2256 206.694 29.9213 207.735 29.3288C208.68 28.8483 209.449 28.0796 209.945 27.1347V29.9213H213.404V21.097C213.42 19.4955 213.004 17.91 212.203 16.5167C211.418 15.1394 210.265 14.0023 208.888 13.2016C207.511 12.4008 205.941 11.9844 204.34 12.0004C202.738 11.9844 201.153 12.4008 199.775 13.2016C198.398 13.9863 197.245 15.1394 196.444 16.5167C195.628 17.91 195.211 19.4955 195.227 21.097C195.243 26.1258 199.311 30.2096 204.34 30.2096ZM200.352 25.1969C199.263 24.1239 198.67 22.6505 198.702 21.113C198.67 19.5916 199.263 18.1182 200.336 17.0292C201.393 15.9241 202.866 15.3156 204.388 15.3636C205.893 15.3316 207.351 15.9242 208.408 17.0132C209.449 18.1182 210.025 19.5916 209.993 21.113C210.025 22.6345 209.448 24.1079 208.391 25.1969C207.367 26.3019 205.909 26.9105 204.388 26.8625C202.85 26.9105 201.393 26.3019 200.352 25.1969ZM235.025 12.0165C232.59 11.8883 230.284 13.1535 229.099 15.2835C227.914 13.1535 225.608 11.8723 223.174 12.0165C221.092 11.9204 219.074 12.7051 217.616 14.1945C216.223 15.6679 215.518 17.8139 215.518 20.6486V29.9373H218.978V20.6486C218.978 17.1093 220.483 15.3636 223.174 15.3636C225.976 15.3636 227.369 17.1253 227.369 20.6486V29.9373H230.813V20.6486C230.813 17.1093 232.318 15.3636 235.009 15.3636C237.811 15.3636 239.205 17.1253 239.205 20.6486V29.9373H242.648V20.6486C242.648 17.8139 241.959 15.6519 240.566 14.1945C239.125 12.7051 237.107 11.9204 235.025 12.0165ZM253.714 30.2096C254.899 30.2256 256.068 29.9213 257.109 29.3288C258.054 28.8483 258.823 28.0796 259.319 27.1347V29.9213H262.779V21.097C262.795 19.4955 262.378 17.91 261.578 16.5167C260.793 15.1394 259.64 14.0023 258.263 13.2016C256.885 12.4008 255.316 11.9844 253.714 12.0004C252.113 11.9844 250.527 12.4008 249.15 13.2016C247.773 13.9863 246.62 15.1234 245.819 16.5007C245.002 17.894 244.586 19.4795 244.602 21.081C244.618 26.1257 248.685 30.2096 253.714 30.2096ZM249.727 25.1969C248.637 24.1239 248.045 22.6505 248.077 21.113C248.045 19.5916 248.637 18.1182 249.71 17.0292C250.767 15.9241 252.241 15.3156 253.762 15.3636C255.268 15.3316 256.725 15.9242 257.782 17.0132C258.823 18.1182 259.4 19.5916 259.368 21.113C259.4 22.6345 258.823 24.1079 257.766 25.1969C256.741 26.3019 255.284 26.9105 253.762 26.8625C252.225 26.8945 250.768 26.3019 249.727 25.1969Z" fill="#0136F4"/>
<path d="M113.889 20.9365H110.43C110.478 15.9558 114.546 11.968 119.526 12.0161C124.491 11.968 128.559 15.9718 128.607 20.9365H125.244C125.212 19.4631 124.603 18.0537 123.578 16.9967C122.537 15.9077 121.08 15.3152 119.574 15.3472C118.053 15.3152 116.579 15.9237 115.538 17.0128C114.497 18.0538 113.905 19.4631 113.889 20.9365Z" fill="#F219AF"/>
</svg>
