<svg width="133" height="41" viewBox="0 0 133 41" fill="none" xmlns="http://www.w3.org/2000/svg">
<rect x="1.31836" y="40" width="39" height="130.577" rx="11.5" transform="rotate(-90 1.31836 40)" fill="white" stroke="#E8EEFF"/>
<path fill-rule="evenodd" clip-rule="evenodd" d="M36.675 13.5254C36.7256 13.5254 36.7508 13.6014 36.7508 13.6775C36.7508 13.8043 36.6497 14.0326 36.5991 14.5399C36.5739 14.7174 36.5486 15.529 36.498 15.7319C36.4727 15.8333 36.4475 15.9348 36.3716 15.9348C36.2705 15.9348 36.2199 15.8333 36.2199 15.7065C36.2199 15.5797 36.1946 15.2754 36.1188 15.0471C35.9924 14.7681 35.7902 14.5399 34.8042 14.4384C34.5008 14.413 32.453 14.3877 32.2508 14.3877C32.1749 14.3877 32.1497 14.4384 32.1497 14.5652V19.5616C32.1497 19.6884 32.1749 19.7391 32.2508 19.7391H32.7311C33.4896 19.7391 34.88 19.7391 35.2087 19.7138C35.6637 19.6884 35.9166 19.6377 36.0682 19.4601C36.1946 19.308 36.2705 19.2319 36.3463 19.2319C36.3969 19.2319 36.4475 19.2572 36.4475 19.3841C36.4475 19.4855 36.3463 19.7899 36.2958 20.3986C36.2705 20.7536 36.2199 21.4384 36.2199 21.5652C36.2199 21.7174 36.2199 21.9203 36.0935 21.9203C35.9924 21.9203 35.9671 21.8442 35.9671 21.7681C35.9671 21.5906 35.9671 21.413 35.8913 21.1594C35.8154 20.9058 35.6385 20.6014 34.9306 20.5254C34.425 20.4746 32.5794 20.4239 32.2761 20.4239C32.1749 20.4239 32.1497 20.4746 32.1497 20.5507V22.1486C32.1497 22.7572 32.1244 24.8623 32.1497 25.2428C32.2002 26.4601 32.4783 26.7138 34.1469 26.7391H34.2986C34.7789 26.7391 35.5879 26.7391 36.0935 26.5362C36.5739 26.3333 36.8014 25.9783 36.9278 25.2428C36.9531 25.0399 37.0036 24.9638 37.1048 24.9638C37.2059 24.9638 37.2059 25.1159 37.2059 25.2428C37.2059 25.3949 37.0542 26.6123 36.9531 26.9928C36.8267 27.4746 36.675 27.4746 35.9418 27.4746C33.2368 27.4746 31.9727 27.3732 31.4165 27.3732H31.366C31.3407 27.3732 31.012 27.3986 30.6328 27.3986C30.2789 27.4239 29.9249 27.4239 29.5457 27.4239C29.3435 27.4239 29.2423 27.3986 29.2423 27.2717C29.2423 27.221 29.2676 27.1703 29.394 27.1703C29.571 27.1703 29.7732 27.1449 29.9502 27.0942C30.3294 27.0181 30.4053 26.6123 30.4811 26.1051C30.557 25.4457 30.5822 24.3297 30.5822 22.9348V17.4819C30.5822 15.9348 30.5822 15.529 30.557 15.0725C30.5317 14.4638 30.38 14.1594 29.748 14.0326C29.5963 14.0072 29.2929 13.9819 29.1159 13.9819C29.0401 13.9819 28.9642 13.9565 28.9642 13.8804C28.9642 13.779 29.0654 13.7283 29.2676 13.7283C30.0766 13.7283 31.1637 13.779 31.3407 13.779H31.998C33.1103 13.779 35.3098 13.779 35.6132 13.7536C35.9671 13.7283 36.2705 13.7029 36.4222 13.6522C36.5233 13.6015 36.5991 13.5254 36.675 13.5254ZM11.0905 13.9565C11.9248 13.9565 13.0877 14.0072 13.1635 14.0072C13.5933 14.0072 14.3265 13.9565 15.1607 13.9565C18.1945 13.9565 18.8518 15.7319 18.8518 16.6196C18.8518 18.0652 17.9922 18.9529 17.1074 19.8152C18.4726 20.221 20.2928 21.4891 20.2928 23.5688C20.2928 25.471 18.7507 27.4239 15.5905 27.4239C15.1607 27.4239 13.2899 27.3225 13.1383 27.3225C13.0371 27.3225 11.8742 27.3732 11.3433 27.3732C11.141 27.3732 11.0399 27.3478 11.0399 27.221C11.0399 27.1703 11.0652 27.1196 11.1916 27.1196C11.3686 27.1196 11.5708 27.0942 11.7478 27.0435C12.127 26.9674 12.2029 26.587 12.2787 26.0543C12.3545 25.3949 12.3798 24.1775 12.3798 22.7065V18.0906C12.3798 16.1884 12.3798 15.7572 12.3545 15.25C12.3293 14.6413 12.1776 14.3623 11.5708 14.2355C11.4191 14.2101 11.1158 14.1848 10.9388 14.1848C10.863 14.1848 10.7871 14.1594 10.7871 14.0833C10.7871 13.9819 10.8882 13.9565 11.0905 13.9565ZM108.6 13.5254C108.752 13.5254 109.055 13.9312 109.232 14.1087C109.51 14.413 112.24 17.3043 115.047 20.2464C116.867 22.1486 118.864 24.3297 119.445 24.913L119.243 15.8333C119.218 14.6667 119.091 14.2862 118.535 14.1341C118.232 14.0833 117.929 14.058 117.65 14.0326C117.524 14.0326 117.499 13.9819 117.499 13.9058C117.499 13.8043 117.65 13.779 117.878 13.779C118.712 13.779 119.572 13.8297 119.774 13.8297C119.976 13.8297 120.583 13.779 121.342 13.779C121.544 13.779 121.67 13.8043 121.67 13.9058C121.67 13.9819 121.594 14.0326 121.468 14.0326C121.367 14.0326 121.24 14.0326 121.038 14.0833C120.431 14.2101 120.356 14.5906 120.356 15.6812L120.33 26.1558C120.33 27.3478 120.305 27.4239 120.153 27.4239C120.002 27.4239 119.799 27.221 118.813 26.2826C118.611 26.1051 115.982 23.4674 114.035 21.4384C112.417 19.7391 110.825 18.0399 109.257 16.3152L109.485 24.8877C109.51 26.3587 109.712 26.8152 110.193 26.9674C110.496 27.0435 110.799 27.0688 111.103 27.0688C111.204 27.0688 111.254 27.0942 111.254 27.1703C111.254 27.2717 111.153 27.3225 110.926 27.3225C109.889 27.3225 109.156 27.2717 108.979 27.2717C108.802 27.2717 108.044 27.3225 107.209 27.3225C107.032 27.3225 106.906 27.2971 106.906 27.1703C106.906 27.0942 106.957 27.0688 107.058 27.0688C107.209 27.0688 107.538 27.0435 107.816 26.9674C108.271 26.8406 108.372 26.3333 108.372 24.6848L108.398 14.4384C108.398 13.7029 108.448 13.5254 108.6 13.5254ZM78.49 13.5254C78.6164 13.5254 78.667 13.6775 78.7175 14.0072L79.931 25.0906C80.0069 25.75 80.1333 26.7391 80.917 26.9928C81.4479 27.1449 81.9282 27.1449 82.1052 27.1449C82.2063 27.1449 82.2569 27.1703 82.2569 27.2464C82.2569 27.3478 82.1052 27.3986 81.8777 27.3986C81.4732 27.3986 79.5012 27.3478 78.8439 27.2971C78.4141 27.2717 78.3383 27.221 78.3383 27.1196C78.3383 27.0435 78.3636 27.0181 78.4647 26.9928C78.5658 26.9674 78.5658 26.663 78.5406 26.3333L77.6557 17.0254H77.6051L73.1557 26.4094C72.7765 27.1957 72.7259 27.3732 72.5489 27.3732C72.4225 27.3732 72.3214 27.1957 71.9927 26.5362C71.5124 25.6485 69.945 22.529 69.8691 22.3514C69.6922 22.0217 67.6697 17.6848 67.4674 17.2029H67.3916L66.6584 25.5725C66.6331 25.8515 66.6331 26.1812 66.6331 26.4855C66.6331 26.7645 66.8354 26.9928 67.1135 27.0435C67.4168 27.1196 67.6949 27.1449 67.7961 27.1449C67.8719 27.1449 67.9478 27.1703 67.9478 27.2464C67.9478 27.3732 67.8466 27.3986 67.6191 27.3986C66.9365 27.3986 66.077 27.3478 65.9253 27.3478C65.7736 27.3478 64.8887 27.3986 64.4084 27.3986C64.2314 27.3986 64.105 27.3732 64.105 27.2464C64.105 27.1957 64.1809 27.1449 64.282 27.1449C64.4337 27.1449 64.5601 27.1449 64.8382 27.0942C65.4449 26.9928 65.4955 26.2826 65.5713 25.5978L66.8859 13.8297C66.9112 13.6268 66.9871 13.5 67.0882 13.5C67.1893 13.5 67.2652 13.5761 67.3663 13.779L72.9281 25.1413L78.2877 13.8043C78.2877 13.6522 78.3636 13.5254 78.49 13.5254ZM97.7289 13.5254C97.7795 13.5254 97.8048 13.6014 97.8048 13.6775C97.8048 13.8043 97.7037 14.0326 97.6531 14.5399C97.6278 14.7174 97.6025 15.529 97.552 15.7319C97.5267 15.8333 97.5014 15.9348 97.4256 15.9348C97.3244 15.9348 97.2739 15.8333 97.2739 15.7065C97.2739 15.5797 97.2486 15.2754 97.1727 15.0471C97.0463 14.7681 96.8694 14.5399 95.8581 14.4384C95.5295 14.413 93.507 14.3877 93.3047 14.3877C93.2289 14.3877 93.2036 14.4384 93.2036 14.5652V19.5616C93.2036 19.6884 93.2289 19.7391 93.3047 19.7391H93.7851C94.5435 19.7391 95.934 19.7391 96.2626 19.7138C96.7177 19.6884 96.9705 19.6377 97.1475 19.4601C97.2739 19.308 97.3497 19.2319 97.4256 19.2319C97.4761 19.2319 97.5267 19.2572 97.5267 19.3841C97.5267 19.4855 97.4256 19.7899 97.375 20.3986C97.3244 20.7536 97.2992 21.4384 97.2992 21.5652C97.2992 21.7174 97.2992 21.9203 97.1727 21.9203C97.0716 21.9203 97.0463 21.8442 97.0463 21.7681C97.0463 21.5906 97.0463 21.413 96.9705 21.1594C96.8947 20.9058 96.7177 20.6014 96.0098 20.5254C95.5042 20.4746 93.6587 20.4239 93.3553 20.4239C93.2542 20.4239 93.2289 20.4746 93.2289 20.5507V22.3514C93.2289 23.1377 93.2036 24.913 93.2289 25.2681C93.2794 26.4855 93.5575 26.7391 95.2261 26.7645H95.3778C95.8581 26.7645 96.6671 26.7645 97.1727 26.5616C97.6531 26.3587 97.8806 26.0036 98.007 25.2681C98.0323 25.0652 98.0829 24.9891 98.184 24.9891C98.2851 24.9891 98.2851 25.1413 98.2851 25.2681C98.2851 25.4203 98.1334 26.6377 98.0323 27.0181C97.9059 27.5 97.7542 27.5 97.0211 27.5C94.2907 27.5 93.0519 27.3986 92.4957 27.3986H92.4452C92.4199 27.3986 92.0912 27.4239 91.712 27.4239C91.3328 27.4493 90.903 27.4493 90.6249 27.4493C90.4227 27.4493 90.3216 27.4239 90.3216 27.2971C90.3216 27.2464 90.3468 27.1957 90.4733 27.1957C90.6502 27.1957 90.8525 27.1703 91.0294 27.1196C91.4086 27.0435 91.4845 26.6377 91.5603 26.1304C91.6362 25.4203 91.6615 24.0761 91.6615 22.4529V18.3696C91.6615 16.087 91.6615 15.6051 91.6362 15.0725C91.6109 14.4638 91.4592 14.1594 90.8272 14.0326C90.6755 14.0072 90.3721 13.9819 90.1952 13.9819C90.1193 13.9819 90.0435 13.9565 90.0435 13.8804C90.0435 13.779 90.1446 13.7283 90.3468 13.7283C91.1558 13.7283 92.2429 13.779 92.4199 13.779H93.0772C94.1896 13.779 96.389 13.779 96.6924 13.7536C97.0463 13.7283 97.3497 13.7029 97.5014 13.6522C97.5772 13.6015 97.6531 13.5254 97.7289 13.5254ZM47.4448 14.0072C47.5712 14.0072 48.2537 13.9565 48.9616 13.9565C49.1639 13.9565 49.1892 14.0072 49.1892 14.0833C49.1892 14.1594 49.088 14.1594 48.9111 14.2355C48.7594 14.3116 48.6835 14.413 48.6835 14.5652C48.6835 14.7681 48.7594 14.9964 48.9111 15.25C49.1892 15.7572 51.8942 20.3732 52.2229 20.8804C52.5515 20.1196 54.8521 16.2391 55.2061 15.6304C55.4336 15.25 55.5094 14.9457 55.5094 14.7174C55.5094 14.4638 55.4336 14.2609 55.2313 14.2101C55.0797 14.1594 54.9533 14.1341 54.9533 14.0326C54.9533 13.9565 55.0544 13.9312 55.2313 13.9312C55.6864 13.9312 56.2679 13.9819 56.4196 13.9819C56.5207 13.9819 57.81 13.9312 58.164 13.9312C58.2904 13.9312 58.3915 13.9565 58.3915 14.0326C58.3915 14.1341 58.3156 14.1848 58.164 14.1848C57.9617 14.1848 57.6331 14.2609 57.3297 14.4384C56.9757 14.6413 56.7735 14.8696 56.369 15.3515C55.7622 16.0616 53.2594 20.2464 52.9308 21.0072C52.6527 21.6413 52.6527 22.1993 52.6527 22.7826V24.3043C52.6527 24.5833 52.6527 25.3442 52.7032 26.0797C52.7285 26.587 52.9055 26.9928 53.4364 27.0688C53.6892 27.0942 54.0937 27.1449 54.2454 27.1449C54.3465 27.1449 54.3971 27.1957 54.3971 27.2464C54.3971 27.3478 54.2959 27.3986 54.119 27.3986C53.1836 27.3986 52.0965 27.3478 51.9195 27.3478H51.8942C51.7931 27.3478 50.6807 27.3986 50.1246 27.3986C49.9223 27.3986 49.8465 27.3732 49.8465 27.2464C49.8465 27.1957 49.8717 27.1449 49.9981 27.1449C50.1498 27.1449 50.3774 27.1196 50.5291 27.0688C50.883 26.9928 51.06 26.6123 51.0852 26.0797C51.1358 25.4964 51.1358 24.8877 51.1358 24.5326V22.7826C51.1358 21.8188 50.9588 21.4384 50.7313 20.9058C50.6049 20.6268 48.2032 16.6957 47.5712 15.7826C47.1161 15.1232 46.661 14.6667 46.3577 14.4638C46.0796 14.2862 45.7509 14.1848 45.574 14.1848C45.4728 14.1848 45.397 14.1594 45.397 14.058C45.397 13.9819 45.4728 13.9312 45.6245 13.9312C46.0037 13.9565 47.3436 14.0072 47.4448 14.0072ZM13.9978 20.0435H13.922C13.8461 20.0435 13.8208 20.0688 13.8208 20.1703V22.25C13.8208 23.442 13.8208 24.7355 13.8461 24.9384C13.8967 25.8007 13.8967 26.029 14.4529 26.308C14.9332 26.5362 15.7169 26.5616 16.0456 26.5616C17.0316 26.5616 18.599 26.0543 18.599 24.0761C18.599 23.0362 18.245 21.5145 16.8546 20.5761C16.2478 20.1703 15.7928 20.1196 15.363 20.0688C15.1355 20.0435 14.2253 20.0435 13.9473 20.0435H13.9978ZM14.8827 14.3877C14.6804 14.3877 14.3265 14.413 14.0231 14.4891C13.8714 14.5145 13.8208 14.5652 13.8208 14.6667V19.3333C13.8208 19.4601 13.8461 19.4855 13.9473 19.5362C14.0484 19.5616 14.377 19.6123 15.0343 19.6123C16.0203 19.6123 16.2731 19.587 16.6523 19.1558C17.0315 18.7246 17.2844 18.1159 17.2844 17.4058C17.2844 15.9348 16.6271 14.3877 14.8827 14.3877Z" fill="#1A1919"/>
</svg>
