<svg width="370" height="49" viewBox="0 0 370 49" fill="none" xmlns="http://www.w3.org/2000/svg">
<rect x="0.612499" y="48.3875" width="47.7751" height="368.775" rx="14.0875" transform="rotate(-90 0.612499 48.3875)" fill="#FF6621" stroke="#E8EEFF" stroke-width="1.225"/>
<path d="M164.669 26.5885H148.305C149.06 29.6608 151.546 31.978 154.788 31.978C156.61 31.978 158.407 31.1969 159.605 29.843L163.562 29.9342C161.818 33.2407 158.498 35.3627 154.645 35.3627C149.021 35.3627 144.595 30.4809 144.595 24.9613C144.595 19.2594 148.943 14.5859 154.723 14.5859C160.32 14.5859 164.786 19.1943 164.786 24.753C164.773 25.3518 164.734 26.0027 164.669 26.5885ZM154.671 17.9576C151.468 17.9576 148.5 20.4831 148.292 23.7376H161.05C160.854 20.5091 157.899 17.9576 154.671 17.9576ZM181.058 34.868V24.1411C181.058 20.7955 180.056 17.9706 176.124 17.9706C172.492 17.9706 170.917 20.7825 170.917 24.1151V34.881H167.22V15.1197H170.683V17.2156H170.748C172.18 15.3279 174.25 14.5729 176.528 14.5729C179.34 14.5729 181.982 15.6794 183.519 18.1008C184.469 19.5979 184.768 21.4074 184.768 23.1648V34.868H181.058ZM204.478 34.868V32.0561H204.413C202.772 34.3473 200.169 35.3627 197.422 35.3627C191.499 35.3627 187.151 30.9496 187.151 25.0654C187.151 19.1422 191.434 14.5729 197.422 14.5729C199.908 14.5729 202.551 15.5232 204.126 17.528H204.191V8.48047H207.888V34.868H204.478ZM197.63 17.9576C193.712 17.9576 190.861 21.16 190.861 25.0264C190.861 28.7235 193.829 31.991 197.604 31.991C201.457 31.991 204.478 28.8537 204.478 25.0264C204.478 21.0689 201.666 17.9576 197.63 17.9576ZM218.628 41.4681H214.788L217.665 34.4775L209.789 15.1197H213.785L219.605 30.4549L225.554 15.1197H229.55L218.628 41.4681ZM240.095 35.3627C234.276 35.3627 229.433 30.6892 229.433 24.8441C229.433 19.0251 234.393 14.5729 240.095 14.5729C245.875 14.5729 250.757 19.0641 250.757 24.9092C250.757 30.546 246.083 35.3627 240.095 35.3627ZM240.095 17.9576C236.242 17.9576 233.13 21.0949 233.13 24.9483C233.13 28.8016 236.229 31.978 240.095 31.978C243.987 31.978 247.06 28.7756 247.06 24.9222C247.047 21.0689 243.935 17.9576 240.095 17.9576ZM253.777 34.868V8.48047H257.5V34.868H253.777ZM116.671 30.9756C116.827 31.6005 117.036 32.1212 117.27 32.5117C117.504 32.9023 117.817 33.2407 118.168 33.5662C119.34 34.5946 120.824 35.1153 122.581 35.1153C124.326 35.1153 125.953 34.6857 127.437 33.8656V30.3117C125.901 31.2099 124.43 31.6786 123.05 31.6786C121.175 31.6786 120.199 30.533 120.199 28.2679V18.5955H126.422V15.1717H120.238V8.83196H116.567V15.1587H113V18.5825H116.411V27.3566C116.411 29.1401 116.502 30.3507 116.671 30.9756ZM139.101 18.4262C140.247 18.4262 141.509 19.0511 142.85 20.3138L144.868 16.9682C143.228 15.4711 141.249 14.7812 140.09 14.7812H139.83C138.502 14.7812 136.276 14.7812 134.48 17.7102L134.415 17.8274L134.428 15.1717H130.587V34.7508H134.428V24.5187C134.428 22.8784 134.883 21.4464 135.808 20.2357C136.732 19.0381 137.838 18.4262 139.101 18.4262Z" fill="white"/>
</svg>
