<svg width="370" height="49" viewBox="0 0 370 49" fill="none" xmlns="http://www.w3.org/2000/svg">
<rect x="0.612499" y="48.3875" width="47.7751" height="368.775" rx="14.0875" transform="rotate(-90 0.612499 48.3875)" fill="#F4F7FE" stroke="#E8EEFF" stroke-width="1.225"/>
<path d="M216.055 19.8281C216.544 16.4355 214.797 12.9894 211.538 11.4638C208.28 9.9448 204.519 10.8214 202.237 13.3775C197.74 14.0266 193.652 16.8705 191.591 21.3003C188.339 28.2862 191.35 36.5903 198.329 39.8491C205.302 43.1078 213.593 40.0833 216.845 33.0907C218.899 28.6475 218.444 23.6891 216.055 19.8281Z" fill="#231F1F"/>
<path d="M208.178 8.51181C208.773 8.78616 209.489 8.50511 209.79 7.87611C210.085 7.24711 209.844 6.51105 209.242 6.23001C208.646 5.95565 207.93 6.2367 207.629 6.8657C207.341 7.4947 207.582 8.23076 208.178 8.51181Z" fill="#231F1F"/>
<path d="M215.852 12.088C216.448 12.3623 217.164 12.0813 217.465 11.4523C217.759 10.8233 217.519 10.0872 216.916 9.80618C216.321 9.53183 215.605 9.81287 215.304 10.4419C215.016 11.0776 215.264 11.8136 215.852 12.088Z" fill="#231F1F"/>
<path d="M164.406 35.7374C162.205 35.7374 161.529 35.0013 161.529 32.7998V27.741C161.529 25.8005 160.873 24.9306 159.2 24.9306C157.755 24.9306 156.972 25.9009 156.972 27.6608V35.7441H155.299C153.178 35.7441 152 34.9076 152 32.8065V27.7477C152 23.599 154.75 20.9023 159.334 20.9023C164.439 20.9023 166.507 23.6057 166.507 27.8749V35.7441L164.406 35.7374Z" fill="#5D3EBC"/>
<path d="M174.134 35.7252C172.641 35.7252 171.484 34.7014 171.484 32.9683V22.5831L169.838 23.105C169.47 23.2054 169.102 23.2589 168.76 23.2589C167.71 23.2589 166.9 22.7638 166.746 21.8939L166.432 20.1608L171.169 18.1667C171.952 17.8255 172.956 17.6113 174.073 17.6113C175.251 17.6113 176.456 18.4478 176.456 19.8664V35.7051H174.134V35.7252Z" fill="#5D3EBC"/>
<path d="M185.542 35.7252C184.05 35.7252 182.892 34.7014 182.892 32.9683V22.5831L181.246 23.105C180.878 23.2054 180.51 23.2589 180.168 23.2589C179.118 23.2589 178.308 22.7638 178.154 21.8939L177.84 20.1608L182.577 18.1667C183.36 17.8255 184.364 17.6113 185.482 17.6113C186.659 17.6113 187.864 18.4478 187.864 19.8664V35.7051H185.542V35.7252Z" fill="#5D3EBC"/>
<path d="M216.055 19.8164C216.544 16.4238 214.797 12.9777 211.538 11.452C208.28 9.93308 204.519 10.8097 202.237 13.3658C197.74 14.0149 193.652 16.8521 191.591 21.2885C188.339 28.2745 191.35 36.5786 198.329 39.8374C205.309 43.0961 213.593 40.0716 216.845 33.079C218.899 28.6425 218.444 23.6841 216.055 19.8164Z" fill="white"/>
<path d="M215.387 22.0503C213.527 26.0451 208.796 27.7715 204.815 25.9046C200.827 24.0443 199.107 19.3001 200.961 15.3119C202.821 11.3171 207.552 9.5907 211.54 11.4576C215.521 13.3179 217.248 18.0554 215.387 22.0503Z" fill="#231F1F"/>
<path d="M216.844 33.0748C213.592 40.0607 205.301 43.0852 198.328 39.8332C191.356 36.5744 188.338 28.277 191.59 21.2843C194.842 14.2984 203.133 11.2739 210.105 14.5259C217.085 17.7847 220.096 26.0888 216.844 33.0748Z" fill="#5D3EBC"/>
<path d="M211.988 18.8072C211.165 20.5738 209.071 21.3366 207.304 20.5136C205.538 19.6905 204.782 17.5894 205.598 15.8228C206.421 14.0563 208.515 13.2934 210.282 14.1165C212.042 14.9462 212.805 17.0474 211.988 18.8072Z" fill="#FFD10D"/>
<path d="M201.468 27.0105C200.853 28.3421 199.267 28.9176 197.942 28.2953C196.61 27.6797 196.035 26.0938 196.657 24.7622C197.273 23.4306 198.859 22.8551 200.184 23.4774C201.508 24.0997 202.084 25.6856 201.468 27.0105Z" fill="#FFD10D"/>
<path d="M199.667 18.8794C199.279 19.7091 198.302 20.0638 197.472 19.6757C196.649 19.2876 196.288 18.3039 196.676 17.4809C197.064 16.6511 198.041 16.2965 198.87 16.6846C199.694 17.0593 200.048 18.0496 199.667 18.8794Z" fill="#FFD10D"/>
<path d="M196.386 32.5161C195.997 33.3459 195.02 33.7005 194.191 33.3124C193.368 32.9243 193.006 31.9406 193.394 31.1176C193.783 30.2878 194.759 29.9332 195.589 30.3213C196.419 30.7094 196.767 31.6931 196.386 32.5161Z" fill="#FFD10D"/>
<path d="M206.092 29.1851C205.476 30.5168 206.045 32.1026 207.376 32.7183C208.708 33.3339 210.287 32.7651 210.903 31.4335C211.519 30.1019 210.95 28.516 209.618 27.9004C208.293 27.2781 206.707 27.8468 206.092 29.1851Z" fill="#FFD10D"/>
<path d="M213.465 25.3313C213.077 26.1611 213.438 27.138 214.261 27.5261C215.084 27.9143 216.068 27.5529 216.456 26.7299C216.844 25.9001 216.483 24.9232 215.66 24.5351C214.83 24.1469 213.853 24.5083 213.465 25.3313Z" fill="#FFD10D"/>
<path d="M205.156 36.6106C204.768 37.4404 205.129 38.4173 205.952 38.8054C206.775 39.1936 207.759 38.8322 208.147 38.0092C208.535 37.1794 208.174 36.2025 207.351 35.8144C206.528 35.4262 205.544 35.7876 205.156 36.6106Z" fill="#FFD10D"/>
<path d="M210.159 14.3715C210.038 14.3113 209.911 14.2645 209.784 14.2109L197.793 39.9799C197.913 40.0401 198.034 40.1003 198.154 40.1605C198.275 40.2208 198.402 40.2676 198.529 40.3211L210.52 14.5455C210.406 14.4853 210.286 14.4318 210.159 14.3715Z" fill="#231F1F"/>
</svg>
