<svg width="131" height="41" viewBox="0 0 131 41" fill="none" xmlns="http://www.w3.org/2000/svg">
<rect x="0.638672" y="40" width="39" height="129.581" rx="11.5" transform="rotate(-90 0.638672 40)" fill="#FF6621" stroke="#E8EEFF"/>
<path d="M52.5087 21.9037H42.2366C42.7105 23.8385 44.2714 25.2977 46.3062 25.2977C47.4503 25.2977 48.578 24.8059 49.3298 23.9532L51.8141 24.0106C50.7191 26.093 48.6352 27.4293 46.2163 27.4293C42.686 27.4293 39.9076 24.355 39.9076 20.8789C39.9076 17.2881 42.637 14.345 46.2653 14.345C49.7793 14.345 52.5823 17.2471 52.5823 20.7477C52.5741 21.1249 52.5496 21.5348 52.5087 21.9037ZM46.2326 16.4683C44.2223 16.4683 42.3591 18.0587 42.2284 20.1083H50.2369C50.1143 18.0751 48.2593 16.4683 46.2326 16.4683ZM62.7972 27.1178V20.3624C62.7972 18.2555 62.168 16.4765 59.7 16.4765C57.4201 16.4765 56.4313 18.2473 56.4313 20.346V27.1259H54.1104V14.6811H56.2842V16.001H56.325C57.2239 14.8123 58.5233 14.3368 59.9534 14.3368C61.7185 14.3368 63.3774 15.0336 64.3417 16.5585C64.9383 17.5013 65.1262 18.6408 65.1262 19.7476V27.1178H62.7972ZM77.4986 27.1178V25.3469H77.4577C76.428 26.7898 74.7936 27.4293 73.0694 27.4293C69.3511 27.4293 66.6217 24.6501 66.6217 20.9445C66.6217 17.2143 69.3103 14.3368 73.0694 14.3368C74.6302 14.3368 76.2891 14.9352 77.2779 16.1977H77.3188V10.5H79.6396V27.1178H77.4986ZM73.2001 16.4683C70.7403 16.4683 68.9507 18.485 68.9507 20.9199C68.9507 23.2482 70.8139 25.3059 73.1838 25.3059C75.6027 25.3059 77.4986 23.3302 77.4986 20.9199C77.4986 18.4277 75.7334 16.4683 73.2001 16.4683ZM86.3815 31.2742H83.9707L85.7767 26.8718L80.8327 14.6811H83.3415L86.9944 24.3386L90.729 14.6811H93.2377L86.3815 31.2742ZM99.857 27.4293C96.2042 27.4293 93.1642 24.4861 93.1642 20.8051C93.1642 17.1405 96.2777 14.3368 99.857 14.3368C103.485 14.3368 106.55 17.1651 106.55 20.8461C106.55 24.3959 103.616 27.4293 99.857 27.4293ZM99.857 16.4683C97.4381 16.4683 95.485 18.4441 95.485 20.8707C95.485 23.2974 97.43 25.2977 99.857 25.2977C102.3 25.2977 104.229 23.281 104.229 20.8543C104.221 18.4277 102.268 16.4683 99.857 16.4683ZM108.446 27.1178V10.5H110.783V27.1178H108.446ZM22.3787 24.6665C22.4768 25.06 22.6075 25.3879 22.7546 25.6339C22.9017 25.8798 23.0978 26.093 23.3185 26.2979C24.054 26.9456 24.9856 27.2735 26.0888 27.2735C27.1838 27.2735 28.2053 27.003 29.1369 26.4865V24.2484C28.1726 24.8141 27.2492 25.1092 26.383 25.1092C25.2062 25.1092 24.5933 24.3878 24.5933 22.9613V16.87H28.4995V14.7139H24.6178V10.7214H22.3133V14.7057H20.0742V16.8618H22.2153V22.3874C22.2153 23.5105 22.2725 24.273 22.3787 24.6665ZM36.459 16.7634C37.1781 16.7634 37.9708 17.1569 38.8125 17.9522L40.0792 15.8452C39.0495 14.9024 37.8074 14.4679 37.0801 14.4679H36.9166C36.0831 14.4679 34.6857 14.4679 33.5579 16.3125L33.5171 16.3863L33.5253 14.7139H31.1145V27.044H33.5253V20.6002C33.5253 19.5672 33.8113 18.6654 34.3915 17.903C34.9717 17.1487 35.6663 16.7634 36.459 16.7634Z" fill="white"/>
</svg>
