<svg width="27" height="30" viewBox="0 0 27 30" fill="none" xmlns="http://www.w3.org/2000/svg">
<path d="M2.39355 1H16.9316L25.2285 9.91211V27.6162C25.2285 28.3774 24.6113 28.9949 23.8506 28.9951H2.39355C1.63255 28.9951 1.01562 28.3779 1.01562 27.6162V2.37891C1.01562 1.61751 1.63268 1.00002 2.39355 1Z" fill="white" stroke="#023E7D" stroke-width="2"/>
<path d="M9.51922 20.2493C9.57828 20.3168 9.61203 20.4012 9.61203 20.494C9.61203 20.6712 9.46859 20.8315 9.2825 20.8315C9.19812 20.8315 9.10531 20.7977 9.04625 20.7218C8.71719 20.3252 8.15984 20.0716 7.63672 20.0716C6.40438 20.0716 5.46781 21.0171 5.46781 22.3591C5.46781 23.6927 6.40484 24.6462 7.63672 24.6462C8.16828 24.6462 8.69141 24.4184 9.04625 24.0045C9.10484 23.937 9.19812 23.8952 9.2825 23.8952C9.47703 23.8952 9.61203 24.0635 9.61203 24.2412C9.61203 24.3255 9.57828 24.4099 9.51922 24.4774C9.08 24.933 8.48094 25.271 7.63719 25.271C6.01672 25.271 4.74219 24.0893 4.74219 22.3591C4.74219 20.629 6.01672 19.4473 7.63719 19.4473C8.48094 19.4477 9.08844 19.7852 9.51922 20.2493ZM12.7077 25.2715C11.8723 25.2715 11.2137 24.993 10.7328 24.5707C10.6569 24.5032 10.6231 24.4104 10.6231 24.3176C10.6231 24.1484 10.7497 23.9627 10.9522 23.9627C11.0197 23.9627 11.0956 23.9796 11.1547 24.0302C11.5428 24.3766 12.0828 24.6462 12.733 24.6462C13.7375 24.6462 14.0581 24.1062 14.0581 23.6754C14.0581 22.2237 10.7244 23.0257 10.7244 21.0166C10.7244 20.0885 11.5512 19.4552 12.657 19.4552C13.3827 19.4552 14.0075 19.6741 14.4631 20.0543C14.5391 20.1218 14.5812 20.2146 14.5812 20.3074C14.5812 20.4762 14.4378 20.6449 14.2517 20.6449C14.1842 20.6449 14.1083 20.6196 14.0492 20.569C13.6358 20.2315 13.1211 20.0796 12.6059 20.0796C11.9309 20.0796 11.4495 20.4424 11.4495 20.9745C11.4495 22.2405 14.7833 21.5145 14.7833 23.6163C14.7837 24.4357 14.2269 25.2715 12.7077 25.2715ZM20.6736 19.9962L18.7241 24.8407C18.6312 25.0685 18.403 25.2204 18.1672 25.2204H18.1503C17.9056 25.2204 17.6778 25.0685 17.5845 24.8407L15.643 19.9962C15.6261 19.954 15.6177 19.9118 15.6177 19.8612C15.6177 19.6924 15.7691 19.4895 15.9973 19.4895C16.1408 19.4895 16.2758 19.5738 16.3348 19.7173L18.1578 24.401L19.9808 19.7173C20.0314 19.5823 20.1664 19.4895 20.3183 19.4895C20.5377 19.4895 20.698 19.6666 20.698 19.8612C20.6984 19.9034 20.69 19.954 20.6736 19.9962Z" fill="#023E7D"/>
<path fill-rule="evenodd" clip-rule="evenodd" d="M17 0V7.15318C17 7.9667 17.5423 9.99805 19.9986 9.99805H26.2867L17 0Z" fill="#023E7D"/>
</svg>
