<svg width="37" height="37" viewBox="0 0 37 37" fill="none" xmlns="http://www.w3.org/2000/svg">
<rect y="37" width="37" height="37" rx="7.78947" transform="rotate(-90 0 37)" fill="#E31A1A"/>
<path d="M13 14.666H14.3333H25" stroke="white" stroke-width="1.33333" stroke-linecap="round" stroke-linejoin="round"/>
<path d="M23.6654 14.6667V24C23.6654 24.3536 23.5249 24.6928 23.2748 24.9428C23.0248 25.1929 22.6857 25.3333 22.332 25.3333H15.6654C15.3117 25.3333 14.9726 25.1929 14.7226 24.9428C14.4725 24.6928 14.332 24.3536 14.332 24V14.6667M16.332 14.6667V13.3333C16.332 12.9797 16.4725 12.6406 16.7226 12.3905C16.9726 12.1405 17.3117 12 17.6654 12H20.332C20.6857 12 21.0248 12.1405 21.2748 12.3905C21.5249 12.6406 21.6654 12.9797 21.6654 13.3333V14.6667" stroke="white" stroke-width="1.33333" stroke-linecap="round" stroke-linejoin="round"/>
<path d="M17.668 18V22" stroke="white" stroke-width="1.33333" stroke-linecap="round" stroke-linejoin="round"/>
<path d="M20.332 18V22" stroke="white" stroke-width="1.33333" stroke-linecap="round" stroke-linejoin="round"/>
</svg>
