<svg width="117" height="36" viewBox="0 0 117 36" fill="none" xmlns="http://www.w3.org/2000/svg">
<rect x="0.440563" y="34.8036" width="34.3639" height="115.427" rx="6.55944" transform="rotate(-90 0.440563 34.8036)" fill="white" stroke="#E8EEFF" stroke-width="0.881126"/>
<g clip-path="url(#clip0_0_19021)">
<path fill-rule="evenodd" clip-rule="evenodd" d="M11.2384 9.82512C11.6802 8.75552 12.7889 7.99877 13.9505 8.00194C22.688 7.99877 31.4256 8.00299 40.1632 7.99877C40.921 7.98185 41.6798 8.26405 42.2389 8.77666C42.8794 9.34951 43.2441 10.2056 43.2261 11.0638C43.2229 14.4132 43.2325 17.7615 43.2219 21.1109C43.2155 22.6244 41.8933 23.9752 40.3809 24.0164C37.1943 24.0301 34.0066 24.0175 30.82 24.0227C31.248 25.0775 31.6814 26.1313 32.1094 27.1872C30.2112 26.1419 28.332 25.0596 26.4232 24.0365C22.2314 23.9995 18.0365 24.0397 13.8437 24.0153C12.3334 23.9731 11.0165 22.6234 11.008 21.113C10.9953 17.8355 11.008 14.5559 11.0017 11.2763C10.99 10.7838 11.0365 10.2807 11.2384 9.82512Z" fill="#9C5C8F"/>
<path fill-rule="evenodd" clip-rule="evenodd" d="M24.0551 10.0674C24.5392 9.55272 25.4576 9.71971 25.8149 10.3021C26.0083 10.6075 26.0252 11.0155 25.8698 11.341C25.1966 12.6654 24.9154 14.1408 24.6565 15.5909C24.35 17.4817 24.0953 19.3969 24.1946 21.3162C24.2221 21.8056 23.9853 22.3996 23.4601 22.5137C22.9633 22.6247 22.5109 22.2992 22.1992 21.9483C20.7723 20.4136 19.9648 18.4256 19.3825 16.4417C18.7938 17.6033 18.2029 18.7648 17.6322 19.9359C17.2327 20.7275 16.811 21.535 16.1726 22.1639C15.9031 22.4313 15.4475 22.6733 15.0998 22.3985C14.5766 21.9409 14.4477 21.2116 14.2257 20.5849C13.3834 17.6794 12.9056 14.6851 12.4163 11.7046C12.3043 11.2079 12.5125 10.6128 13.0082 10.4141C13.4087 10.264 13.9213 10.2429 14.2627 10.5378C14.5005 10.7502 14.5661 11.0789 14.6105 11.3791C14.954 13.6863 15.363 15.9862 15.92 18.2522C16.8744 16.4428 17.8235 14.6302 18.7747 12.8186C18.9164 12.5533 19.0855 12.287 19.3455 12.1221C19.6932 11.8991 20.209 11.9149 20.4996 12.2267C20.7438 12.4825 20.8252 12.8387 20.8928 13.1748C21.1771 14.6724 21.5618 16.1553 22.1209 17.5747C22.3619 15.4355 22.6568 13.2699 23.4379 11.2501C23.6144 10.8432 23.7697 10.4131 24.0551 10.0674ZM29.42 11.2131C30.4474 11.0874 31.5561 11.4288 32.2558 12.2098C32.8265 12.8556 33.1467 13.6937 33.2545 14.5414C33.4289 15.9915 33.1679 17.4987 32.4703 18.7849C32.0761 19.5184 31.5603 20.2213 30.8331 20.6525C29.7678 21.2993 28.3388 21.2201 27.3094 20.5373C26.4871 19.974 26.0252 19.0143 25.8371 18.0578C25.4587 15.8932 26.1055 13.4802 27.7448 11.9688C28.2151 11.563 28.8017 11.2882 29.42 11.2131ZM29.6346 13.4401C29.141 13.6039 28.8292 14.0563 28.5639 14.4769C27.8991 15.5476 27.7068 16.9596 28.2416 18.1243C28.3821 18.4309 28.6083 18.7532 28.9645 18.8177C29.3429 18.88 29.6948 18.6634 29.9707 18.4277C30.5784 17.9066 30.8807 17.1234 31.0276 16.3551C31.1925 15.4799 31.1079 14.5107 30.5943 13.7614C30.3882 13.4559 29.9834 13.3175 29.6346 13.4401ZM37.663 11.2153C38.667 11.0905 39.7567 11.4002 40.4596 12.1496C41.0884 12.8281 41.4288 13.736 41.5249 14.6481C41.6729 16.0496 41.415 17.4987 40.7502 18.7448C40.3507 19.4983 39.8233 20.2234 39.075 20.662C38.0519 21.275 36.7012 21.219 35.6876 20.6145C35.0027 20.2023 34.5472 19.4983 34.285 18.7585C33.5663 16.4956 34.173 13.8332 35.8292 12.1253C36.326 11.6412 36.9707 11.3019 37.663 11.2153ZM37.8807 13.4432C37.3417 13.6356 37.0182 14.1503 36.7382 14.6175C36.1315 15.6871 35.9825 17.0643 36.531 18.1878C36.679 18.4985 36.9411 18.8113 37.3121 18.8283C37.7158 18.8431 38.0635 18.5873 38.3436 18.323C38.9535 17.7217 39.2325 16.8624 39.3297 16.0285C39.4301 15.2474 39.3001 14.4082 38.8457 13.7529C38.6374 13.4475 38.2284 13.3175 37.8807 13.4432Z" fill="white"/>
<path fill-rule="evenodd" clip-rule="evenodd" d="M48.6526 11.5128C49.5288 11.3194 50.4505 11.3458 51.3224 11.5488C51.3256 12.2622 51.3224 12.9756 51.3245 13.689C50.609 13.5167 49.8089 13.355 49.1145 13.689C48.2848 14.0949 47.8314 15.0303 47.823 15.9286C47.7765 16.8239 48.0745 17.8205 48.8672 18.3236C49.5954 18.8056 50.5255 18.7031 51.3245 18.4737C51.3224 19.1871 51.3245 19.9006 51.3224 20.614C50.2655 20.9205 49.1103 20.8824 48.0787 20.4988C46.84 20.0337 45.8539 18.9641 45.4766 17.6969C45.1912 16.7351 45.1542 15.6929 45.3857 14.7153C45.7588 13.1468 47.0831 11.8616 48.6526 11.5118V11.5128ZM55.0914 11.4071C56.1695 11.2866 57.3426 11.4526 58.2135 12.1438C59.0538 12.7959 59.4734 13.8476 59.6193 14.8749C59.7672 15.9995 59.7345 17.1695 59.3867 18.256C59.0908 19.1787 58.4714 20.0316 57.5794 20.4512C56.6726 20.8782 55.6156 20.9067 54.6507 20.689C53.7565 20.4882 52.9691 19.8953 52.5252 19.0952C51.9111 18.0161 51.7991 16.7351 51.8467 15.5175C51.8974 14.4669 52.1627 13.372 52.8687 12.5623C53.4225 11.9039 54.2427 11.5033 55.0914 11.4071ZM55.4233 13.4533C54.9603 13.5707 54.6982 14.0272 54.582 14.4574C54.3526 15.3082 54.3917 16.2034 54.4499 17.0743C54.5059 17.5447 54.5566 18.0647 54.8916 18.4314C55.3366 18.9377 56.2308 18.869 56.6398 18.3511C56.9104 18.0192 56.9801 17.5817 57.0425 17.1716C57.1292 16.4381 57.1513 15.6919 57.0393 14.9605C56.9611 14.5219 56.8396 14.0589 56.5172 13.7313C56.2403 13.4438 55.8027 13.3561 55.4233 13.4533ZM97.7043 11.5498C98.6196 11.3099 99.5899 11.3448 100.51 11.5414C100.532 12.2569 100.515 12.9735 100.52 13.689C99.8192 13.521 99.0456 13.3635 98.3596 13.6658C97.5712 14.0251 97.0934 14.8707 97.0321 15.7151C96.9349 16.6621 97.196 17.7508 98.0309 18.3046C98.7623 18.8077 99.7104 18.7094 100.52 18.4748C100.51 19.1935 100.541 19.9132 100.503 20.6309C99.3764 20.9236 98.1493 20.8845 97.0755 20.4184C95.8959 19.9048 94.9817 18.8394 94.6424 17.6007C94.3824 16.6495 94.3528 15.6264 94.5928 14.6677C94.968 13.169 96.2141 11.9388 97.7043 11.5498ZM61.0408 11.6206C62.0597 11.6185 63.0796 11.6185 64.0995 11.6206C64.4684 13.2737 64.8193 14.932 65.1258 16.5977C65.4175 14.9246 65.8096 13.2715 66.2039 11.6206C67.2492 11.6185 68.2945 11.6206 69.3408 11.6206C69.7467 14.6128 70.1504 17.6049 70.5531 20.5971C69.753 20.5971 68.954 20.5981 68.1539 20.5971C67.9319 18.5477 67.7354 16.4962 67.5007 14.4479C67.0156 16.5004 66.504 18.5466 66.0094 20.5971C65.464 20.5992 64.9176 20.5981 64.3722 20.5971C63.8491 18.5445 63.3343 16.4888 62.8069 14.4373C62.6008 16.4909 62.3968 18.5445 62.1886 20.5981C61.4245 20.5971 60.6593 20.5981 59.8951 20.5971C60.2756 17.6049 60.6593 14.6138 61.0408 11.6217V11.6206ZM72.0127 11.6196C73.0326 11.6196 74.0526 11.6175 75.0736 11.6196C75.4414 13.2705 75.7891 14.9256 76.0977 16.5892C76.3936 14.9193 76.7815 13.2673 77.1768 11.6185H80.3011C80.7059 14.6107 81.1096 17.6028 81.5123 20.5949C80.7133 20.5971 79.9142 20.5949 79.1152 20.5971C78.8933 18.5466 78.6861 16.4962 78.4673 14.4458C77.9685 16.4952 77.4791 18.5466 76.9802 20.596C76.4349 20.5949 75.8906 20.596 75.3462 20.596C74.8231 18.5413 74.3031 16.4856 73.7809 14.4299C73.5717 16.4846 73.3698 18.5403 73.1616 20.5949C72.3964 20.5949 71.6322 20.596 70.867 20.5949C71.2486 17.6028 71.6312 14.6107 72.0127 11.6185V11.6196ZM82.1951 11.6492C83.8323 11.6122 85.4715 11.6439 87.1098 11.6333C87.1129 12.2706 87.1077 12.9069 87.1129 13.5442C86.2864 13.5537 85.4599 13.5442 84.6334 13.5495C84.6334 14.097 84.6334 14.6445 84.6334 15.192C85.3489 15.1941 86.0645 15.192 86.78 15.192C86.78 15.8124 86.7811 16.4317 86.78 17.0511C86.0645 17.0511 85.3489 17.0511 84.6334 17.0511C84.6334 17.5986 84.6334 18.1471 84.6334 18.6946C85.4631 18.6967 86.2938 18.6946 87.1235 18.6946C87.1235 19.3319 87.1246 19.9693 87.1235 20.6066C85.4853 20.6066 83.8471 20.6066 82.2099 20.6066C82.1993 17.6197 82.2278 14.6318 82.1951 11.646V11.6492ZM87.8168 11.6196C88.8421 11.6238 89.8673 11.6111 90.8925 11.6259C91.8585 11.6566 92.8827 11.8975 93.6035 12.5814C94.2546 13.187 94.4797 14.1752 94.2271 15.0176C94.0273 15.7025 93.5137 16.2584 92.8721 16.5586C93.5137 17.9061 94.1615 19.2495 94.8031 20.596C93.9502 20.596 93.0972 20.596 92.2453 20.5971C91.5763 19.2231 90.9284 17.8374 90.2509 16.4677C90.234 17.8438 90.2488 19.2199 90.2435 20.596C89.4339 20.596 88.6254 20.5971 87.8168 20.596C87.8168 17.6039 87.8158 14.6117 87.8168 11.6196ZM90.2319 13.3455C90.2298 14.0589 90.2298 14.7734 90.2319 15.4879C90.6705 15.4573 91.1472 15.4403 91.5203 15.1751C91.9494 14.8654 91.9029 14.2027 91.6323 13.8032C91.2973 13.3931 90.7149 13.3846 90.2319 13.3455ZM101.199 11.6217C102.834 11.6175 104.469 11.6217 106.104 11.6196C106.105 12.258 106.104 12.8963 106.104 13.5347C105.274 13.5358 104.444 13.5347 103.615 13.5358C103.614 14.0822 103.614 14.6286 103.614 15.1761C104.329 15.1782 105.045 15.1761 105.76 15.1761C105.76 15.7965 105.76 16.418 105.76 17.0384C105.045 17.0384 104.33 17.0384 103.616 17.0384C103.613 17.5859 103.614 18.1334 103.616 18.6819C104.449 18.684 105.281 18.6819 106.115 18.6819C106.115 19.3192 106.115 19.9566 106.114 20.5949C104.477 20.5949 102.839 20.5949 101.202 20.5939C101.199 17.6028 101.202 14.6107 101.2 11.6196L101.199 11.6217Z" fill="black"/>
</g>
<defs>
<clipPath id="clip0_0_19021">
<rect width="95.1155" height="19.1895" fill="white" transform="translate(11 8)"/>
</clipPath>
</defs>
</svg>
