<svg width="37" height="37" viewBox="0 0 37 37" fill="none" xmlns="http://www.w3.org/2000/svg">
<rect y="37" width="37" height="37" rx="7.78947" transform="rotate(-90 0 37)" fill="#023E7D"/>
<path d="M18.8242 24.0957H24.6663" stroke="white" stroke-width="1.29825" stroke-linecap="round" stroke-linejoin="round"/>
<path d="M21.7456 13.3857C22.0038 13.1275 22.3541 12.9824 22.7193 12.9824C22.9001 12.9824 23.0792 13.018 23.2462 13.0872C23.4133 13.1564 23.5651 13.2579 23.6929 13.3857C23.8208 13.5136 23.9222 13.6654 23.9914 13.8325C24.0606 13.9995 24.0963 14.1786 24.0963 14.3594C24.0963 14.5402 24.0606 14.7193 23.9914 14.8864C23.9222 15.0534 23.8208 15.2052 23.6929 15.3331L15.5789 23.4471L12.9824 24.0963L13.6315 21.4998L21.7456 13.3857Z" stroke="white" stroke-width="1.29825" stroke-linecap="round" stroke-linejoin="round"/>
</svg>
