<svg width="12" height="12" viewBox="0 0 12 12" fill="none" xmlns="http://www.w3.org/2000/svg">
<path d="M5.11328 6.66152C5.33566 6.95881 5.61937 7.2048 5.94517 7.3828C6.27097 7.5608 6.63125 7.66665 7.00156 7.69317C7.37187 7.7197 7.74355 7.66627 8.09139 7.53651C8.43924 7.40675 8.75511 7.20371 9.01758 6.94114L10.571 5.38771C11.0426 4.8994 11.3036 4.2454 11.2977 3.56656C11.2918 2.88772 11.0195 2.23835 10.5395 1.75832C10.0594 1.27829 9.41007 1.006 8.73123 1.0001C8.05239 0.994199 7.39839 1.25516 6.91009 1.72678L6.01945 2.61224" stroke="#023E7D" stroke-width="1.03562" stroke-linecap="round" stroke-linejoin="round"/>
<path d="M7.18451 5.62616C6.96214 5.32887 6.67842 5.08288 6.35262 4.90488C6.02682 4.72688 5.66654 4.62103 5.29623 4.59451C4.92592 4.56798 4.55424 4.62141 4.2064 4.75117C3.85855 4.88093 3.54268 5.08397 3.28021 5.34654L1.72678 6.89997C1.25516 7.38828 0.994199 8.04228 1.0001 8.72112C1.006 9.39996 1.27829 10.0493 1.75832 10.5294C2.23835 11.0094 2.88772 11.2817 3.56656 11.2876C4.2454 11.2935 4.8994 11.0325 5.38771 10.5609L6.27316 9.67544" stroke="#023E7D" stroke-width="1.03562" stroke-linecap="round" stroke-linejoin="round"/>
</svg>
