<svg width="5" height="17" viewBox="0 0 5 17" fill="none" xmlns="http://www.w3.org/2000/svg">
<path d="M2.5124 9.38809C2.99603 9.38809 3.38809 8.99603 3.38809 8.5124C3.38809 8.02878 2.99603 7.63672 2.5124 7.63672C2.02878 7.63672 1.63672 8.02878 1.63672 8.5124C1.63672 8.99603 2.02878 9.38809 2.5124 9.38809Z" stroke="#023E7D" stroke-width="1.75137" stroke-linecap="round" stroke-linejoin="round"/>
<path d="M2.5124 3.25918C2.99603 3.25918 3.38809 2.86712 3.38809 2.3835C3.38809 1.89987 2.99603 1.50781 2.5124 1.50781C2.02878 1.50781 1.63672 1.89987 1.63672 2.3835C1.63672 2.86712 2.02878 3.25918 2.5124 3.25918Z" stroke="#023E7D" stroke-width="1.75137" stroke-linecap="round" stroke-linejoin="round"/>
<path d="M2.5124 15.5189C2.99603 15.5189 3.38809 15.1269 3.38809 14.6433C3.38809 14.1596 2.99603 13.7676 2.5124 13.7676C2.02878 13.7676 1.63672 14.1596 1.63672 14.6433C1.63672 15.1269 2.02878 15.5189 2.5124 15.5189Z" stroke="#023E7D" stroke-width="1.75137" stroke-linecap="round" stroke-linejoin="round"/>
</svg>
