<svg width="15" height="14" viewBox="0 0 15 14" fill="none" xmlns="http://www.w3.org/2000/svg">
<path d="M11.8308 8.0625H8.50775L7.40006 9.72404H5.18468L4.07698 8.0625H0.753906" stroke="#023E7D" stroke-width="1.10769" stroke-linecap="round" stroke-linejoin="round"/>
<path d="M2.66468 4.24563L0.753906 8.06163V11.3847C0.753906 11.6785 0.870609 11.9602 1.07834 12.168C1.28607 12.3757 1.56782 12.4924 1.8616 12.4924H10.7231C11.0169 12.4924 11.2987 12.3757 11.5064 12.168C11.7141 11.9602 11.8308 11.6785 11.8308 11.3847V8.06163L9.92006 4.24563C9.82836 4.06108 9.68699 3.90577 9.51185 3.79717C9.33671 3.68856 9.13475 3.63097 8.92868 3.63086H3.65606C3.44998 3.63097 3.24802 3.68856 3.07288 3.79717C2.89775 3.90577 2.75638 4.06108 2.66468 4.24563Z" stroke="#023E7D" stroke-width="1.10769" stroke-linecap="round" stroke-linejoin="round"/>
<circle cx="11.277" cy="3.07587" r="2.21538" fill="#DC3545" stroke="#F5F8FF" stroke-width="1.10769"/>
</svg>
