<svg width="85" height="21" viewBox="0 0 85 21" fill="none" xmlns="http://www.w3.org/2000/svg">
<path d="M19.7016 1.36378C20.0061 0.843585 19.4927 0.268422 18.5707 0.0697122C17.6565 -0.126164 16.6531 0.116368 16.313 0.62013L4.5689 18.0837C3.90742 19.0699 4.32524 20.2963 5.59022 20.7258C6.86993 21.162 8.44506 20.6263 9.0682 19.5585L19.7016 1.36378Z" fill="#0069B3"/>
<path d="M0.553547 20.8119C-0.00234804 20.6164 -0.164602 20.0664 0.181628 19.5898L6.8501 10.4112C7.3992 9.657 6.8501 8.9874 6.8501 8.9874L0.781533 1.54449C0.392426 1.06698 0.832533 0.446863 1.74429 0.155788C2.64453 -0.132832 3.69512 -0.00419747 4.10916 0.448376L10.2603 7.19051C10.2603 7.19051 10.7829 7.76114 10.2603 8.52009L2.18421 20.2796C1.8478 20.7672 1.11605 21.0074 0.553547 20.8119Z" fill="#0069B3"/>
<path d="M27.7593 0.0344216C27.327 -0.0539776 27.0982 0.0291334 26.7818 0.269398L16.3279 8.20379C16.3279 8.20379 15.5882 8.78122 16.4763 9.67182L26.6094 19.9082C27.5682 20.8766 29.2544 21.173 30.3125 20.536C31.3487 19.9106 31.3516 18.6574 30.3624 17.7469L19.9292 8.14996C19.5444 7.79542 19.4987 7.68737 19.8946 7.37231L28.3434 0.632061C28.5419 0.438451 28.1917 0.123199 27.7593 0.0344216Z" fill="#EE7D00"/>
<path d="M62.8902 10.8381C63.1399 11.0874 63.1399 11.4918 62.8902 11.7408C62.6409 11.9895 62.2383 11.9895 61.9886 11.7408L59.6483 9.40026C59.5235 9.27484 59.4609 9.11164 59.4609 8.9492C59.4609 8.78581 59.5235 8.62148 59.6483 8.49719L61.9886 6.15688C62.2383 5.90604 62.6409 5.90604 62.8902 6.15688C63.1399 6.40565 63.1399 6.80967 62.8902 7.05806L61.0019 8.94939L62.8902 10.8381Z" fill="#EE7D00"/>
<path d="M73.1762 6.6041C73.1762 6.95675 72.8889 7.24159 72.5374 7.24159C71.5949 7.24159 70.8306 8.00772 70.8306 8.94989V11.2942C70.8306 11.6472 70.5443 11.9317 70.1912 11.9317C69.8405 11.9317 69.5547 11.6474 69.5547 11.2942V8.94989C69.5547 7.30506 70.893 5.9668 72.5374 5.9668C72.8889 5.9668 73.1762 6.25296 73.1762 6.6041Z" fill="#EE7D00"/>
<path d="M66.0735 5.9668C64.4287 5.9668 63.0898 7.30506 63.0898 8.94989C63.0898 10.5932 64.4287 11.9315 66.0735 11.9315C66.7101 11.9315 67.3009 11.7292 67.7869 11.3871C67.8324 11.6956 68.0963 11.9315 68.4166 11.9315C68.7693 11.9315 69.0536 11.6472 69.0536 11.294V8.9497C69.0536 7.30506 67.7159 5.9668 66.0735 5.9668ZM66.0735 10.6557C65.1306 10.6557 64.3663 9.89093 64.3663 8.94989C64.3663 8.00791 65.1306 7.24159 66.0735 7.24159C67.0136 7.24159 67.7784 8.00772 67.7784 8.94989C67.7782 9.89093 67.0136 10.6557 66.0735 10.6557Z" fill="#EE7D00"/>
<path d="M46.2054 6.6041C46.2054 6.95675 45.919 7.24159 45.5675 7.24159C44.6261 7.24159 43.8604 8.00772 43.8604 8.94989V11.2942C43.8604 11.6472 43.574 11.9317 43.2215 11.9317C42.8689 11.9317 42.5859 11.6474 42.5859 11.2942V8.94989C42.5859 7.30506 43.9229 5.9668 45.5675 5.9668C45.919 5.9668 46.2054 6.25296 46.2054 6.6041Z" fill="#0069B3"/>
<path d="M41.4176 5.9668C41.0649 5.9668 40.7787 6.25315 40.7787 6.60429V9.01185C40.7787 9.95345 40.0768 10.6557 39.1339 10.6557C38.1929 10.6557 37.4906 9.95345 37.4906 9.01185V6.60429C37.4906 6.25315 37.2039 5.9668 36.8518 5.9668C36.4991 5.9668 36.2148 6.25315 36.2148 6.60429V9.01185C36.2148 10.6567 37.4893 11.9317 39.1341 11.9317C40.7821 11.9317 42.0571 10.6567 42.0571 9.01185V6.60429C42.0569 6.25296 41.7702 5.9668 41.4176 5.9668Z" fill="#0069B3"/>
<path d="M48.8476 5.96542H47.8912V4.90803C47.8912 4.55633 47.6054 4.27148 47.2547 4.27148C46.9011 4.27148 46.6172 4.55633 46.6172 4.90803V11.2926C46.6172 11.6456 46.9011 11.9301 47.2547 11.9301C47.6053 11.9301 47.8912 11.6458 47.8912 11.2926V7.24174H48.8476C49.2002 7.24174 49.486 6.95538 49.486 6.60292C49.486 6.25159 49.2 5.96542 48.8476 5.96542Z" fill="#0069B3"/>
<path d="M50.6375 5.9668C50.2848 5.9668 50 6.25315 50 6.60429V11.2942C50 11.6472 50.2848 11.9317 50.6375 11.9317C50.9901 11.9317 51.2754 11.6474 51.2754 11.2942V6.60429C51.2756 6.25296 50.9901 5.9668 50.6375 5.9668Z" fill="#0069B3"/>
<path d="M50.6392 4.27148C50.2809 4.27148 49.9883 4.56256 49.9883 4.92296C49.9883 5.2809 50.2809 5.57103 50.6392 5.57103C50.9985 5.57103 51.2897 5.2809 51.2897 4.92296C51.2897 4.56256 50.9986 4.27148 50.6392 4.27148Z" fill="#0069B3"/>
<path d="M58.4104 5.9668C58.0577 5.9668 57.7734 6.25315 57.7734 6.60429V11.2942C57.7734 11.6472 58.0579 11.9317 58.4104 11.9317C58.763 11.9317 59.0482 11.6474 59.0482 11.2942V6.60429C59.0484 6.25296 58.763 5.9668 58.4104 5.9668Z" fill="#0069B3"/>
<path d="M57.7578 4.92296C57.7578 4.56256 58.0504 4.27148 58.4102 4.27148C58.7701 4.27148 59.0617 4.56256 59.0617 4.92296C59.0617 5.2809 58.7701 5.57103 58.4102 5.57103C58.0504 5.57103 57.7578 5.2809 57.7578 4.92296Z" fill="#0069B3"/>
<path d="M56.08 10.1549C55.7715 10.4643 55.344 10.654 54.8728 10.654C53.9314 10.654 53.1647 9.89105 53.1647 8.94813C53.1647 8.00407 53.9314 7.23983 54.8728 7.23983C55.344 7.23983 55.7715 7.43193 56.08 7.74038C56.3293 7.98971 56.7333 7.98971 56.983 7.74038C57.2308 7.49105 57.2308 7.08759 56.983 6.83863C56.442 6.29823 55.6971 5.96484 54.8728 5.96484C53.2261 5.96484 51.8906 7.29971 51.8906 8.94794C51.8906 10.3761 52.8976 11.5708 54.2392 11.861C54.2374 11.884 54.2355 11.9057 54.2355 11.9297V12.5666C54.2355 12.9202 55.5108 12.9202 55.5108 12.5666V11.9297C55.5108 11.9057 55.5089 11.884 55.508 11.861C56.0764 11.738 56.5856 11.4526 56.9832 11.0544C57.231 10.807 57.231 10.4029 56.9832 10.1547C56.7331 9.90616 56.3293 9.90616 56.08 10.1549Z" fill="#0069B3"/>
<path d="M82.0167 5.9668C80.3719 5.9668 79.0352 7.30506 79.0352 8.94989C79.0352 10.5932 80.3721 11.9315 82.0167 11.9315C83.6616 11.9315 84.9983 10.5932 84.9983 8.94989C84.9983 7.30506 83.6616 5.9668 82.0167 5.9668ZM82.0167 10.6557C81.0753 10.6557 80.3096 9.89093 80.3096 8.94989C80.3096 8.00791 81.0753 7.24159 82.0167 7.24159C82.9583 7.24159 83.7235 8.00772 83.7235 8.94989C83.7233 9.89093 82.9582 10.6557 82.0167 10.6557Z" fill="#EE7D00"/>
<path d="M78.7231 12.3608C78.7231 14.0094 77.4169 15.3438 75.8029 15.3438C74.5073 15.3438 74.7341 14.5233 74.7341 14.5233C74.7341 14.5233 74.8378 14.0343 75.3408 14.0343C75.4623 14.0343 75.5839 14.0698 75.8029 14.0698C76.7118 14.0698 77.4477 13.3027 77.4477 12.3606L77.4481 11.3906C76.9649 11.7318 76.375 11.9295 75.74 11.9295C74.0951 11.9295 72.7578 10.5913 72.7578 8.94794C72.7578 7.30311 74.0951 5.96484 75.74 5.96484C77.3848 5.96484 78.7231 7.30311 78.7231 8.94794V12.3608ZM77.4477 8.94813C77.4477 8.00615 76.6829 7.23983 75.74 7.23983C74.798 7.23983 74.0341 8.00596 74.0341 8.94813C74.0341 9.88916 74.798 10.654 75.74 10.654C76.6831 10.654 77.4477 9.88916 77.4477 8.94813Z" fill="#EE7D00"/>
<path d="M32.7429 14.0702C33.6499 14.0702 34.3849 13.3045 34.3849 12.3625L34.3868 11.3926C33.9027 11.7313 33.377 11.9315 32.7429 11.9315C31.0981 11.9315 29.8242 10.645 29.8242 9.00032V6.60429C29.8242 6.25315 30.1087 5.9668 30.4621 5.9668C30.8129 5.9668 31.0981 6.25315 31.0981 6.60429V9.00032C31.0981 9.9423 31.7998 10.6557 32.7429 10.6557C33.6826 10.6557 34.3849 9.95345 34.3849 9.01185V6.60429C34.3849 6.25315 34.6716 5.9668 35.0224 5.9668C35.375 5.9668 35.6608 6.25315 35.6608 6.60429V12.3625C35.6608 14.0092 34.3537 15.3456 32.7431 15.3456C31.4462 15.3456 31.6729 14.5251 31.6729 14.5251C31.6729 14.5251 31.7766 14.0342 32.2781 14.0342C32.3999 14.0342 32.5219 14.0702 32.7429 14.0702Z" fill="#0069B3"/>
</svg>
