<svg width="26" height="26" viewBox="0 0 26 26" fill="none" xmlns="http://www.w3.org/2000/svg">
<path d="M9.56309 24.1066C10.1481 24.1066 10.6223 23.6324 10.6223 23.0475C10.6223 22.4625 10.1481 21.9883 9.56309 21.9883C8.97812 21.9883 8.50391 22.4625 8.50391 23.0475C8.50391 23.6324 8.97812 24.1066 9.56309 24.1066Z" stroke="#CBDAFF" stroke-width="2.11837" stroke-linecap="round" stroke-linejoin="round"/>
<path d="M21.2115 24.1066C21.7965 24.1066 22.2707 23.6324 22.2707 23.0475C22.2707 22.4625 21.7965 21.9883 21.2115 21.9883C20.6266 21.9883 20.1523 22.4625 20.1523 23.0475C20.1523 23.6324 20.6266 24.1066 21.2115 24.1066Z" stroke="#CBDAFF" stroke-width="2.11837" stroke-linecap="round" stroke-linejoin="round"/>
<path d="M1.08789 1.86328H5.32462L8.16323 16.0457C8.26009 16.5334 8.52538 16.9714 8.91266 17.2832C9.29993 17.5949 9.78452 17.7606 10.2816 17.751H20.5769C21.0739 17.7606 21.5585 17.5949 21.9458 17.2832C22.3331 16.9714 22.5984 16.5334 22.6952 16.0457L24.3899 7.1592H6.38381" stroke="#CBDAFF" stroke-width="2.11837" stroke-linecap="round" stroke-linejoin="round"/>
</svg>
