<svg width="177" height="40" viewBox="0 0 177 40" fill="none" xmlns="http://www.w3.org/2000/svg">
<rect x="0.5" y="39.5" width="39" height="176" rx="11.5" transform="rotate(-90 0.5 39.5)" fill="#F28B02" stroke="#CCD8E5" stroke-linecap="round" stroke-linejoin="round"/>
<path d="M47.6018 16.4608C48.0572 16.652 48.4515 16.9644 48.7418 17.364C48.9798 17.6751 49.1386 18.0393 49.2044 18.4254C49.2729 19.0162 49.301 19.611 49.2887 20.2057V25.6176H46.8301V20.0113C46.848 19.5962 46.7615 19.1832 46.5786 18.8101C46.4581 18.5925 46.2759 18.4154 46.0551 18.3011C45.8342 18.1867 45.5844 18.1403 45.3372 18.1675C45.0638 18.1503 44.7902 18.1994 44.5398 18.3106C44.2894 18.4218 44.0695 18.5917 43.8988 18.8061C43.5395 19.3432 43.3671 19.9838 43.4084 20.6288V25.619H41V13.0469H43.4084V17.1948C43.7127 16.8548 44.0951 16.594 44.5227 16.4348C45.0139 16.2519 45.5343 16.16 46.0584 16.1638C46.5877 16.1569 47.1129 16.2579 47.6018 16.4608Z" fill="white"/>
<path d="M56.7439 16.5918C57.393 16.8854 57.945 17.3579 58.3351 17.954C58.7214 18.5245 58.9723 19.1757 59.0687 19.858C59.1425 20.4641 59.1691 21.0751 59.148 21.6854H52.4411C52.4786 22.6093 52.7996 23.257 53.4042 23.6285C53.8046 23.8683 54.2653 23.9885 54.7318 23.9747C55.1082 24.0042 55.4846 23.9191 55.8117 23.7306C56.1387 23.5421 56.4011 23.2591 56.5643 22.9187H59.0225C58.9115 23.555 58.5984 24.1387 58.1298 24.5832C57.3046 25.4788 56.1498 25.9266 54.6653 25.9266C53.484 25.9424 52.3351 25.5411 51.4206 24.7933C50.4839 24.0377 50.0156 22.8088 50.0156 21.1063C50.0156 19.5112 50.4384 18.288 51.2841 17.4368C51.7164 17.0099 52.2317 16.6763 52.7982 16.4566C53.3647 16.2369 53.9702 16.1359 54.5773 16.1597C55.322 16.1482 56.0606 16.2955 56.7439 16.5918ZM53.1419 18.6718C52.7813 19.0662 52.5564 19.5657 52.5003 20.0971H56.6482C56.646 19.8237 56.5879 19.5536 56.4776 19.3034C56.3672 19.0532 56.207 18.8281 56.0066 18.642C55.6084 18.3057 55.0997 18.1287 54.5786 18.1453C54.3157 18.1292 54.0523 18.1677 53.805 18.2584C53.5577 18.349 53.3318 18.4899 53.1416 18.6721L53.1419 18.6718Z" fill="white"/>
<path d="M67.7652 17.3952C68.5163 18.1893 68.8918 19.3553 68.8918 20.8931C68.8918 22.515 68.5247 23.7512 67.7906 24.6018C67.4445 25.0143 67.0097 25.3433 66.5186 25.5642C66.0276 25.7851 65.4929 25.8923 64.9547 25.8776C64.2986 25.9023 63.6527 25.7091 63.1179 25.3283C62.8093 25.0785 62.5448 24.7786 62.3355 24.4412V29.0002H59.9531V16.4067H62.2596V17.7671C62.4838 17.4084 62.7653 17.0887 63.0928 16.8208C63.6457 16.4049 64.3228 16.1875 65.0145 16.204C65.5313 16.196 66.0438 16.2982 66.5181 16.5035C66.9923 16.7089 67.4175 17.0129 67.7652 17.3952ZM65.9174 19.1273C65.7534 18.8571 65.5179 18.6376 65.237 18.493C64.9561 18.3484 64.6406 18.2842 64.3255 18.3077C63.928 18.2861 63.5346 18.396 63.2059 18.6206C62.8773 18.8451 62.6318 19.1717 62.5074 19.5497C62.3208 20.087 62.2339 20.6538 62.2512 21.2223C62.2512 22.2927 62.5383 23.0447 63.1125 23.4782C63.4638 23.7347 63.8899 23.8683 64.3248 23.8582C64.6281 23.8731 64.9302 23.8094 65.2017 23.6732C65.4732 23.537 65.7049 23.3329 65.8742 23.0808C66.2167 22.4797 66.4004 21.8012 66.4079 21.1094C66.4154 20.4176 66.2464 19.7353 65.917 19.1269L65.9174 19.1273Z" fill="white"/>
<path d="M71.7856 22.6767C71.799 23.0079 71.9147 23.3268 72.1168 23.5896C72.4167 23.9105 72.9714 24.0709 73.7806 24.0709C74.1696 24.0882 74.5573 24.0159 74.9139 23.8598C75.0319 23.8075 75.1333 23.7238 75.2071 23.618C75.2809 23.5121 75.3244 23.3881 75.3328 23.2593C75.3412 23.1305 75.3142 23.0019 75.2548 22.8874C75.1953 22.7728 75.1057 22.6767 74.9956 22.6095C74.7699 22.4687 73.9303 22.2266 72.4767 21.8829C71.4302 21.6238 70.6929 21.3004 70.265 20.9128C70.0438 20.7002 69.8718 20.4418 69.7608 20.1557C69.6499 19.8697 69.6028 19.5629 69.6227 19.2567C69.6209 18.8403 69.7097 18.4286 69.883 18.05C70.0563 17.6714 70.3099 17.3351 70.6262 17.0643C71.2953 16.4533 72.2365 16.1477 73.4501 16.1475C74.4344 16.1047 75.4105 16.3431 76.2643 16.8345C76.9896 17.2937 77.4059 18.0865 77.5134 19.2129H75.1049C75.0878 18.9479 74.9968 18.693 74.8424 18.477C74.5768 18.1505 74.125 17.9871 73.4869 17.9869C73.0966 17.9541 72.7054 18.0395 72.3643 18.2321C72.2656 18.293 72.1834 18.3773 72.1251 18.4775C72.0667 18.5778 72.034 18.6909 72.0298 18.8068C72.0233 18.9307 72.0536 19.0539 72.1169 19.1606C72.1803 19.2673 72.2738 19.3529 72.3858 19.4066C73.2035 19.6995 74.0445 19.9227 74.8999 20.0739C75.6962 20.2196 76.44 20.5722 77.0568 21.0965C77.2889 21.32 77.4718 21.5895 77.594 21.8876C77.7163 22.1858 77.775 22.5061 77.7666 22.8282C77.7779 23.2538 77.6919 23.6764 77.5151 24.0637C77.3383 24.451 77.0753 24.7928 76.7464 25.0631C76.0662 25.6402 75.0151 25.9289 73.593 25.9291C72.1434 25.9291 71.073 25.6235 70.3817 25.0122C70.0462 24.7242 69.7791 24.3652 69.5998 23.9611C69.4204 23.557 69.3333 23.118 69.3448 22.676L71.7856 22.6767Z" fill="white"/>
<path d="M78.7188 16.4082H81.1606V25.6172H78.7188V16.4082Z" fill="white"/>
<path d="M90.7454 17.4948C91.4668 18.4693 91.8317 19.662 91.779 20.8733C91.828 22.1373 91.4708 23.3838 90.7598 24.4301C90.218 25.1185 89.4495 25.5924 88.591 25.7672C87.7326 25.942 86.8399 25.8065 86.072 25.3848C85.7178 25.1257 85.4129 24.8052 85.1719 24.4385V25.5958H82.7969V13H85.2053V17.5878C85.4733 17.1964 85.8175 16.863 86.2172 16.6077C86.7202 16.3084 87.2993 16.1616 87.8841 16.1852C88.4308 16.1602 88.9755 16.266 89.4732 16.4938C89.9708 16.7215 90.407 17.0647 90.7454 17.4948ZM88.7327 23.1048C89.1039 22.5144 89.2853 21.8245 89.2525 21.1278C89.2693 20.5758 89.1827 20.0256 88.9969 19.5055C88.8739 19.1343 88.6319 18.814 88.3086 18.5941C87.9852 18.3742 87.5984 18.2669 87.208 18.2889C86.8173 18.264 86.4292 18.3668 86.102 18.5816C85.7747 18.7964 85.5262 19.1117 85.3936 19.4801C85.2062 20.0055 85.1195 20.5616 85.1381 21.1191C85.1112 21.8109 85.2955 22.4944 85.6663 23.079C85.8446 23.3367 86.0866 23.5438 86.3687 23.68C86.6509 23.8163 86.9636 23.877 87.2762 23.8564C87.5632 23.867 87.848 23.8034 88.1032 23.6717C88.3584 23.54 88.575 23.3448 88.7327 23.1048Z" fill="white"/>
<path d="M95.1948 16.3867V21.9379C95.174 22.3406 95.2369 22.7434 95.3795 23.1207C95.598 23.589 96.0268 23.8231 96.6657 23.8231C97.0149 23.8531 97.3648 23.773 97.6663 23.5942C97.9679 23.4154 98.2059 23.1468 98.3472 22.826C98.5203 22.3706 98.5999 21.8851 98.5814 21.3983V16.3867H101.023V25.596H98.6817V24.2948C98.6594 24.3229 98.6037 24.4074 98.5145 24.5483C98.4265 24.6872 98.3186 24.8124 98.1943 24.92C97.8792 25.2197 97.5085 25.4551 97.1032 25.6127C96.7053 25.7439 96.2881 25.8068 95.8692 25.7987C94.5089 25.7987 93.5933 25.3087 93.1226 24.3286C92.8188 23.5698 92.6836 22.7541 92.7265 21.9379V16.3867H95.1948Z" fill="white"/>
<path d="M107.657 16.1668C107.688 16.1698 107.757 16.1742 107.864 16.1795V18.6469C107.712 18.6299 107.576 18.6188 107.458 18.6134C107.34 18.6077 107.244 18.6047 107.171 18.6047C106.202 18.6047 105.551 18.9201 105.219 19.551C105.002 20.069 104.907 20.6296 104.94 21.1901V25.5919H102.516V16.3822H104.813V17.9879C105.069 17.5201 105.396 17.0954 105.783 16.7291C106.282 16.3354 106.906 16.1344 107.541 16.1628C107.588 16.1625 107.626 16.1641 107.657 16.1668Z" fill="white"/>
<path d="M122.856 16.5347C123.289 16.779 123.653 17.1295 123.913 17.553V13H126.354V25.5969H124.013V24.321C123.727 24.8098 123.323 25.2193 122.838 25.5122C122.333 25.7756 121.769 25.9037 121.199 25.8839C120.677 25.8881 120.161 25.7727 119.69 25.5466C119.219 25.3204 118.806 24.9896 118.483 24.5793C117.722 23.6332 117.329 22.4427 117.379 21.2292C117.379 19.6579 117.741 18.4217 118.465 17.5205C118.808 17.0821 119.25 16.7309 119.754 16.4957C120.259 16.2604 120.812 16.1477 121.368 16.1668C121.888 16.1572 122.401 16.2841 122.856 16.5347ZM123.448 23.0951C123.825 22.51 124.011 21.8222 123.98 21.1268C123.98 20.0004 123.695 19.1951 123.126 18.7107C122.788 18.4217 122.355 18.2656 121.91 18.2715C121.603 18.2512 121.297 18.3148 121.024 18.4555C120.751 18.5962 120.521 18.8086 120.36 19.07C120.034 19.6903 119.864 20.3809 119.865 21.0817C119.867 21.7825 120.039 22.4724 120.368 23.0914C120.532 23.3419 120.76 23.5445 121.028 23.6788C121.296 23.8131 121.594 23.8742 121.893 23.8561C122.195 23.8723 122.497 23.811 122.769 23.678C123.041 23.545 123.275 23.3447 123.448 23.0961V23.0951Z" fill="white"/>
<path d="M114.181 25.6023C114.181 25.6023 114.198 24.7326 114.181 24.5246C113.844 24.8867 113.456 25.1965 113.028 25.4438C112.49 25.7461 111.881 25.9002 111.264 25.8903C110.508 25.9187 109.769 25.6648 109.19 25.1778C108.912 24.9234 108.694 24.6102 108.553 24.2609C108.411 23.9117 108.349 23.5353 108.372 23.1591C108.372 22.0294 108.81 21.2116 109.688 20.7058C110.352 20.3771 111.072 20.1769 111.811 20.1158L112.635 20.0154C112.963 19.9871 113.285 19.9163 113.595 19.8047C113.743 19.761 113.873 19.6712 113.966 19.5484C114.059 19.4255 114.111 19.2761 114.113 19.1219C114.129 18.9675 114.1 18.8117 114.029 18.6733C113.959 18.535 113.85 18.4199 113.715 18.3419C113.349 18.1781 112.95 18.1045 112.549 18.1271C112.327 18.104 112.103 18.1297 111.891 18.2025C111.68 18.2753 111.488 18.3934 111.327 18.5486C111.14 18.7943 111.022 19.0852 110.985 19.3916H108.667C108.686 18.6776 108.922 17.9865 109.344 17.4103C109.982 16.6012 111.077 16.1966 112.629 16.1963C113.562 16.1788 114.485 16.384 115.322 16.7948C116.106 17.1942 116.499 17.9473 116.499 19.054V23.2688C116.499 23.5612 116.504 25.1865 116.516 25.6027L114.181 25.6023ZM114.105 21.1357C113.958 21.2278 113.802 21.3053 113.639 21.3671C113.429 21.44 113.214 21.4951 112.994 21.5317L112.447 21.6321C112.064 21.6817 111.691 21.7929 111.343 21.9612C111.162 22.0604 111.013 22.2089 110.912 22.3894C110.811 22.5699 110.764 22.7751 110.775 22.9815C110.759 23.1465 110.783 23.3128 110.843 23.4672C110.903 23.6217 110.999 23.7599 111.122 23.8709C111.363 24.057 111.661 24.1538 111.965 24.1449C112.484 24.1468 112.991 23.9879 113.416 23.69C113.858 23.3862 114.088 22.8326 114.105 22.0291L114.105 21.1357Z" fill="white"/>
<path d="M133.259 25.6023C133.259 25.6023 133.276 24.7326 133.259 24.5246C132.923 24.8867 132.534 25.1965 132.106 25.4438C131.568 25.7461 130.959 25.9002 130.342 25.8903C129.586 25.9189 128.847 25.6649 128.268 25.1778C127.99 24.9234 127.772 24.6102 127.631 24.2609C127.489 23.9117 127.427 23.5353 127.45 23.1591C127.45 22.0294 127.889 21.2116 128.766 20.7058C129.43 20.3771 130.151 20.1769 130.889 20.1158L131.713 20.0154C132.041 19.9872 132.363 19.9163 132.673 19.8047C132.821 19.761 132.951 19.6712 133.044 19.5484C133.137 19.4255 133.189 19.2761 133.191 19.1219C133.207 18.9675 133.178 18.8117 133.107 18.6733C133.037 18.535 132.928 18.4199 132.794 18.3419C132.428 18.1781 132.028 18.1045 131.627 18.1271C131.405 18.104 131.181 18.1297 130.97 18.2025C130.758 18.2753 130.566 18.3934 130.405 18.5486C130.219 18.7943 130.101 19.0852 130.063 19.3916H127.745C127.764 18.6777 128 17.9866 128.422 17.4103C129.06 16.6012 130.155 16.1966 131.707 16.1963C132.64 16.1788 133.563 16.384 134.4 16.7948C135.184 17.1942 135.577 17.9473 135.577 19.054V23.2688C135.577 23.5612 135.582 25.1865 135.594 25.6027L133.259 25.6023ZM133.183 21.1357C133.036 21.2278 132.88 21.3053 132.718 21.3671C132.507 21.44 132.292 21.4951 132.072 21.5317L131.525 21.6321C131.142 21.6817 130.769 21.7929 130.422 21.9612C130.24 22.0604 130.091 22.2089 129.99 22.3894C129.889 22.5699 129.842 22.7751 129.853 22.9815C129.837 23.1465 129.861 23.3128 129.921 23.4672C129.981 23.6217 130.077 23.7599 130.2 23.8709C130.441 24.057 130.739 24.1538 131.043 24.1449C131.562 24.1468 132.069 23.9879 132.494 23.69C132.936 23.3862 133.166 22.8326 133.183 22.0291L133.183 21.1357Z" fill="white"/>
<path d="M79.9041 15.652C80.6364 15.652 81.2301 15.0583 81.2301 14.326C81.2301 13.5937 80.6364 13 79.9041 13C79.1718 13 78.5781 13.5937 78.5781 14.326C78.5781 15.0583 79.1718 15.652 79.9041 15.652Z" fill="white"/>
</svg>
