<svg width="177" height="40" viewBox="0 0 177 40" fill="none" xmlns="http://www.w3.org/2000/svg">
<rect x="0.5" y="39.5" width="39" height="176" rx="11.5" transform="rotate(-90 0.5 39.5)" fill="#FF6621" stroke="#CCD8E5" stroke-linecap="round" stroke-linejoin="round"/>
<path d="M75.5386 21.4037H65.2335C65.709 23.3385 67.2749 24.7977 69.3162 24.7977C70.464 24.7977 71.5953 24.3059 72.3495 23.4532L74.8418 23.5106C73.7432 25.593 71.6527 26.9293 69.226 26.9293C65.6844 26.9293 62.897 23.855 62.897 20.3789C62.897 16.7881 65.6352 13.845 69.2752 13.845C72.8004 13.845 75.6124 16.7471 75.6124 20.2477C75.6042 20.6249 75.5796 21.0348 75.5386 21.4037ZM69.2424 15.9683C67.2257 15.9683 65.3565 17.5587 65.2253 19.6083H73.2595C73.1366 17.5751 71.2756 15.9683 69.2424 15.9683ZM85.8602 26.6178V19.8624C85.8602 17.7555 85.2289 15.9765 82.7531 15.9765C80.4658 15.9765 79.4738 17.7473 79.4738 19.846V26.6259H77.1455V14.1811H79.3262V15.501H79.3672C80.269 14.3123 81.5725 13.8368 83.0072 13.8368C84.778 13.8368 86.4422 14.5336 87.4096 16.0585C88.0081 17.0013 88.1967 18.1408 88.1967 19.2476V26.6178H85.8602ZM100.609 26.6178V24.8469H100.568C99.5348 26.2898 97.8951 26.9293 96.1653 26.9293C92.4351 26.9293 89.6969 24.1501 89.6969 20.4445C89.6969 16.7143 92.3941 13.8368 96.1653 13.8368C97.7312 13.8368 99.3954 14.4352 100.387 15.6977H100.428V10H102.757V26.6178H100.609ZM96.2965 15.9683C93.8288 15.9683 92.0334 17.985 92.0334 20.4199C92.0334 22.7482 93.9026 24.8059 96.2801 24.8059C98.7068 24.8059 100.609 22.8302 100.609 20.4199C100.609 17.9277 98.8379 15.9683 96.2965 15.9683ZM109.52 30.7742H107.102L108.914 26.3718L103.954 14.1811H106.47L110.135 23.8386L113.882 14.1811H116.398L109.52 30.7742ZM123.039 26.9293C119.374 26.9293 116.325 23.9861 116.325 20.3051C116.325 16.6405 119.448 13.8368 123.039 13.8368C126.679 13.8368 129.753 16.6651 129.753 20.3461C129.753 23.8959 126.81 26.9293 123.039 26.9293ZM123.039 15.9683C120.612 15.9683 118.653 17.9441 118.653 20.3707C118.653 22.7974 120.604 24.7977 123.039 24.7977C125.49 24.7977 127.425 22.781 127.425 20.3543C127.417 17.9277 125.457 15.9683 123.039 15.9683ZM131.655 26.6178V10H134V26.6178H131.655ZM45.3119 24.1665C45.4103 24.56 45.5414 24.8879 45.689 25.1339C45.8366 25.3798 46.0333 25.593 46.2547 25.7979C46.9925 26.4456 47.9271 26.7735 49.0339 26.7735C50.1324 26.7735 51.1572 26.503 52.0918 25.9865V23.7484C51.1244 24.3141 50.198 24.6092 49.329 24.6092C48.1485 24.6092 47.5336 23.8878 47.5336 22.4613V16.37H51.4523V14.2139H47.5582V10.2214H45.2463V14.2057H43V16.3618H45.1479V21.8874C45.1479 23.0105 45.2053 23.773 45.3119 24.1665ZM59.4374 16.2634C60.1588 16.2634 60.9541 16.6569 61.7985 17.4522L63.0692 15.3452C62.0362 14.4024 60.7901 13.9679 60.0604 13.9679H59.8965C59.0603 13.9679 57.6584 13.9679 56.527 15.8125L56.486 15.8863L56.4942 14.2139H54.0758V26.544H56.4942V20.1002C56.4942 19.0672 56.7812 18.1654 57.3632 17.403C57.9453 16.6487 58.6422 16.2634 59.4374 16.2634Z" fill="white"/>
</svg>
