<svg width="177" height="40" viewBox="0 0 177 40" fill="none" xmlns="http://www.w3.org/2000/svg">
<rect x="0.5" y="39.5" width="39" height="176" rx="11.5" transform="rotate(-90 0.5 39.5)" fill="#F4F7FE" stroke="#CCD8E5" stroke-linecap="round" stroke-linejoin="round"/>
<path d="M113.29 17.1859C113.689 14.4164 112.263 11.6033 109.603 10.3578C106.943 9.11784 103.873 9.83342 102.01 11.9201C98.3392 12.4499 95.0016 14.7715 93.3192 18.3876C90.6644 24.0904 93.1225 30.8693 98.8199 33.5295C104.512 36.1897 111.28 33.7207 113.934 28.0125C115.611 24.3854 115.24 20.3377 113.29 17.1859Z" fill="#231F1F"/>
<path d="M106.859 7.94841C107.346 8.17237 107.93 7.94295 108.176 7.42948C108.416 6.91601 108.22 6.31514 107.728 6.08572C107.242 5.86176 106.657 6.09118 106.411 6.60465C106.177 7.11812 106.373 7.71899 106.859 7.94841Z" fill="#231F1F"/>
<path d="M113.124 10.8683C113.61 11.0923 114.195 10.8629 114.441 10.3494C114.681 9.83593 114.484 9.23506 113.993 9.00564C113.506 8.78168 112.922 9.0111 112.676 9.52457C112.441 10.0435 112.643 10.6444 113.124 10.8683Z" fill="#231F1F"/>
<path d="M71.1274 30.1728C69.3302 30.1728 68.7785 29.5719 68.7785 27.7747V23.6451C68.7785 22.061 68.2432 21.3509 66.8776 21.3509C65.6977 21.3509 65.0586 22.1429 65.0586 23.5796V30.1782H63.693C61.9614 30.1782 61 29.4954 61 27.7802V23.6506C61 20.2639 63.2451 18.0625 66.9868 18.0625C71.1547 18.0625 72.8426 20.2693 72.8426 23.7544V30.1782L71.1274 30.1728Z" fill="#5D3EBC"/>
<path d="M79.0685 30.1638C77.8504 30.1638 76.9054 29.3281 76.9054 27.9133V19.4356L75.5616 19.8616C75.2612 19.9436 74.9608 19.9873 74.6822 19.9873C73.8246 19.9873 73.1636 19.583 73.038 18.8729L72.7812 17.4581L76.6487 15.8303C77.2878 15.5518 78.1071 15.377 79.0194 15.377C79.9808 15.377 80.964 16.0598 80.964 17.2178V30.1474H79.0685V30.1638Z" fill="#5D3EBC"/>
<path d="M88.381 30.1638C87.1629 30.1638 86.2179 29.3281 86.2179 27.9133V19.4356L84.8741 19.8616C84.5737 19.9436 84.2733 19.9873 83.9947 19.9873C83.1371 19.9873 82.4761 19.583 82.3505 18.8729L82.0938 17.4581L85.9612 15.8303C86.6003 15.5518 87.4196 15.377 88.3319 15.377C89.2933 15.377 90.2765 16.0598 90.2765 17.2178V30.1474H88.381V30.1638Z" fill="#5D3EBC"/>
<path d="M113.29 17.1761C113.689 14.4067 112.263 11.5935 109.603 10.3481C106.943 9.10808 103.873 9.82366 102.01 11.9103C98.3392 12.4402 95.0016 14.7562 93.3192 18.3779C90.6644 24.0807 93.1225 30.8596 98.8199 33.5198C104.517 36.18 111.28 33.7109 113.934 28.0027C115.611 24.3811 115.24 20.3334 113.29 17.1761Z" fill="white"/>
<path d="M112.745 18.9997C111.227 22.2607 107.365 23.6701 104.114 22.146C100.859 20.6275 99.455 16.7546 100.968 13.499C102.487 10.2379 106.349 8.82859 109.604 10.3526C112.854 11.8712 114.264 15.7386 112.745 18.9997Z" fill="#231F1F"/>
<path d="M113.934 28C111.279 33.7028 104.511 36.1718 98.819 33.5171C93.1271 30.8569 90.6636 24.0834 93.3183 18.3752C95.9731 12.6724 102.741 10.2034 108.433 12.8581C114.13 15.5183 116.588 22.2972 113.934 28Z" fill="#5D3EBC"/>
<path d="M109.969 16.3536C109.297 17.7957 107.588 18.4184 106.145 17.7465C104.703 17.0746 104.086 15.3594 104.752 13.9173C105.424 12.4752 107.134 11.8525 108.576 12.5244C110.013 13.2017 110.636 14.9169 109.969 16.3536Z" fill="#FFD10D"/>
<path d="M101.382 23.0499C100.88 24.1369 99.5851 24.6067 98.5036 24.0987C97.4165 23.5961 96.9468 22.3015 97.4548 21.2145C97.9573 20.1275 99.2519 19.6577 100.333 20.1657C101.415 20.6737 101.885 21.9683 101.382 23.0499Z" fill="#FFD10D"/>
<path d="M99.9129 16.4122C99.5961 17.0896 98.7986 17.3791 98.1212 17.0623C97.4494 16.7454 97.1544 15.9425 97.4712 15.2706C97.788 14.5932 98.5856 14.3037 99.2629 14.6205C99.9348 14.9264 100.224 15.7349 99.9129 16.4122Z" fill="#FFD10D"/>
<path d="M97.2332 27.5431C96.9164 28.2204 96.1189 28.5099 95.4416 28.1931C94.7697 27.8763 94.4747 27.0733 94.7915 26.4014C95.1084 25.7241 95.9059 25.4346 96.5832 25.7514C97.2606 26.0682 97.5446 26.8712 97.2332 27.5431Z" fill="#FFD10D"/>
<path d="M105.156 24.8248C104.653 25.9118 105.117 27.2064 106.204 27.7089C107.291 28.2115 108.58 27.7472 109.083 26.6602C109.586 25.5731 109.121 24.2785 108.034 23.776C106.953 23.268 105.658 23.7323 105.156 24.8248Z" fill="#FFD10D"/>
<path d="M111.174 21.6779C110.858 22.3552 111.152 23.1527 111.824 23.4696C112.496 23.7864 113.299 23.4914 113.616 22.8195C113.933 22.1422 113.638 21.3447 112.966 21.0279C112.289 20.711 111.491 21.006 111.174 21.6779Z" fill="#FFD10D"/>
<path d="M104.393 30.8869C104.076 31.5642 104.371 32.3617 105.043 32.6786C105.715 32.9954 106.518 32.7004 106.835 32.0285C107.152 31.3512 106.857 30.5537 106.185 30.2368C105.513 29.92 104.71 30.215 104.393 30.8869Z" fill="#FFD10D"/>
<path d="M108.477 12.7327C108.379 12.6835 108.275 12.6453 108.172 12.6016L98.3828 33.6375C98.4811 33.6866 98.5795 33.7358 98.6778 33.7849C98.7761 33.8341 98.8799 33.8723 98.9837 33.916L108.772 12.8747C108.68 12.8255 108.581 12.7818 108.477 12.7327Z" fill="#231F1F"/>
</svg>
