<svg width="9" height="9" viewBox="0 0 9 9" fill="none" xmlns="http://www.w3.org/2000/svg">
<path d="M7.31618 0.209734C7.59583 -0.0699115 8.04923 -0.0699115 8.32888 0.209734C8.60829 0.489399 8.60845 0.942859 8.32888 1.22243L5.25466 4.29567L8.32888 7.36989C8.60849 7.64951 8.60844 8.10293 8.32888 8.38259C8.04923 8.66223 7.59583 8.66223 7.31618 8.38259L4.2693 5.33571L1.22243 8.38259C0.942832 8.66218 0.489392 8.66209 0.209734 8.38259C-0.0699115 8.10294 -0.0699115 7.64954 0.209734 7.36989L3.28298 4.29567L0.209734 1.22243C-0.0699115 0.942784 -0.0699115 0.48938 0.209734 0.209734C0.48938 -0.0699115 0.942784 -0.0699115 1.22243 0.209734L4.2693 3.25661L7.31618 0.209734Z" fill="#023E7D"/>
</svg>
