<svg width="32" height="28" viewBox="0 0 32 28" fill="none" xmlns="http://www.w3.org/2000/svg">
<path d="M13.6342 3.28184L2.35685 22.1084C2.12434 22.5111 2.00131 22.9676 2.00001 23.4326C1.99871 23.8975 2.11918 24.3547 2.34943 24.7587C2.57968 25.1626 2.9117 25.4993 3.31244 25.7351C3.71318 25.9709 4.16868 26.0976 4.63362 26.1027H27.1882C27.6532 26.0976 28.1087 25.9709 28.5094 25.7351C28.9102 25.4993 29.2422 25.1626 29.4724 24.7587C29.7027 24.3547 29.8231 23.8975 29.8218 23.4326C29.8205 22.9676 29.6975 22.5111 29.465 22.1084L18.1877 3.28184C17.9503 2.89053 17.6161 2.56701 17.2173 2.34248C16.8185 2.11795 16.3686 2 15.9109 2C15.4533 2 15.0033 2.11795 14.6045 2.34248C14.2057 2.56701 13.8715 2.89053 13.6342 3.28184Z" fill="#FF9F9F" stroke="#E31A1A" stroke-width="2.66288" stroke-linecap="round" stroke-linejoin="round"/>
<path d="M15.9141 10.126V15.4517" stroke="#E31A1A" stroke-width="2.66288" stroke-linecap="round" stroke-linejoin="round"/>
<path d="M15.9141 20.7783H15.9275" stroke="#E31A1A" stroke-width="2.66288" stroke-linecap="round" stroke-linejoin="round"/>
</svg>
