<svg width="95" height="16" viewBox="0 0 95 16" fill="none" xmlns="http://www.w3.org/2000/svg">
<path d="M6.60182 3.46085C7.05723 3.65204 7.45151 3.96442 7.74181 4.36402C7.9798 4.67507 8.13857 5.03934 8.20444 5.42541C8.27286 6.01623 8.30103 6.61101 8.28874 7.20565V12.6176H5.83011V7.0113C5.84798 6.59617 5.7615 6.18318 5.57857 5.81009C5.45808 5.59251 5.27594 5.41541 5.05506 5.30107C4.83419 5.18674 4.58443 5.14026 4.33721 5.1675C4.06377 5.15033 3.79022 5.19941 3.5398 5.31059C3.28938 5.42176 3.0695 5.59173 2.89883 5.80607C2.53947 6.34323 2.36712 6.98384 2.40844 7.6288V12.619H0V0.046875H2.40844V4.19475C2.71273 3.85482 3.09514 3.59399 3.52269 3.43475C4.01388 3.25186 4.53428 3.16004 5.0584 3.16381C5.58772 3.15687 6.11289 3.25795 6.60182 3.46085Z" fill="white"/>
<path d="M15.7439 3.59185C16.393 3.88536 16.945 4.35786 17.3351 4.95395C17.7214 5.52453 17.9723 6.17573 18.0687 6.85796C18.1425 7.46411 18.1691 8.0751 18.148 8.68537H11.4411C11.4786 9.60928 11.7996 10.257 12.4042 10.6285C12.8046 10.8683 13.2653 10.9885 13.7318 10.9747C14.1082 11.0042 14.4846 10.9191 14.8117 10.7306C15.1387 10.5421 15.4011 10.2591 15.5643 9.9187H18.0225C17.9115 10.555 17.5984 11.1387 17.1298 11.5832C16.3046 12.4788 15.1498 12.9266 13.6653 12.9266C12.484 12.9424 11.3351 12.5411 10.4206 11.7933C9.48394 11.0377 9.01562 9.80876 9.01562 8.10635C9.01562 6.5112 9.43844 5.28802 10.2841 4.43681C10.7164 4.00992 11.2317 3.6763 11.7982 3.45662C12.3647 3.23694 12.9702 3.13586 13.5773 3.15966C14.322 3.14818 15.0606 3.29552 15.7439 3.59185ZM12.1419 5.6718C11.7813 6.06616 11.5564 6.56567 11.5003 7.09713H15.6482C15.646 6.82369 15.5879 6.5536 15.4776 6.30339C15.3672 6.05318 15.207 5.82814 15.0066 5.64204C14.6084 5.30569 14.0997 5.12873 13.5786 5.14529C13.3157 5.12919 13.0523 5.1677 12.805 5.25837C12.5577 5.34904 12.3318 5.48992 12.1416 5.67214L12.1419 5.6718Z" fill="white"/>
<path d="M26.7652 4.39518C27.5163 5.1893 27.8918 6.35527 27.8918 7.89311C27.8918 9.51502 27.5247 10.7512 26.7906 11.6018C26.4445 12.0143 26.0097 12.3433 25.5186 12.5642C25.0276 12.7851 24.4929 12.8923 23.9547 12.8776C23.2986 12.9023 22.6527 12.7091 22.1179 12.3283C21.8093 12.0785 21.5448 11.7786 21.3355 11.4412V16.0002H18.9531V3.40671H21.2596V4.76715C21.4838 4.40835 21.7653 4.08869 22.0928 3.82084C22.6457 3.40485 23.3228 3.18752 24.0145 3.204C24.5313 3.19604 25.0438 3.29815 25.5181 3.50353C25.9923 3.70891 26.4175 4.01285 26.7652 4.39518ZM24.9174 6.12725C24.7534 5.85714 24.5179 5.63762 24.237 5.49299C23.9561 5.34836 23.6406 5.28423 23.3255 5.30771C22.928 5.28609 22.5346 5.39605 22.2059 5.62056C21.8773 5.84508 21.6318 6.17165 21.5074 6.54974C21.3208 7.08697 21.2339 7.6538 21.2512 8.22227C21.2512 9.29269 21.5383 10.0447 22.1125 10.4782C22.4638 10.7347 22.8899 10.8683 23.3248 10.8582C23.6281 10.8731 23.9302 10.8094 24.2017 10.6732C24.4732 10.537 24.7049 10.3329 24.8742 10.0808C25.2167 9.47967 25.4004 8.80119 25.4079 8.1094C25.4154 7.4176 25.2464 6.73531 24.917 6.12692L24.9174 6.12725Z" fill="white"/>
<path d="M30.7856 9.6767C30.799 10.0079 30.9147 10.3268 31.1168 10.5896C31.4167 10.9105 31.9714 11.0709 32.7806 11.0709C33.1696 11.0882 33.5573 11.0159 33.9139 10.8598C34.0319 10.8075 34.1333 10.7238 34.2071 10.618C34.2809 10.5121 34.3244 10.3881 34.3328 10.2593C34.3412 10.1305 34.3142 10.0019 34.2548 9.88738C34.1953 9.77283 34.1057 9.67672 33.9956 9.60945C33.7699 9.46874 32.9303 9.22656 31.4767 8.88291C30.4302 8.62378 29.6929 8.30042 29.265 7.91284C29.0438 7.70018 28.8718 7.4418 28.7608 7.15575C28.6499 6.86969 28.6028 6.56286 28.6227 6.2567C28.6209 5.84034 28.7097 5.42856 28.883 5.04998C29.0563 4.67139 29.3099 4.33505 29.6262 4.06434C30.2953 3.45331 31.2365 3.14768 32.4501 3.14746C33.4344 3.10475 34.4105 3.34306 35.2643 3.83454C35.9896 4.29371 36.4059 5.08648 36.5134 6.21288H34.1049C34.0878 5.94788 33.9968 5.69297 33.8424 5.47697C33.5768 5.15049 33.125 4.98713 32.4869 4.98691C32.0966 4.9541 31.7054 5.03954 31.3643 5.2321C31.2656 5.29299 31.1834 5.3773 31.1251 5.47754C31.0667 5.57778 31.034 5.69088 31.0298 5.80679C31.0233 5.93074 31.0536 6.05386 31.1169 6.1606C31.1803 6.26734 31.2738 6.35293 31.3858 6.40656C32.2035 6.69951 33.0445 6.92275 33.8999 7.0739C34.6962 7.21957 35.44 7.57224 36.0568 8.09649C36.2889 8.32004 36.4718 8.58947 36.594 8.88762C36.7163 9.18578 36.775 9.50611 36.7666 9.82823C36.7779 10.2538 36.6919 10.6764 36.5151 11.0637C36.3383 11.451 36.0753 11.7928 35.7464 12.0631C35.0662 12.6402 34.0151 12.9289 32.593 12.9291C31.1434 12.9291 30.073 12.6235 29.3817 12.0122C29.0462 11.7242 28.7791 11.3652 28.5998 10.9611C28.4204 10.557 28.3333 10.118 28.3448 9.67602L30.7856 9.6767Z" fill="white"/>
<path d="M37.7188 3.4082H40.1606V12.6172H37.7188V3.4082Z" fill="white"/>
<path d="M49.7454 4.49477C50.4668 5.46927 50.8317 6.66196 50.779 7.87329C50.828 9.13733 50.4708 10.3838 49.7598 11.4301C49.218 12.1185 48.4495 12.5924 47.591 12.7672C46.7326 12.942 45.8399 12.8065 45.072 12.3848C44.7178 12.1257 44.4129 11.8052 44.1719 11.4385V12.5958H41.7969V0H44.2053V4.58776C44.4733 4.19636 44.8175 3.86302 45.2172 3.60765C45.7202 3.3084 46.2993 3.16163 46.8841 3.18517C47.4308 3.16021 47.9755 3.26601 48.4732 3.49377C48.9708 3.72153 49.407 4.06469 49.7454 4.49477ZM47.7327 10.1048C48.1039 9.51441 48.2853 8.82446 48.2525 8.12784C48.2693 7.57584 48.1827 7.02557 47.9969 6.50548C47.8739 6.13432 47.6319 5.81403 47.3086 5.59412C46.9852 5.37422 46.5984 5.26695 46.208 5.28889C45.8173 5.26403 45.4292 5.36676 45.102 5.58159C44.7747 5.79642 44.5262 6.11173 44.3936 6.48006C44.2062 7.0055 44.1195 7.56158 44.1381 8.11914C44.1112 8.81089 44.2955 9.49444 44.6663 10.079C44.8446 10.3367 45.0866 10.5438 45.3687 10.68C45.6509 10.8163 45.9636 10.877 46.2762 10.8564C46.5632 10.867 46.848 10.8034 47.1032 10.6717C47.3584 10.54 47.575 10.3448 47.7327 10.1048Z" fill="white"/>
<path d="M54.1948 3.38672V8.93786C54.174 9.34065 54.2369 9.74338 54.3795 10.1207C54.598 10.589 55.0268 10.8231 55.6657 10.8231C56.0149 10.8531 56.3648 10.773 56.6663 10.5942C56.9679 10.4154 57.2059 10.1468 57.3472 9.82597C57.5203 9.37062 57.5999 8.88508 57.5814 8.39829V3.38672H60.0233V12.596H57.6817V11.2948C57.6594 11.3229 57.6037 11.4074 57.5145 11.5483C57.4265 11.6872 57.3186 11.8124 57.1943 11.92C56.8792 12.2197 56.5085 12.4551 56.1032 12.6127C55.7053 12.7439 55.2881 12.8068 54.8692 12.7987C53.5089 12.7987 52.5933 12.3087 52.1226 11.3286C51.8188 10.5698 51.6836 9.75405 51.7265 8.93786V3.38672H54.1948Z" fill="white"/>
<path d="M66.6566 3.16682C66.6877 3.16983 66.757 3.17419 66.8637 3.17954V5.64686C66.7116 5.62991 66.5765 5.61877 66.4583 5.61341C66.3402 5.60773 66.2442 5.60472 66.171 5.60472C65.202 5.60472 64.5514 5.92015 64.2191 6.55103C64.0024 7.06897 63.907 7.62964 63.9404 8.19011V12.5919H61.5156V3.38225H63.8133V4.98788C64.0688 4.52013 64.3962 4.09538 64.7834 3.72913C65.2822 3.33538 65.9061 3.13435 66.5409 3.16281C66.5881 3.16248 66.6258 3.16415 66.6566 3.16682Z" fill="white"/>
<path d="M81.8565 3.53474C82.2892 3.77904 82.6526 4.12945 82.9125 4.55298V0H85.3544V12.5969H83.0129V11.321C82.7268 11.8098 82.3231 12.2193 81.8384 12.5122C81.3333 12.7756 80.7686 12.9037 80.1993 12.8839C79.6771 12.8881 79.1607 12.7727 78.6899 12.5466C78.2191 12.3204 77.8063 11.9896 77.4831 11.5793C76.7215 10.6332 76.3292 9.44274 76.3793 8.2292C76.3793 6.65791 76.7412 5.42169 77.4651 4.52052C77.808 4.0821 78.2497 3.73095 78.7542 3.49569C79.2587 3.26043 79.8116 3.14773 80.3679 3.16678C80.8877 3.15718 81.401 3.28406 81.8565 3.53474ZM82.4475 10.0951C82.8247 9.51003 83.0107 8.82223 82.9798 8.12684C82.9798 7.00045 82.6953 6.19507 82.1264 5.7107C81.7875 5.42166 81.3552 5.26557 80.9098 5.27149C80.6033 5.25122 80.297 5.31484 80.0239 5.45552C79.7508 5.59619 79.5212 5.80861 79.3597 6.06995C79.0337 6.69032 78.864 7.38089 78.8655 8.08171C78.8669 8.78253 79.0395 9.47239 79.3681 10.0914C79.5324 10.3419 79.76 10.5445 80.0278 10.6788C80.2955 10.8131 80.5941 10.8742 80.8931 10.8561C81.1955 10.8723 81.497 10.811 81.769 10.678C82.0411 10.545 82.2746 10.3447 82.4475 10.0961V10.0951Z" fill="white"/>
<path d="M73.1811 12.6023C73.1811 12.6023 73.1981 11.7326 73.1811 11.5246C72.8445 11.8867 72.4557 12.1965 72.0277 12.4438C71.4896 12.7461 70.8809 12.9002 70.2638 12.8903C69.508 12.9187 68.7687 12.6648 68.1899 12.1778C67.9119 11.9234 67.6942 11.6102 67.5526 11.2609C67.4111 10.9117 67.3493 10.5353 67.3717 10.1591C67.3717 9.02936 67.8104 8.2116 68.688 7.70583C69.3522 7.37706 70.0725 7.17685 70.8111 7.11575L71.635 7.01541C71.9626 6.98713 72.2853 6.91629 72.5947 6.80466C72.7425 6.76101 72.8726 6.67121 72.9658 6.54837C73.0591 6.42554 73.1106 6.27613 73.1128 6.12194C73.1286 5.96747 73.0995 5.81171 73.029 5.67335C72.9586 5.53499 72.8497 5.4199 72.7154 5.34187C72.3494 5.17814 71.9496 5.1045 71.5493 5.12712C71.3272 5.10397 71.1026 5.12969 70.8915 5.2025C70.6804 5.27531 70.4877 5.39344 70.3271 5.54859C70.1404 5.79432 70.0224 6.08524 69.9852 6.39155H67.6667C67.686 5.67764 67.9222 4.98654 68.3441 4.41027C68.9819 3.60121 70.0769 3.19657 71.6293 3.19635C72.5616 3.17884 73.4846 3.38399 74.3217 3.79478C75.1062 4.19418 75.4985 4.94726 75.4985 6.05404V10.2688C75.4985 10.5612 75.5042 12.1865 75.5156 12.6027L73.1811 12.6023ZM73.1051 8.13567C72.9578 8.22781 72.8019 8.30533 72.6395 8.36714C72.4294 8.44002 72.2135 8.49507 71.9942 8.53172L71.4473 8.63208C71.0641 8.68174 70.6913 8.79288 70.3434 8.96123C70.1622 9.06045 70.0126 9.20886 69.912 9.38936C69.8114 9.56987 69.7638 9.77512 69.7748 9.98148C69.7594 10.1465 69.7828 10.3128 69.843 10.4672C69.9032 10.6217 69.9986 10.7599 70.1217 10.8709C70.3626 11.057 70.6606 11.1538 70.965 11.1449C71.484 11.1468 71.991 10.9879 72.4161 10.69C72.8583 10.3862 73.0878 9.83262 73.1048 9.02913L73.1051 8.13567Z" fill="white"/>
<path d="M92.2591 12.6023C92.2591 12.6023 92.2762 11.7326 92.2591 11.5246C91.9226 11.8867 91.5338 12.1965 91.1058 12.4438C90.5677 12.7461 89.959 12.9002 89.3419 12.8903C88.5861 12.9189 87.8466 12.6649 87.268 12.1778C86.99 11.9234 86.7723 11.6102 86.6308 11.2609C86.4893 10.9117 86.4274 10.5353 86.4498 10.1591C86.4498 9.02936 86.8885 8.2116 87.766 7.70583C88.4302 7.37708 89.1506 7.17688 89.8892 7.11575L90.7131 7.01541C91.0408 6.98715 91.3634 6.91631 91.6728 6.80467C91.8207 6.76101 91.9507 6.67121 92.0439 6.54838C92.1372 6.42554 92.1887 6.27613 92.1909 6.12194C92.2067 5.96747 92.1776 5.81171 92.1072 5.67335C92.0367 5.53499 91.9278 5.4199 91.7935 5.34187C91.4276 5.17815 91.0277 5.10451 90.6274 5.12712C90.4053 5.10397 90.1808 5.12969 89.9696 5.2025C89.7585 5.27531 89.5658 5.39344 89.4051 5.54859C89.2185 5.79434 89.1006 6.08525 89.0633 6.39156H86.7448C86.7641 5.67765 87.0004 4.98656 87.4222 4.41027C88.06 3.60121 89.1551 3.19657 90.7074 3.19635C91.6397 3.17883 92.5627 3.38398 93.3998 3.79478C94.1843 4.19418 94.5766 4.94727 94.5766 6.05404V10.2688C94.5766 10.5612 94.5823 12.1865 94.5937 12.6027L92.2591 12.6023ZM92.1832 8.13567C92.0359 8.22779 91.8799 8.30532 91.7176 8.36714C91.5075 8.44002 91.2916 8.49507 91.0723 8.53172L90.5254 8.63208C90.1421 8.68175 89.7694 8.79289 89.4215 8.96123C89.2402 9.06045 89.0907 9.20886 88.9901 9.38936C88.8895 9.56987 88.8419 9.77512 88.8529 9.98148C88.8375 10.1465 88.8608 10.3128 88.9211 10.4672C88.9813 10.6217 89.0767 10.7599 89.1997 10.8709C89.4407 11.057 89.7387 11.1538 90.043 11.1449C90.5621 11.1468 91.069 10.9879 91.4941 10.69C91.9363 10.3862 92.1659 9.83262 92.1829 9.02913L92.1832 8.13567Z" fill="white"/>
<path d="M38.9041 2.65197C39.6364 2.65197 40.2301 2.0583 40.2301 1.32598C40.2301 0.593663 39.6364 0 38.9041 0C38.1718 0 37.5781 0.593663 37.5781 1.32598C37.5781 2.0583 38.1718 2.65197 38.9041 2.65197Z" fill="white"/>
</svg>
