<svg width="112" height="14" viewBox="0 0 112 14" fill="none" xmlns="http://www.w3.org/2000/svg">
<path fill-rule="evenodd" clip-rule="evenodd" d="M25.971 0.0253639C26.0217 0.0253639 26.0471 0.101448 26.0471 0.177535C26.0471 0.304347 25.9457 0.53261 25.8949 1.03986C25.8696 1.21739 25.8442 2.02899 25.7935 2.23188C25.7681 2.33333 25.7428 2.43478 25.6667 2.43478C25.5652 2.43478 25.5145 2.33333 25.5145 2.20652C25.5145 2.07971 25.4891 1.77536 25.413 1.5471C25.2862 1.26812 25.0833 1.03985 24.0942 0.938405C23.7899 0.913043 21.7355 0.887681 21.5326 0.887681C21.4565 0.887681 21.4312 0.938405 21.4312 1.06522V6.06159C21.4312 6.1884 21.4565 6.23913 21.5326 6.23913H22.0145C22.7754 6.23913 24.1703 6.23913 24.5 6.21377C24.9565 6.18841 25.2101 6.13768 25.3623 5.96014C25.4891 5.80797 25.5652 5.73189 25.6413 5.73189C25.692 5.73189 25.7428 5.75725 25.7428 5.88406C25.7428 5.98551 25.6413 6.28985 25.5906 6.89855C25.5652 7.25362 25.5145 7.93841 25.5145 8.06522C25.5145 8.21739 25.5145 8.42029 25.3877 8.42029C25.2862 8.42029 25.2609 8.3442 25.2609 8.26812C25.2609 8.09058 25.2609 7.91304 25.1848 7.65942C25.1087 7.4058 24.9312 7.10145 24.221 7.02536C23.7138 6.97464 21.8623 6.92391 21.558 6.92391C21.4565 6.92391 21.4312 6.97464 21.4312 7.05073V8.64855C21.4312 9.25725 21.4058 11.3623 21.4312 11.7428C21.4819 12.9601 21.7609 13.2138 23.4348 13.2391H23.587C24.0688 13.2391 24.8804 13.2391 25.3877 13.0362C25.8696 12.8333 26.0978 12.4783 26.2246 11.7428C26.25 11.5399 26.3007 11.4638 26.4022 11.4638C26.5036 11.4638 26.5036 11.6159 26.5036 11.7428C26.5036 11.8949 26.3514 13.1123 26.25 13.4928C26.1232 13.9746 25.971 13.9746 25.2355 13.9746C22.5217 13.9746 21.2536 13.8732 20.6957 13.8732H20.6449C20.6196 13.8732 20.2899 13.8986 19.9094 13.8986C19.5543 13.9239 19.1993 13.9239 18.8188 13.9239C18.6159 13.9239 18.5145 13.8986 18.5145 13.7717C18.5145 13.721 18.5399 13.6703 18.6667 13.6703C18.8442 13.6703 19.0471 13.6449 19.2246 13.5942C19.6051 13.5181 19.6812 13.1123 19.7572 12.6051C19.8333 11.9457 19.8587 10.8297 19.8587 9.43478V3.98188C19.8587 2.43478 19.8587 2.02898 19.8333 1.57246C19.808 0.963767 19.6558 0.659422 19.0217 0.53261C18.8696 0.507248 18.5652 0.481883 18.3877 0.481883C18.3116 0.481883 18.2355 0.456522 18.2355 0.380435C18.2355 0.278986 18.337 0.228259 18.5399 0.228259C19.3514 0.228259 20.442 0.278987 20.6196 0.278987H21.279C22.3949 0.278987 24.6014 0.278986 24.9058 0.253623C25.2609 0.228261 25.5652 0.2029 25.7174 0.152175C25.8188 0.101451 25.8949 0.0253639 25.971 0.0253639ZM0.304347 0.456523C1.1413 0.456523 2.30797 0.507246 2.38406 0.507246C2.81522 0.507246 3.55073 0.456523 4.38768 0.456523C7.43116 0.456523 8.09058 2.23188 8.09058 3.11957C8.09058 4.56522 7.22826 5.4529 6.34058 6.31522C7.71014 6.72101 9.53623 7.98913 9.53623 10.0688C9.53623 11.971 7.98913 13.9239 4.81884 13.9239C4.38768 13.9239 2.51087 13.8225 2.3587 13.8225C2.25725 13.8225 1.09058 13.8732 0.55797 13.8732C0.355072 13.8732 0.253623 13.8478 0.253623 13.721C0.253623 13.6703 0.278985 13.6196 0.405797 13.6196C0.583333 13.6196 0.786233 13.5942 0.963769 13.5435C1.3442 13.4674 1.42029 13.087 1.49638 12.5543C1.57246 11.8949 1.59783 10.6775 1.59783 9.20652V4.59058C1.59783 2.68841 1.59783 2.25724 1.57246 1.75C1.5471 1.1413 1.39493 0.862317 0.786232 0.735506C0.634058 0.710143 0.32971 0.684782 0.152174 0.684782C0.0760866 0.684782 0 0.659421 0 0.583334C0 0.481885 0.101448 0.456523 0.304347 0.456523ZM98.1268 0.0253639C98.279 0.0253639 98.5833 0.431158 98.7609 0.608694C99.0399 0.913042 101.779 3.80435 104.594 6.74638C106.42 8.64855 108.424 10.8297 109.007 11.413L108.804 2.33333C108.779 1.16667 108.652 0.786232 108.094 0.634058C107.79 0.583333 107.486 0.557973 107.207 0.53261C107.08 0.53261 107.054 0.481886 107.054 0.405799C107.054 0.304349 107.207 0.278987 107.435 0.278987C108.272 0.278987 109.134 0.329711 109.337 0.329711C109.54 0.329711 110.149 0.278987 110.909 0.278987C111.112 0.278987 111.239 0.304349 111.239 0.405799C111.239 0.481886 111.163 0.53261 111.036 0.53261C110.935 0.53261 110.808 0.532609 110.605 0.583334C109.996 0.710146 109.92 1.09058 109.92 2.18116L109.895 12.6558C109.895 13.8478 109.87 13.9239 109.717 13.9239C109.565 13.9239 109.362 13.721 108.373 12.7826C108.17 12.6051 105.533 9.96739 103.58 7.93841C101.957 6.23913 100.359 4.53986 98.7862 2.81522L99.0145 11.3877C99.0399 12.8587 99.2428 13.3152 99.7246 13.4674C100.029 13.5435 100.333 13.5688 100.638 13.5688C100.739 13.5688 100.79 13.5942 100.79 13.6703C100.79 13.7717 100.688 13.8225 100.46 13.8225C99.4203 13.8225 98.6848 13.7717 98.5072 13.7717C98.3297 13.7717 97.5688 13.8225 96.7319 13.8225C96.5543 13.8225 96.4275 13.7971 96.4275 13.6703C96.4275 13.5942 96.4783 13.5688 96.5797 13.5688C96.7319 13.5688 97.0616 13.5435 97.3406 13.4674C97.7971 13.3406 97.8986 12.8333 97.8986 11.1848L97.9239 0.938405C97.9239 0.202898 97.9746 0.0253639 98.1268 0.0253639ZM67.9203 0.0253639C68.0471 0.0253639 68.0978 0.177536 68.1486 0.507246L69.3659 11.5906C69.442 12.25 69.5688 13.2391 70.3551 13.4928C70.8877 13.6449 71.3696 13.6449 71.5471 13.6449C71.6486 13.6449 71.6993 13.6703 71.6993 13.7464C71.6993 13.8478 71.5471 13.8986 71.3188 13.8986C70.913 13.8986 68.9348 13.8478 68.2754 13.7971C67.8442 13.7717 67.7681 13.721 67.7681 13.6196C67.7681 13.5435 67.7935 13.5181 67.8949 13.4928C67.9964 13.4674 67.9964 13.163 67.971 12.8333L67.0833 3.52536H67.0326L62.5688 12.9094C62.1884 13.6957 62.1377 13.8732 61.9601 13.8732C61.8333 13.8732 61.7319 13.6957 61.4022 13.0362C60.9203 12.1485 59.3478 9.02898 59.2717 8.85145C59.0942 8.52174 57.0652 4.18478 56.8623 3.7029H56.7862L56.0507 12.0725C56.0254 12.3515 56.0254 12.6812 56.0254 12.9855C56.0254 13.2645 56.2283 13.4928 56.5072 13.5435C56.8116 13.6196 57.0906 13.6449 57.192 13.6449C57.2681 13.6449 57.3442 13.6703 57.3442 13.7464C57.3442 13.8732 57.2428 13.8986 57.0145 13.8986C56.3297 13.8986 55.4674 13.8478 55.3152 13.8478C55.163 13.8478 54.2754 13.8986 53.7935 13.8986C53.6159 13.8986 53.4891 13.8732 53.4891 13.7464C53.4891 13.6957 53.5652 13.6449 53.6667 13.6449C53.8188 13.6449 53.9456 13.6449 54.2246 13.5942C54.8333 13.4928 54.8841 12.7826 54.9601 12.0978L56.279 0.329711C56.3043 0.126812 56.3804 0 56.4819 0C56.5833 0 56.6594 0.0760885 56.7609 0.278987L62.3406 11.6413L67.7174 0.304347C67.7174 0.152173 67.7935 0.0253639 67.9203 0.0253639ZM87.221 0.0253639C87.2717 0.0253639 87.2971 0.101448 87.2971 0.177535C87.2971 0.304347 87.1957 0.53261 87.1449 1.03986C87.1196 1.21739 87.0942 2.02899 87.0435 2.23188C87.0181 2.33333 86.9928 2.43478 86.9167 2.43478C86.8152 2.43478 86.7645 2.33333 86.7645 2.20652C86.7645 2.07971 86.7391 1.77536 86.663 1.5471C86.5362 1.26812 86.3587 1.03985 85.3442 0.938405C85.0145 0.913043 82.9855 0.887681 82.7826 0.887681C82.7065 0.887681 82.6812 0.938405 82.6812 1.06522V6.06159C82.6812 6.1884 82.7065 6.23913 82.7826 6.23913H83.2645C84.0254 6.23913 85.4203 6.23913 85.75 6.21377C86.2065 6.18841 86.4601 6.13768 86.6377 5.96014C86.7645 5.80797 86.8406 5.73189 86.9167 5.73189C86.9674 5.73189 87.0181 5.75725 87.0181 5.88406C87.0181 5.98551 86.9167 6.28985 86.8659 6.89855C86.8152 7.25362 86.7899 7.93841 86.7899 8.06522C86.7899 8.21739 86.7899 8.42029 86.663 8.42029C86.5616 8.42029 86.5362 8.3442 86.5362 8.26812C86.5362 8.09058 86.5362 7.91304 86.4601 7.65942C86.3841 7.4058 86.2065 7.10145 85.4964 7.02536C84.9891 6.97464 83.1377 6.92391 82.8333 6.92391C82.7319 6.92391 82.7065 6.97464 82.7065 7.05073V8.85145C82.7065 9.63768 82.6812 11.413 82.7065 11.7681C82.7572 12.9855 83.0362 13.2391 84.7101 13.2645H84.8623C85.3442 13.2645 86.1558 13.2645 86.663 13.0616C87.1449 12.8587 87.3732 12.5036 87.5 11.7681C87.5254 11.5652 87.5761 11.4891 87.6775 11.4891C87.779 11.4891 87.779 11.6413 87.779 11.7681C87.779 11.9203 87.6268 13.1377 87.5254 13.5181C87.3986 14 87.2464 14 86.5109 14C83.7717 14 82.529 13.8986 81.971 13.8986H81.9203C81.8949 13.8986 81.5652 13.9239 81.1848 13.9239C80.8044 13.9493 80.3732 13.9493 80.0942 13.9493C79.8913 13.9493 79.7899 13.9239 79.7899 13.7971C79.7899 13.7464 79.8152 13.6957 79.942 13.6957C80.1196 13.6957 80.3225 13.6703 80.5 13.6196C80.8804 13.5435 80.9565 13.1377 81.0326 12.6304C81.1087 11.9203 81.1341 10.5761 81.1341 8.9529V4.86956C81.1341 2.58696 81.1341 2.10507 81.1087 1.57246C81.0833 0.963767 80.9312 0.659422 80.2971 0.53261C80.1449 0.507248 79.8406 0.481883 79.663 0.481883C79.587 0.481883 79.5109 0.456522 79.5109 0.380435C79.5109 0.278986 79.6123 0.228259 79.8152 0.228259C80.6268 0.228259 81.7174 0.278987 81.8949 0.278987H82.5543C83.6703 0.278987 85.8768 0.278986 86.1812 0.253623C86.5362 0.228261 86.8406 0.2029 86.9928 0.152175C87.0688 0.101451 87.1449 0.0253639 87.221 0.0253639ZM36.7754 0.507246C36.9022 0.507246 37.587 0.456523 38.2971 0.456523C38.5 0.456523 38.5254 0.507247 38.5254 0.583334C38.5254 0.659421 38.4239 0.659419 38.2464 0.735506C38.0942 0.811593 38.0181 0.913043 38.0181 1.06522C38.0181 1.26812 38.0942 1.49638 38.2464 1.75C38.5254 2.25724 41.2391 6.87319 41.5688 7.38044C41.8985 6.61957 44.2065 2.73913 44.5616 2.13043C44.7899 1.75 44.8659 1.44565 44.8659 1.21739C44.8659 0.963769 44.7899 0.76087 44.587 0.710146C44.4348 0.659421 44.308 0.634059 44.308 0.53261C44.308 0.456523 44.4094 0.431159 44.587 0.431159C45.0435 0.431159 45.6268 0.481883 45.779 0.481883C45.8804 0.481883 47.1739 0.431159 47.529 0.431159C47.6558 0.431159 47.7572 0.456523 47.7572 0.53261C47.7572 0.634059 47.6812 0.684782 47.529 0.684782C47.3261 0.684782 46.9964 0.760869 46.692 0.938405C46.337 1.1413 46.1341 1.36957 45.7283 1.85145C45.1196 2.56159 42.6087 6.74638 42.279 7.50725C42 8.14131 42 8.69928 42 9.28261V10.8043C42 11.0833 42 11.8442 42.0507 12.5797C42.0761 13.087 42.2536 13.4928 42.7862 13.5688C43.0399 13.5942 43.4457 13.6449 43.5978 13.6449C43.6993 13.6449 43.75 13.6957 43.75 13.7464C43.75 13.8478 43.6485 13.8986 43.471 13.8986C42.5326 13.8986 41.442 13.8478 41.2645 13.8478H41.2391C41.1377 13.8478 40.0217 13.8986 39.4638 13.8986C39.2609 13.8986 39.1848 13.8732 39.1848 13.7464C39.1848 13.6957 39.2101 13.6449 39.337 13.6449C39.4891 13.6449 39.7174 13.6196 39.8696 13.5688C40.2246 13.4928 40.4022 13.1123 40.4275 12.5797C40.4783 11.9964 40.4783 11.3877 40.4783 11.0326V9.28261C40.4783 8.31884 40.3007 7.93841 40.0725 7.4058C39.9457 7.12681 37.5362 3.19565 36.9022 2.28261C36.4457 1.62319 35.9891 1.16667 35.6848 0.963769C35.4058 0.786233 35.0761 0.684782 34.8986 0.684782C34.7971 0.684782 34.721 0.65942 34.721 0.55797C34.721 0.481883 34.7971 0.431159 34.9493 0.431159C35.3297 0.456521 36.6739 0.507246 36.7754 0.507246ZM3.22101 6.54348H3.14493C3.06884 6.54348 3.04348 6.56884 3.04348 6.67029V8.75C3.04348 9.94203 3.04348 11.2355 3.06884 11.4384C3.11956 12.3007 3.11957 12.529 3.67754 12.808C4.15942 13.0362 4.94565 13.0616 5.27536 13.0616C6.26449 13.0616 7.83696 12.5543 7.83696 10.5761C7.83696 9.53623 7.48188 8.01449 6.08696 7.07609C5.47826 6.67029 5.02174 6.61956 4.59058 6.56884C4.36232 6.54348 3.44928 6.54348 3.17029 6.54348H3.22101ZM4.1087 0.887681C3.9058 0.887681 3.55073 0.913042 3.24638 0.989129C3.0942 1.01449 3.04348 1.06522 3.04348 1.16667V5.83333C3.04348 5.96014 3.06884 5.98551 3.17029 6.03623C3.27174 6.06159 3.60145 6.11232 4.26087 6.11232C5.25 6.11232 5.50362 6.08696 5.88406 5.6558C6.26449 5.22464 6.51812 4.61594 6.51812 3.9058C6.51812 2.43478 5.8587 0.887681 4.1087 0.887681Z" fill="#1A1919"/>
</svg>
