<svg width="54" height="29" viewBox="0 0 54 29" fill="none" xmlns="http://www.w3.org/2000/svg">
<path d="M52.2899 11.1859C52.6887 8.41642 51.263 5.60326 48.6028 4.35782C45.9425 3.11784 42.8726 3.83342 41.01 5.92008C37.3392 6.44994 34.0016 8.77148 32.3192 12.3876C29.6644 18.0904 32.1225 24.8693 37.8199 27.5295C43.5118 30.1897 50.2797 27.7207 52.9345 22.0125C54.6115 18.3854 54.24 14.3377 52.2899 11.1859Z" fill="#231F1F"/>
<path d="M45.8594 1.94841C46.3455 2.17237 46.93 1.94295 47.1758 1.42948C47.4162 0.916012 47.2195 0.315142 46.7279 0.0857194C46.2418 -0.138241 45.6573 0.0911823 45.4115 0.604652C45.1766 1.11812 45.3732 1.71899 45.8594 1.94841Z" fill="#231F1F"/>
<path d="M52.1241 4.86834C52.6102 5.0923 53.1947 4.86287 53.4405 4.3494C53.6809 3.83593 53.4842 3.23506 52.9926 3.00564C52.5064 2.78168 51.9219 3.0111 51.6761 3.52457C51.4413 4.04351 51.6434 4.64438 52.1241 4.86834Z" fill="#231F1F"/>
<path d="M10.1274 24.1728C8.33024 24.1728 7.77853 23.5719 7.77853 21.7747V17.6451C7.77853 16.061 7.24321 15.3509 5.8776 15.3509C4.69771 15.3509 4.0586 16.1429 4.0586 17.5796V24.1782H2.69299C0.961391 24.1782 0 23.4954 0 21.7802V17.6506C0 14.2639 2.24507 12.0625 5.98684 12.0625C10.1547 12.0625 11.8426 14.2693 11.8426 17.7544V24.1782L10.1274 24.1728Z" fill="#5D3EBC"/>
<path d="M18.0685 24.1638C16.8504 24.1638 15.9054 23.3281 15.9054 21.9133V13.4356L14.5616 13.8616C14.2612 13.9436 13.9608 13.9873 13.6822 13.9873C12.8246 13.9873 12.1636 13.583 12.038 12.8729L11.7812 11.4581L15.6487 9.83034C16.2878 9.55175 17.1071 9.37695 18.0194 9.37695C18.9808 9.37695 19.964 10.0598 19.964 11.2178V24.1474H18.0685V24.1638Z" fill="#5D3EBC"/>
<path d="M27.381 24.1638C26.1629 24.1638 25.2179 23.3281 25.2179 21.9133V13.4356L23.8741 13.8616C23.5737 13.9436 23.2733 13.9873 22.9947 13.9873C22.1371 13.9873 21.4761 13.583 21.3505 12.8729L21.0938 11.4581L24.9612 9.83034C25.6003 9.55175 26.4196 9.37695 27.3319 9.37695C28.2933 9.37695 29.2765 10.0598 29.2765 11.2178V24.1474H27.381V24.1638Z" fill="#5D3EBC"/>
<path d="M52.2899 11.1761C52.6887 8.40665 51.263 5.59349 48.6028 4.34805C45.9425 3.10808 42.8726 3.82366 41.01 5.91031C37.3392 6.44017 34.0016 8.75625 32.3192 12.3779C29.6644 18.0807 32.1225 24.8596 37.8199 27.5198C43.5172 30.18 50.2797 27.7109 52.9345 22.0027C54.6115 18.3811 54.24 14.3334 52.2899 11.1761Z" fill="white"/>
<path d="M51.7451 12.9997C50.2266 16.2607 46.3646 17.6701 43.1145 16.146C39.8588 14.6275 38.455 10.7546 39.9681 7.49898C41.4866 4.2379 45.3486 2.82859 48.6042 4.35261C51.8544 5.87117 53.2637 9.73858 51.7451 12.9997Z" fill="#231F1F"/>
<path d="M52.9336 22C50.2788 27.7028 43.5109 30.1718 37.819 27.5171C32.1271 24.8569 29.6636 18.0834 32.3183 12.3752C34.9731 6.67238 41.741 4.20335 47.4329 6.8581C53.1302 9.51831 55.5883 16.2972 52.9336 22Z" fill="#5D3EBC"/>
<path d="M48.9691 10.3536C48.2973 11.7957 46.5875 12.4184 45.1454 11.7465C43.7033 11.0746 43.0861 9.3594 43.7525 7.91731C44.4244 6.47523 46.1341 5.85251 47.5762 6.52439C49.0128 7.20173 49.6356 8.91694 48.9691 10.3536Z" fill="#FFD10D"/>
<path d="M40.3823 17.0499C39.8797 18.1369 38.5851 18.6067 37.5036 18.0987C36.4165 17.5961 35.9468 16.3015 36.4548 15.2145C36.9573 14.1275 38.2519 13.6577 39.3335 14.1657C40.4151 14.6737 40.8848 15.9683 40.3823 17.0499Z" fill="#FFD10D"/>
<path d="M38.9129 10.4122C38.5961 11.0896 37.7986 11.3791 37.1212 11.0623C36.4494 10.7454 36.1544 9.94246 36.4712 9.27058C36.788 8.59324 37.5856 8.30373 38.2629 8.62055C38.9348 8.92645 39.2243 9.73489 38.9129 10.4122Z" fill="#FFD10D"/>
<path d="M36.2332 21.5431C35.9164 22.2204 35.1189 22.5099 34.4416 22.1931C33.7697 21.8763 33.4747 21.0733 33.7915 20.4014C34.1084 19.7241 34.9059 19.4346 35.5832 19.7514C36.2606 20.0682 36.5446 20.8712 36.2332 21.5431Z" fill="#FFD10D"/>
<path d="M44.1555 18.8248C43.653 19.9118 44.1173 21.2064 45.2043 21.7089C46.2914 22.2115 47.5805 21.7472 48.083 20.6602C48.5856 19.5731 48.1213 18.2785 47.0342 17.776C45.9527 17.268 44.6581 17.7323 44.1555 18.8248Z" fill="#FFD10D"/>
<path d="M50.1743 15.6779C49.8575 16.3552 50.1525 17.1527 50.8244 17.4696C51.4963 17.7864 52.2992 17.4914 52.6161 16.8195C52.9329 16.1422 52.6379 15.3447 51.966 15.0279C51.2887 14.711 50.4912 15.006 50.1743 15.6779Z" fill="#FFD10D"/>
<path d="M43.3931 24.8869C43.0763 25.5642 43.3712 26.3617 44.0431 26.6786C44.715 26.9954 45.518 26.7004 45.8348 26.0285C46.1516 25.3512 45.8567 24.5537 45.1848 24.2368C44.5129 23.92 43.7099 24.215 43.3931 24.8869Z" fill="#FFD10D"/>
<path d="M47.4774 6.73266C47.3791 6.6835 47.2753 6.64526 47.1715 6.60156L37.3828 27.6375C37.4811 27.6866 37.5795 27.7358 37.6778 27.7849C37.7761 27.8341 37.8799 27.8723 37.9837 27.916L47.7724 6.87468C47.6795 6.82552 47.5812 6.78182 47.4774 6.73266Z" fill="#231F1F"/>
</svg>
