<svg width="91" height="21" viewBox="0 0 91 21" fill="none" xmlns="http://www.w3.org/2000/svg">
<path d="M32.5386 11.4037H22.2335C22.709 13.3385 24.2749 14.7977 26.3162 14.7977C27.464 14.7977 28.5953 14.3059 29.3495 13.4532L31.8418 13.5106C30.7432 15.593 28.6527 16.9293 26.226 16.9293C22.6844 16.9293 19.897 13.855 19.897 10.3789C19.897 6.78811 22.6352 3.84496 26.2752 3.84496C29.8004 3.84496 32.6124 6.74712 32.6124 10.2477C32.6042 10.6249 32.5796 11.0348 32.5386 11.4037ZM26.2424 5.96829C24.2257 5.96829 22.3565 7.55874 22.2253 9.60829H30.2595C30.1366 7.57514 28.2756 5.96829 26.2424 5.96829ZM42.8602 16.6178V9.86243C42.8602 7.7555 42.2289 5.97649 39.7531 5.97649C37.4658 5.97649 36.4738 7.7473 36.4738 9.84604V16.6259H34.1455V4.18108H36.3262V5.50099H36.3672C37.269 4.31225 38.5725 3.83676 40.0072 3.83676C41.778 3.83676 43.4422 4.5336 44.4096 6.05847C45.0081 7.00126 45.1967 8.14081 45.1967 9.24757V16.6178H42.8602ZM57.6087 16.6178V14.8469H57.5677C56.5348 16.2898 54.8951 16.9293 53.1653 16.9293C49.4351 16.9293 46.6969 14.1501 46.6969 10.4445C46.6969 6.71432 49.3941 3.83676 53.1653 3.83676C54.7312 3.83676 56.3954 4.43523 57.3874 5.69775H57.4284V0H59.7567V16.6178H57.6087ZM53.2965 5.96829C50.8288 5.96829 49.0334 7.98505 49.0334 10.4199C49.0334 12.7482 50.9026 14.8059 53.2801 14.8059C55.7068 14.8059 57.6087 12.8302 57.6087 10.4199C57.6087 7.92766 55.8379 5.96829 53.2965 5.96829ZM66.5202 20.7742H64.1017L65.9135 16.3718L60.9536 4.18108H63.4704L67.135 13.8386L70.8816 4.18108H73.3985L66.5202 20.7742ZM80.039 16.9293C76.3744 16.9293 73.3247 13.9861 73.3247 10.3051C73.3247 6.64054 76.4482 3.83676 80.039 3.83676C83.679 3.83676 86.7533 6.66514 86.7533 10.3461C86.7533 13.8959 83.8102 16.9293 80.039 16.9293ZM80.039 5.96829C77.6123 5.96829 75.653 7.94405 75.653 10.3707C75.653 12.7974 77.6041 14.7977 80.039 14.7977C82.4903 14.7977 84.425 12.781 84.425 10.3543C84.4168 7.92766 82.4575 5.96829 80.039 5.96829ZM88.6553 16.6178V0H91V16.6178H88.6553ZM2.31189 14.1665C2.41027 14.56 2.54144 14.8879 2.68901 15.1339C2.83658 15.3798 3.03333 15.593 3.25468 15.7979C3.99252 16.4456 4.92712 16.7735 6.03387 16.7735C7.13243 16.7735 8.15721 16.503 9.0918 15.9865V13.7484C8.12441 14.3141 7.19802 14.6092 6.32901 14.6092C5.14847 14.6092 4.5336 13.8878 4.5336 12.4613V6.37H8.45234V4.21387H4.5582V0.221352H2.24631V4.20568H0V6.3618H2.14793V11.8874C2.14793 13.0105 2.20532 13.773 2.31189 14.1665ZM16.4374 6.26342C17.1588 6.26342 17.9541 6.65694 18.7985 7.45216L20.0692 5.34523C19.0362 4.40243 17.7901 3.96793 17.0604 3.96793H16.8965C16.0603 3.96793 14.6584 3.96793 13.527 5.81252L13.486 5.88631L13.4942 4.21387H11.0758V16.544H13.4942V10.1002C13.4942 9.06721 13.7812 8.16541 14.3632 7.40297C14.9453 6.64874 15.6422 6.26342 16.4374 6.26342Z" fill="white"/>
</svg>
