<svg width="99" height="16" viewBox="0 0 99 16" fill="none" xmlns="http://www.w3.org/2000/svg">
<path d="M5.05795 0.773385C4.18266 1.2721 3.45997 1.99472 2.96126 2.87001C2.44219 3.75549 2.17761 4.75292 2.18778 5.78088C2.17761 6.79867 2.45237 7.79609 2.96126 8.68156C3.45997 9.55686 4.18266 10.2795 5.05795 10.7782C5.94342 11.2973 6.94081 11.5619 7.96877 11.5517C8.98655 11.5619 9.99421 11.2871 10.8797 10.7782C11.755 10.2795 12.4776 9.55686 12.9763 8.68156C13.4852 7.80627 13.7498 6.79867 13.7396 5.78088C13.7498 4.7631 13.4852 3.75549 12.9763 2.87001C12.4776 1.99472 11.755 1.2721 10.8797 0.773385C9.99421 0.264494 8.99673 -0.000129288 7.96877 0.0100485C6.94081 -0.000129288 5.93324 0.264494 5.05795 0.773385ZM10.5336 3.17535C11.1952 3.87762 11.5616 4.81399 11.5412 5.78088C11.5616 6.74778 11.1952 7.67395 10.5235 8.36604C9.87208 9.06831 8.94586 9.45507 7.98914 9.42454C7.02225 9.44489 6.09611 9.05813 5.43455 8.36604C4.74246 7.68413 4.3658 6.74778 4.38615 5.78088C4.3658 4.81399 4.7424 3.87763 5.42431 3.19571C6.09605 2.49344 7.02225 2.11686 7.98914 2.13722C8.94586 2.10668 9.86186 2.48326 10.5336 3.17535Z" fill="#F219AF"/>
<path d="M0 15.8879H2.21875V9.96438C3.09404 11.0229 4.39684 11.6132 5.77085 11.5725C6.78863 11.5725 7.79623 11.3078 8.67153 10.799C9.54682 10.3002 10.2695 9.56744 10.7784 8.69215C11.2974 7.81685 11.562 6.80925 11.5518 5.79147C11.562 4.77369 11.2872 3.76608 10.7784 2.88061C10.2796 2.00532 9.54682 1.28269 8.67153 0.773795C7.78606 0.264904 6.78863 0.000280426 5.77085 0.0104583C2.58519 0.0104583 0 2.59563 0 5.78129C0 5.78129 0 5.78129 0 5.79147V15.8879ZM5.77085 9.44531C4.80395 9.46566 3.87771 9.07891 3.21615 8.38681C2.53424 7.69472 2.15774 6.75836 2.17809 5.79147C2.15774 4.82457 2.53424 3.88821 3.21615 3.19612C3.87771 2.49385 4.80395 2.10709 5.77085 2.13763C6.73774 2.11727 7.66394 2.49385 8.33568 3.18595C9.00741 3.88822 9.37382 4.82457 9.35346 5.79147C9.37382 6.75836 9.00735 7.69472 8.32544 8.38681C7.66388 9.07891 6.73774 9.46566 5.77085 9.44531ZM21.2717 11.5725C22.0248 11.5826 22.7678 11.3893 23.4294 11.0127C24.0299 10.7073 24.5184 10.2188 24.8339 9.61833V11.3893H27.0323V5.78129C27.0424 4.76351 26.7778 3.7559 26.2689 2.87042C25.7702 1.99513 25.0375 1.27251 24.1622 0.76362C23.2869 0.254728 22.2894 -0.00989491 21.2717 0.000282912C20.2539 -0.00989491 19.2463 0.254728 18.371 0.76362C17.4957 1.26233 16.7629 1.99513 16.254 2.87042C15.7349 3.7559 15.4703 4.76351 15.4804 5.78129C15.4804 8.98731 18.0758 11.5725 21.2717 11.5725ZM18.7272 8.38681C18.0351 7.7049 17.6585 6.76854 17.6789 5.79147C17.6585 4.82457 18.0351 3.88821 18.7171 3.19612C19.3888 2.49385 20.3251 2.10709 21.292 2.13763C22.2487 2.11727 23.1749 2.49385 23.8466 3.18595C24.5082 3.88822 24.8746 4.82457 24.8543 5.79147C24.8746 6.75836 24.5082 7.69472 23.8365 8.38681C23.1851 9.08908 22.2589 9.47584 21.292 9.44531C20.3251 9.46566 19.3888 9.08908 18.7272 8.38681ZM36.9354 2.32083V0.183489H28.4572V2.32083H34.1262C34.1262 2.32083 28.5997 8.69214 28.274 9.22139C28.162 9.4453 28.1112 9.69974 28.1315 9.94401C28.1214 10.687 28.1315 11.3893 28.1315 11.3893H37.1185V9.25193H30.9101L36.9354 2.32083ZM43.2659 11.5725C44.019 11.5826 44.7621 11.3893 45.4236 11.0127C46.0241 10.7073 46.5126 10.2188 46.8281 9.61833V11.3893H49.0266V5.78129C49.0368 4.76351 48.7722 3.7559 48.2633 2.87042C47.7645 1.99513 47.0317 1.27251 46.1564 0.76362C45.2811 0.254728 44.2837 -0.00989491 43.2659 0.000282912C42.2481 -0.00989491 41.2405 0.254728 40.3652 0.76362C39.4899 1.26233 38.7571 1.99513 38.2482 2.87042C37.7292 3.7559 37.4646 4.76351 37.4748 5.78129C37.4748 8.98731 40.0701 11.5725 43.2659 11.5725ZM40.7214 8.38681C40.0293 7.7049 39.6528 6.76854 39.6731 5.79147C39.6528 4.82457 40.0294 3.88821 40.7113 3.19612C41.383 2.49385 42.3194 2.10709 43.2863 2.13763C44.243 2.11727 45.1692 2.49385 45.841 3.18595C46.5127 3.88822 46.8689 4.82457 46.8485 5.79147C46.8689 6.75836 46.5025 7.69472 45.8307 8.38681C45.1793 9.08908 44.2532 9.47584 43.2863 9.44531C42.3194 9.46566 41.383 9.08908 40.7214 8.38681ZM52.772 11.3994V5.53702C52.772 3.33861 53.6779 2.25975 55.286 2.25975H55.5099V0.1326H55.286C54.0036 0.0715327 52.7517 0.570239 51.856 1.48624C50.9909 2.39207 50.5634 3.74573 50.5634 5.52685V11.3893H52.772V11.3994ZM61.8608 11.5725C62.614 11.5826 63.357 11.3893 64.0185 11.0127C64.619 10.7073 65.1075 10.2188 65.423 9.61833V11.3893H67.6215V5.78129C67.6317 4.76351 67.3671 3.7559 66.8582 2.87042C66.3595 1.99513 65.6266 1.27251 64.7513 0.76362C63.876 0.254728 62.8786 -0.00989491 61.8608 0.000282912C60.843 -0.00989491 59.8354 0.254728 58.9601 0.76362C58.0848 1.26233 57.352 1.99513 56.8431 2.87042C56.3241 3.7559 56.0595 4.76351 56.0697 5.78129C56.0798 8.97713 58.665 11.5725 61.8608 11.5725ZM59.3266 8.38681C58.6345 7.7049 58.2578 6.76854 58.2782 5.79147C58.2578 4.82457 58.6344 3.88821 59.3163 3.19612C59.9881 2.49385 60.9244 2.10709 61.8913 2.13763C62.848 2.11727 63.7743 2.49385 64.446 3.18595C65.1076 3.88822 65.4739 4.82457 65.4535 5.79147C65.4739 6.75836 65.1075 7.69472 64.4358 8.38681C63.7844 9.08908 62.8582 9.47584 61.8913 9.44531C60.9142 9.47584 59.9881 9.08908 59.3266 8.38681ZM81.3616 0.0104583C79.8145 -0.0709643 78.3489 0.733086 77.5958 2.08674C76.8426 0.733086 75.377 -0.0811422 73.83 0.0104583C72.5069 -0.0506087 71.2244 0.448102 70.2982 1.39464C69.4128 2.331 68.9649 3.69483 68.9649 5.49631V11.3994H71.1634V5.49631C71.1634 3.24701 72.1201 2.13763 73.83 2.13763C75.6111 2.13763 76.4965 3.25719 76.4965 5.49631V11.3994H78.6847V5.49631C78.6847 3.24701 79.6414 2.13763 81.3513 2.13763C83.1324 2.13763 84.0179 3.25719 84.0179 5.49631V11.3994H86.2062V5.49631C86.2062 3.69483 85.7685 2.32082 84.883 1.39464C83.967 0.448102 82.6847 -0.0506087 81.3616 0.0104583ZM93.239 11.5725C93.9922 11.5826 94.7352 11.3893 95.3967 11.0127C95.9972 10.7073 96.4857 10.2188 96.8012 9.61833V11.3893H98.9997V5.78129C99.0099 4.76351 98.7453 3.7559 98.2364 2.87042C97.7377 1.99513 97.0048 1.27251 96.1295 0.76362C95.2543 0.254728 94.2568 -0.00989491 93.239 0.000282912C92.2212 -0.00989491 91.2136 0.254728 90.3383 0.76362C89.463 1.26233 88.7302 1.98496 88.2214 2.86025C87.7023 3.74572 87.4377 4.75332 87.4479 5.7711C87.4581 8.97712 90.0432 11.5725 93.239 11.5725ZM90.7048 8.38681C90.0127 7.7049 89.6361 6.76854 89.6565 5.79147C89.6361 4.82457 90.0126 3.88821 90.6945 3.19612C91.3663 2.49385 92.3027 2.10709 93.2696 2.13763C94.2263 2.11727 95.1525 2.49385 95.8242 3.18595C96.4858 3.88822 96.8522 4.82457 96.8319 5.79147C96.8522 6.75836 96.4858 7.69472 95.8141 8.38681C95.1627 9.08908 94.2365 9.47584 93.2696 9.44531C92.2925 9.46566 91.3663 9.08908 90.7048 8.38681Z" fill="#0136F4"/>
<path d="M4.37806 5.67909H2.17969C2.21022 2.51379 4.79537 -0.0204948 7.96067 0.0100387C11.1158 -0.0204948 13.701 2.52397 13.7315 5.67909H11.5942C11.5738 4.74273 11.187 3.84708 10.5356 3.17534C9.87408 2.48325 8.9479 2.10668 7.99119 2.12703C7.02429 2.10668 6.08791 2.49344 5.42635 3.18553C4.7648 3.84709 4.38824 4.74273 4.37806 5.67909Z" fill="#F219AF"/>
</svg>
