<svg width="15" height="12" viewBox="0 0 15 12" fill="none" xmlns="http://www.w3.org/2000/svg">
<path fill-rule="evenodd" clip-rule="evenodd" d="M2.52211 5.86078L6.714 10.0527C7.09533 10.434 7.09533 11.0523 6.714 11.4336C6.33266 11.8149 5.7144 11.8149 5.33306 11.4336L0.450707 6.55124C0.0693719 6.16991 0.0693719 5.55164 0.450707 5.17031L5.33306 0.287955C5.7144 -0.0933808 6.33266 -0.0933808 6.714 0.287955C7.09533 0.66929 7.09533 1.28756 6.714 1.66889L2.52211 5.86078Z" fill="#023E7D"/>
<path fill-rule="evenodd" clip-rule="evenodd" d="M10.5221 6.14313L14.714 1.95125C15.0953 1.56991 15.0953 0.951644 14.714 0.570309C14.3327 0.188973 13.7144 0.188973 13.3331 0.570308L8.45071 5.45266C8.06937 5.834 8.06937 6.45226 8.45071 6.8336L13.3331 11.716C13.7144 12.0973 14.3327 12.0973 14.714 11.716C15.0953 11.3346 15.0953 10.7163 14.714 10.335L10.5221 6.14313Z" fill="#023E7D"/>
</svg>
