<svg width="15" height="12" viewBox="0 0 15 12" fill="none" xmlns="http://www.w3.org/2000/svg">
<path fill-rule="evenodd" clip-rule="evenodd" d="M12.4779 6.13922L8.286 1.94734C7.90467 1.566 7.90467 0.947738 8.286 0.566402C8.66734 0.185067 9.2856 0.185067 9.66694 0.566402L14.5493 5.44875C14.9306 5.83009 14.9306 6.44836 14.5493 6.82969L9.66694 11.712C9.2856 12.0934 8.66734 12.0934 8.286 11.712C7.90467 11.3307 7.90467 10.7124 8.286 10.3311L12.4779 6.13922Z" fill="#023E7D"/>
<path fill-rule="evenodd" clip-rule="evenodd" d="M4.47789 5.85687L0.286001 10.0488C-0.0953343 10.4301 -0.0953343 11.0484 0.286001 11.4297C0.667337 11.811 1.2856 11.811 1.66694 11.4297L6.54929 6.54734C6.93063 6.166 6.93063 5.54774 6.54929 5.1664L1.66694 0.284049C1.2856 -0.0972869 0.667337 -0.097287 0.286002 0.284049C-0.0953339 0.665384 -0.0953339 1.28365 0.286002 1.66499L4.47789 5.85687Z" fill="#023E7D"/>
</svg>
