<svg width="25" height="24" viewBox="0 0 25 24" fill="none" xmlns="http://www.w3.org/2000/svg">
<path d="M14.1554 20.0366V0.236328H12.5567C8.45047 0.978188 4.35541 1.66441 0.234375 2.37659V21.1048C4.28864 21.8207 8.39483 22.5366 12.4751 23.2785H14.1442V20.0366H14.1554ZM8.11664 15.9267C7.60519 14.833 7.15686 13.711 6.77387 12.566C6.40294 13.6529 5.89106 14.6766 5.47191 15.7412C4.88584 15.7412 4.29977 15.7078 3.7137 15.6856C4.39992 14.3391 5.06388 12.9815 5.77236 11.6461C5.17145 10.2663 4.50749 8.91609 3.88803 7.54736L5.66108 7.4472C6.05798 8.49323 6.49567 9.52812 6.8258 10.6001C7.19673 9.46135 7.7049 8.37453 8.15744 7.29141C8.76329 7.24938 9.37038 7.21228 9.97871 7.18014C9.26652 8.64407 8.54815 10.1117 7.8236 11.5831C8.56546 13.0668 9.30732 14.5691 10.0492 16.0676C9.40376 16.0157 8.76205 15.9749 8.11664 15.9267Z" fill="#03B184"/>
<path d="M14.8281 2.80469V4.22535H17.6657V6.3211H14.8281V7.47099H17.6657V9.56674H14.8281V10.7166H17.6657V12.8087H14.8281V13.9586H17.6657V16.0358H14.8281V17.2524H17.6657V19.2814H14.8281V20.7021H24.6281V2.80469H14.8281ZM22.4656 19.2962H18.3408V17.2672H22.4656V19.2962ZM22.4656 16.0506H18.3408V13.9548H22.4656V16.0506ZM22.4656 12.805H18.3408V10.7129H22.4656V12.805ZM22.4656 9.55932H18.3408V7.46728H22.4656V9.55932ZM22.4656 6.31368H18.3408V4.22535H22.4656V6.31368Z" fill="#03B184"/>
</svg>
