<svg width="249" height="40" viewBox="0 0 249 40" fill="none" xmlns="http://www.w3.org/2000/svg">
<rect x="0.5" y="39.5" width="39" height="248" rx="11.5" transform="rotate(-90 0.5 39.5)" fill="#F28B02" stroke="#CCD8E5" stroke-linecap="round" stroke-linejoin="round"/>
<path d="M83.6018 16.4608C84.0572 16.652 84.4515 16.9644 84.7418 17.364C84.9798 17.6751 85.1386 18.0393 85.2044 18.4254C85.2729 19.0162 85.301 19.611 85.2887 20.2057V25.6176H82.8301V20.0113C82.848 19.5962 82.7615 19.1832 82.5786 18.8101C82.4581 18.5925 82.2759 18.4154 82.0551 18.3011C81.8342 18.1867 81.5844 18.1403 81.3372 18.1675C81.0638 18.1503 80.7902 18.1994 80.5398 18.3106C80.2894 18.4218 80.0695 18.5917 79.8988 18.8061C79.5395 19.3432 79.3671 19.9838 79.4084 20.6288V25.619H77V13.0469H79.4084V17.1948C79.7127 16.8548 80.0951 16.594 80.5227 16.4348C81.0139 16.2519 81.5343 16.16 82.0584 16.1638C82.5877 16.1569 83.1129 16.2579 83.6018 16.4608Z" fill="white"/>
<path d="M92.7439 16.5918C93.393 16.8854 93.945 17.3579 94.3351 17.954C94.7214 18.5245 94.9723 19.1757 95.0687 19.858C95.1425 20.4641 95.1691 21.0751 95.148 21.6854H88.4411C88.4786 22.6093 88.7996 23.257 89.4042 23.6285C89.8046 23.8683 90.2653 23.9885 90.7318 23.9747C91.1082 24.0042 91.4846 23.9191 91.8117 23.7306C92.1387 23.5421 92.4011 23.2591 92.5643 22.9187H95.0225C94.9115 23.555 94.5984 24.1387 94.1298 24.5832C93.3046 25.4788 92.1498 25.9266 90.6653 25.9266C89.484 25.9424 88.3351 25.5411 87.4206 24.7933C86.4839 24.0377 86.0156 22.8088 86.0156 21.1063C86.0156 19.5112 86.4384 18.288 87.2841 17.4368C87.7164 17.0099 88.2317 16.6763 88.7982 16.4566C89.3647 16.2369 89.9702 16.1359 90.5773 16.1597C91.322 16.1482 92.0606 16.2955 92.7439 16.5918ZM89.1419 18.6718C88.7813 19.0662 88.5564 19.5657 88.5003 20.0971H92.6482C92.646 19.8237 92.5879 19.5536 92.4776 19.3034C92.3672 19.0532 92.207 18.8281 92.0066 18.642C91.6084 18.3057 91.0997 18.1287 90.5786 18.1453C90.3157 18.1292 90.0523 18.1677 89.805 18.2584C89.5577 18.349 89.3318 18.4899 89.1416 18.6721L89.1419 18.6718Z" fill="white"/>
<path d="M103.765 17.3952C104.516 18.1893 104.892 19.3553 104.892 20.8931C104.892 22.515 104.525 23.7512 103.791 24.6018C103.445 25.0143 103.01 25.3433 102.519 25.5642C102.028 25.7851 101.493 25.8923 100.955 25.8776C100.299 25.9023 99.6527 25.7091 99.1179 25.3283C98.8093 25.0785 98.5448 24.7786 98.3355 24.4412V29.0002H95.9531V16.4067H98.2596V17.7671C98.4838 17.4084 98.7653 17.0887 99.0928 16.8208C99.6457 16.4049 100.323 16.1875 101.015 16.204C101.531 16.196 102.044 16.2982 102.518 16.5035C102.992 16.7089 103.417 17.0129 103.765 17.3952ZM101.917 19.1273C101.753 18.8571 101.518 18.6376 101.237 18.493C100.956 18.3484 100.641 18.2842 100.325 18.3077C99.928 18.2861 99.5346 18.396 99.2059 18.6206C98.8773 18.8451 98.6318 19.1717 98.5074 19.5497C98.3208 20.087 98.2339 20.6538 98.2512 21.2223C98.2512 22.2927 98.5383 23.0447 99.1125 23.4782C99.4638 23.7347 99.8899 23.8683 100.325 23.8582C100.628 23.8731 100.93 23.8094 101.202 23.6732C101.473 23.537 101.705 23.3329 101.874 23.0808C102.217 22.4797 102.4 21.8012 102.408 21.1094C102.415 20.4176 102.246 19.7353 101.917 19.1269L101.917 19.1273Z" fill="white"/>
<path d="M107.786 22.6767C107.799 23.0079 107.915 23.3268 108.117 23.5896C108.417 23.9105 108.971 24.0709 109.781 24.0709C110.17 24.0882 110.557 24.0159 110.914 23.8598C111.032 23.8075 111.133 23.7238 111.207 23.618C111.281 23.5121 111.324 23.3881 111.333 23.2593C111.341 23.1305 111.314 23.0019 111.255 22.8874C111.195 22.7728 111.106 22.6767 110.996 22.6095C110.77 22.4687 109.93 22.2266 108.477 21.8829C107.43 21.6238 106.693 21.3004 106.265 20.9128C106.044 20.7002 105.872 20.4418 105.761 20.1557C105.65 19.8697 105.603 19.5629 105.623 19.2567C105.621 18.8403 105.71 18.4286 105.883 18.05C106.056 17.6714 106.31 17.3351 106.626 17.0643C107.295 16.4533 108.237 16.1477 109.45 16.1475C110.434 16.1047 111.411 16.3431 112.264 16.8345C112.99 17.2937 113.406 18.0865 113.513 19.2129H111.105C111.088 18.9479 110.997 18.693 110.842 18.477C110.577 18.1505 110.125 17.9871 109.487 17.9869C109.097 17.9541 108.705 18.0395 108.364 18.2321C108.266 18.293 108.183 18.3773 108.125 18.4775C108.067 18.5778 108.034 18.6909 108.03 18.8068C108.023 18.9307 108.054 19.0539 108.117 19.1606C108.18 19.2673 108.274 19.3529 108.386 19.4066C109.203 19.6995 110.045 19.9227 110.9 20.0739C111.696 20.2196 112.44 20.5722 113.057 21.0965C113.289 21.32 113.472 21.5895 113.594 21.8876C113.716 22.1858 113.775 22.5061 113.767 22.8282C113.778 23.2538 113.692 23.6764 113.515 24.0637C113.338 24.451 113.075 24.7928 112.746 25.0631C112.066 25.6402 111.015 25.9289 109.593 25.9291C108.143 25.9291 107.073 25.6235 106.382 25.0122C106.046 24.7242 105.779 24.3652 105.6 23.9611C105.42 23.557 105.333 23.118 105.345 22.676L107.786 22.6767Z" fill="white"/>
<path d="M114.719 16.4082H117.161V25.6172H114.719V16.4082Z" fill="white"/>
<path d="M126.745 17.4948C127.467 18.4693 127.832 19.662 127.779 20.8733C127.828 22.1373 127.471 23.3838 126.76 24.4301C126.218 25.1185 125.449 25.5924 124.591 25.7672C123.733 25.942 122.84 25.8065 122.072 25.3848C121.718 25.1257 121.413 24.8052 121.172 24.4385V25.5958H118.797V13H121.205V17.5878C121.473 17.1964 121.817 16.863 122.217 16.6077C122.72 16.3084 123.299 16.1616 123.884 16.1852C124.431 16.1602 124.976 16.266 125.473 16.4938C125.971 16.7215 126.407 17.0647 126.745 17.4948ZM124.733 23.1048C125.104 22.5144 125.285 21.8245 125.253 21.1278C125.269 20.5758 125.183 20.0256 124.997 19.5055C124.874 19.1343 124.632 18.814 124.309 18.5941C123.985 18.3742 123.598 18.2669 123.208 18.2889C122.817 18.264 122.429 18.3668 122.102 18.5816C121.775 18.7964 121.526 19.1117 121.394 19.4801C121.206 20.0055 121.119 20.5616 121.138 21.1191C121.111 21.8109 121.295 22.4944 121.666 23.079C121.845 23.3367 122.087 23.5438 122.369 23.68C122.651 23.8163 122.964 23.877 123.276 23.8564C123.563 23.867 123.848 23.8034 124.103 23.6717C124.358 23.54 124.575 23.3448 124.733 23.1048Z" fill="white"/>
<path d="M131.195 16.3867V21.9379C131.174 22.3406 131.237 22.7434 131.379 23.1207C131.598 23.589 132.027 23.8231 132.666 23.8231C133.015 23.8531 133.365 23.773 133.666 23.5942C133.968 23.4154 134.206 23.1468 134.347 22.826C134.52 22.3706 134.6 21.8851 134.581 21.3983V16.3867H137.023V25.596H134.682V24.2948C134.659 24.3229 134.604 24.4074 134.514 24.5483C134.427 24.6872 134.319 24.8124 134.194 24.92C133.879 25.2197 133.509 25.4551 133.103 25.6127C132.705 25.7439 132.288 25.8068 131.869 25.7987C130.509 25.7987 129.593 25.3087 129.123 24.3286C128.819 23.5698 128.684 22.7541 128.727 21.9379V16.3867H131.195Z" fill="white"/>
<path d="M143.657 16.1668C143.688 16.1698 143.757 16.1742 143.864 16.1795V18.6469C143.712 18.6299 143.576 18.6188 143.458 18.6134C143.34 18.6077 143.244 18.6047 143.171 18.6047C142.202 18.6047 141.551 18.9201 141.219 19.551C141.002 20.069 140.907 20.6296 140.94 21.1901V25.5919H138.516V16.3822H140.813V17.9879C141.069 17.5201 141.396 17.0954 141.783 16.7291C142.282 16.3354 142.906 16.1344 143.541 16.1628C143.588 16.1625 143.626 16.1641 143.657 16.1668Z" fill="white"/>
<path d="M158.856 16.5347C159.289 16.779 159.653 17.1295 159.913 17.553V13H162.354V25.5969H160.013V24.321C159.727 24.8098 159.323 25.2193 158.838 25.5122C158.333 25.7756 157.769 25.9037 157.199 25.8839C156.677 25.8881 156.161 25.7727 155.69 25.5466C155.219 25.3204 154.806 24.9896 154.483 24.5793C153.722 23.6332 153.329 22.4427 153.379 21.2292C153.379 19.6579 153.741 18.4217 154.465 17.5205C154.808 17.0821 155.25 16.7309 155.754 16.4957C156.259 16.2604 156.812 16.1477 157.368 16.1668C157.888 16.1572 158.401 16.2841 158.856 16.5347ZM159.448 23.0951C159.825 22.51 160.011 21.8222 159.98 21.1268C159.98 20.0004 159.695 19.1951 159.126 18.7107C158.788 18.4217 158.355 18.2656 157.91 18.2715C157.603 18.2512 157.297 18.3148 157.024 18.4555C156.751 18.5962 156.521 18.8086 156.36 19.07C156.034 19.6903 155.864 20.3809 155.865 21.0817C155.867 21.7825 156.039 22.4724 156.368 23.0914C156.532 23.3419 156.76 23.5445 157.028 23.6788C157.296 23.8131 157.594 23.8742 157.893 23.8561C158.195 23.8723 158.497 23.811 158.769 23.678C159.041 23.545 159.275 23.3447 159.448 23.0961V23.0951Z" fill="white"/>
<path d="M150.181 25.6023C150.181 25.6023 150.198 24.7326 150.181 24.5246C149.844 24.8867 149.456 25.1965 149.028 25.4438C148.49 25.7461 147.881 25.9002 147.264 25.8903C146.508 25.9187 145.769 25.6648 145.19 25.1778C144.912 24.9234 144.694 24.6102 144.553 24.2609C144.411 23.9117 144.349 23.5353 144.372 23.1591C144.372 22.0294 144.81 21.2116 145.688 20.7058C146.352 20.3771 147.072 20.1769 147.811 20.1158L148.635 20.0154C148.963 19.9871 149.285 19.9163 149.595 19.8047C149.743 19.761 149.873 19.6712 149.966 19.5484C150.059 19.4255 150.111 19.2761 150.113 19.1219C150.129 18.9675 150.1 18.8117 150.029 18.6733C149.959 18.535 149.85 18.4199 149.715 18.3419C149.349 18.1781 148.95 18.1045 148.549 18.1271C148.327 18.104 148.103 18.1297 147.891 18.2025C147.68 18.2753 147.488 18.3934 147.327 18.5486C147.14 18.7943 147.022 19.0852 146.985 19.3916H144.667C144.686 18.6776 144.922 17.9865 145.344 17.4103C145.982 16.6012 147.077 16.1966 148.629 16.1963C149.562 16.1788 150.485 16.384 151.322 16.7948C152.106 17.1942 152.499 17.9473 152.499 19.054V23.2688C152.499 23.5612 152.504 25.1865 152.516 25.6027L150.181 25.6023ZM150.105 21.1357C149.958 21.2278 149.802 21.3053 149.639 21.3671C149.429 21.44 149.214 21.4951 148.994 21.5317L148.447 21.6321C148.064 21.6817 147.691 21.7929 147.343 21.9612C147.162 22.0604 147.013 22.2089 146.912 22.3894C146.811 22.5699 146.764 22.7751 146.775 22.9815C146.759 23.1465 146.783 23.3128 146.843 23.4672C146.903 23.6217 146.999 23.7599 147.122 23.8709C147.363 24.057 147.661 24.1538 147.965 24.1449C148.484 24.1468 148.991 23.9879 149.416 23.69C149.858 23.3862 150.088 22.8326 150.105 22.0291L150.105 21.1357Z" fill="white"/>
<path d="M169.259 25.6023C169.259 25.6023 169.276 24.7326 169.259 24.5246C168.923 24.8867 168.534 25.1965 168.106 25.4438C167.568 25.7461 166.959 25.9002 166.342 25.8903C165.586 25.9189 164.847 25.6649 164.268 25.1778C163.99 24.9234 163.772 24.6102 163.631 24.2609C163.489 23.9117 163.427 23.5353 163.45 23.1591C163.45 22.0294 163.889 21.2116 164.766 20.7058C165.43 20.3771 166.151 20.1769 166.889 20.1158L167.713 20.0154C168.041 19.9872 168.363 19.9163 168.673 19.8047C168.821 19.761 168.951 19.6712 169.044 19.5484C169.137 19.4255 169.189 19.2761 169.191 19.1219C169.207 18.9675 169.178 18.8117 169.107 18.6733C169.037 18.535 168.928 18.4199 168.794 18.3419C168.428 18.1781 168.028 18.1045 167.627 18.1271C167.405 18.104 167.181 18.1297 166.97 18.2025C166.758 18.2753 166.566 18.3934 166.405 18.5486C166.219 18.7943 166.101 19.0852 166.063 19.3916H163.745C163.764 18.6777 164 17.9866 164.422 17.4103C165.06 16.6012 166.155 16.1966 167.707 16.1963C168.64 16.1788 169.563 16.384 170.4 16.7948C171.184 17.1942 171.577 17.9473 171.577 19.054V23.2688C171.577 23.5612 171.582 25.1865 171.594 25.6027L169.259 25.6023ZM169.183 21.1357C169.036 21.2278 168.88 21.3053 168.718 21.3671C168.507 21.44 168.292 21.4951 168.072 21.5317L167.525 21.6321C167.142 21.6817 166.769 21.7929 166.422 21.9612C166.24 22.0604 166.091 22.2089 165.99 22.3894C165.889 22.5699 165.842 22.7751 165.853 22.9815C165.837 23.1465 165.861 23.3128 165.921 23.4672C165.981 23.6217 166.077 23.7599 166.2 23.8709C166.441 24.057 166.739 24.1538 167.043 24.1449C167.562 24.1468 168.069 23.9879 168.494 23.69C168.936 23.3862 169.166 22.8326 169.183 22.0291L169.183 21.1357Z" fill="white"/>
<path d="M115.904 15.652C116.636 15.652 117.23 15.0583 117.23 14.326C117.23 13.5937 116.636 13 115.904 13C115.172 13 114.578 13.5937 114.578 14.326C114.578 15.0583 115.172 15.652 115.904 15.652Z" fill="white"/>
</svg>
