<svg width="249" height="40" viewBox="0 0 249 40" fill="none" xmlns="http://www.w3.org/2000/svg">
<rect x="0.5" y="39.5" width="39" height="248" rx="11.5" transform="rotate(-90 0.5 39.5)" fill="#FF6621" stroke="#CCD8E5" stroke-linecap="round" stroke-linejoin="round"/>
<path d="M111.539 21.4037H101.234C101.709 23.3385 103.275 24.7977 105.316 24.7977C106.464 24.7977 107.595 24.3059 108.35 23.4532L110.842 23.5106C109.743 25.593 107.653 26.9293 105.226 26.9293C101.684 26.9293 98.897 23.855 98.897 20.3789C98.897 16.7881 101.635 13.845 105.275 13.845C108.8 13.845 111.612 16.7471 111.612 20.2477C111.604 20.6249 111.58 21.0348 111.539 21.4037ZM105.242 15.9683C103.226 15.9683 101.356 17.5587 101.225 19.6083H109.26C109.137 17.5751 107.276 15.9683 105.242 15.9683ZM121.86 26.6178V19.8624C121.86 17.7555 121.229 15.9765 118.753 15.9765C116.466 15.9765 115.474 17.7473 115.474 19.846V26.6259H113.145V14.1811H115.326V15.501H115.367C116.269 14.3123 117.573 13.8368 119.007 13.8368C120.778 13.8368 122.442 14.5336 123.41 16.0585C124.008 17.0013 124.197 18.1408 124.197 19.2476V26.6178H121.86ZM136.609 26.6178V24.8469H136.568C135.535 26.2898 133.895 26.9293 132.165 26.9293C128.435 26.9293 125.697 24.1501 125.697 20.4445C125.697 16.7143 128.394 13.8368 132.165 13.8368C133.731 13.8368 135.395 14.4352 136.387 15.6977H136.428V10H138.757V26.6178H136.609ZM132.296 15.9683C129.829 15.9683 128.033 17.985 128.033 20.4199C128.033 22.7482 129.903 24.8059 132.28 24.8059C134.707 24.8059 136.609 22.8302 136.609 20.4199C136.609 17.9277 134.838 15.9683 132.296 15.9683ZM145.52 30.7742H143.102L144.914 26.3718L139.954 14.1811H142.47L146.135 23.8386L149.882 14.1811H152.398L145.52 30.7742ZM159.039 26.9293C155.374 26.9293 152.325 23.9861 152.325 20.3051C152.325 16.6405 155.448 13.8368 159.039 13.8368C162.679 13.8368 165.753 16.6651 165.753 20.3461C165.753 23.8959 162.81 26.9293 159.039 26.9293ZM159.039 15.9683C156.612 15.9683 154.653 17.9441 154.653 20.3707C154.653 22.7974 156.604 24.7977 159.039 24.7977C161.49 24.7977 163.425 22.781 163.425 20.3543C163.417 17.9277 161.457 15.9683 159.039 15.9683ZM167.655 26.6178V10H170V26.6178H167.655ZM81.3119 24.1665C81.4103 24.56 81.5414 24.8879 81.689 25.1339C81.8366 25.3798 82.0333 25.593 82.2547 25.7979C82.9925 26.4456 83.9271 26.7735 85.0339 26.7735C86.1324 26.7735 87.1572 26.503 88.0918 25.9865V23.7484C87.1244 24.3141 86.198 24.6092 85.329 24.6092C84.1485 24.6092 83.5336 23.8878 83.5336 22.4613V16.37H87.4523V14.2139H83.5582V10.2214H81.2463V14.2057H79V16.3618H81.1479V21.8874C81.1479 23.0105 81.2053 23.773 81.3119 24.1665ZM95.4374 16.2634C96.1588 16.2634 96.9541 16.6569 97.7985 17.4522L99.0692 15.3452C98.0362 14.4024 96.7901 13.9679 96.0604 13.9679H95.8965C95.0603 13.9679 93.6584 13.9679 92.527 15.8125L92.486 15.8863L92.4942 14.2139H90.0758V26.544H92.4942V20.1002C92.4942 19.0672 92.7812 18.1654 93.3632 17.403C93.9453 16.6487 94.6422 16.2634 95.4374 16.2634Z" fill="white"/>
</svg>
