<svg width="32" height="32" viewBox="0 0 32 32" fill="none" xmlns="http://www.w3.org/2000/svg">
<rect x="0.562044" y="31.2485" width="30.8974" height="30.8974" rx="8.07546" transform="rotate(-90 0.562044 31.2485)" fill="white" stroke="#E8EEFF" stroke-width="0.702214"/>
<path fill-rule="evenodd" clip-rule="evenodd" d="M19.5077 16.2491L16.5641 13.3055C16.2963 13.0378 16.2963 12.6036 16.5641 12.3358C16.8319 12.068 17.266 12.068 17.5338 12.3358L20.9623 15.7643C21.2301 16.0321 21.2301 16.4662 20.9623 16.734L17.5338 20.1624C17.2661 20.4302 16.8319 20.4302 16.5641 20.1624C16.2963 19.8947 16.2963 19.4605 16.5641 19.1927L19.5077 16.2491Z" fill="#023E7D"/>
<path fill-rule="evenodd" clip-rule="evenodd" d="M13.8886 16.0497L10.945 18.9933C10.6772 19.2611 10.6772 19.6952 10.945 19.963C11.2128 20.2308 11.6469 20.2308 11.9147 19.963L15.3431 16.5346C15.6109 16.2668 15.6109 15.8326 15.3431 15.5648L11.9147 12.1364C11.6469 11.8686 11.2128 11.8686 10.945 12.1364C10.6772 12.4042 10.6772 12.8383 10.945 13.1061L13.8886 16.0497Z" fill="#023E7D"/>
</svg>
