<svg width="27" height="32" viewBox="0 0 27 32" fill="none" xmlns="http://www.w3.org/2000/svg">
<path d="M21.7962 0.9375L26.223 5.37815L26.2059 5.39451L21.8338 5.39778L21.793 0.940771L21.7962 0.9375Z" fill="#A51600"/>
<path d="M9.91353 7.94764C9.91353 8.79017 9.44284 9.18819 8.72041 9.1825C8.62149 9.1825 8.5112 9.1825 8.44336 9.167V6.85998C8.5112 6.84448 8.6264 6.82812 8.80461 6.82812C9.48942 6.82812 9.91844 7.21539 9.91353 7.94764Z" fill="#F1F1F1"/>
<path d="M6.34658 7.33563C6.34658 7.69688 6.0851 7.9117 5.66177 7.9117C5.54657 7.9117 5.46237 7.90601 5.39453 7.89051V6.84936C5.45256 6.83386 5.56199 6.81836 5.72385 6.81836C6.12187 6.81836 6.34658 7.01114 6.34658 7.33563Z" fill="#F1F1F1"/>
<path d="M3.68604 4.03906H17.4151V11.966H3.68604H3.65255H0.744141V4.03906H3.65255H3.68604Z" fill="#A51600"/>
<path d="M15.342 16.0576C15.3518 16.8805 14.8255 18.4862 14.8255 18.4862C14.6441 18.2951 14.2812 17.2719 14.2812 16.3256C14.2812 15.3793 14.587 15.1211 14.8255 15.1211C15.0649 15.121 15.3321 15.2354 15.342 16.0576Z" fill="#DC1D00"/>
<path d="M21.0751 23.2345C21.0751 24.3214 19.1057 23.8784 17.8945 22.7254C17.8945 22.7254 21.0751 22.1483 21.0751 23.2345Z" fill="#DC1D00"/>
<path d="M9.64546 26.8147C8.67051 26.2313 11.6917 24.4341 12.2369 24.377C12.2369 24.377 10.6661 27.4251 9.64546 26.8147Z" fill="#DC1D00"/>
<path d="M15.2788 20.2754C15.8329 21.3076 16.9327 22.522 16.9327 22.522C16.9327 22.522 16.5119 22.5693 15.5338 22.8088C14.5555 23.0482 14.0645 23.2967 14.0645 23.2967C14.0645 23.2967 14.0645 23.2967 14.4657 22.3978C14.8677 21.4988 15.2788 20.2754 15.2788 20.2754Z" fill="#DC1D00"/>
<path d="M26.2482 5.39465V31.3336H3.69336V11.9658H17.4224V4.0389H3.69336V0.933594H21.8018L21.8051 0.937644L21.8018 0.940915L21.8426 5.39793L26.2147 5.39465L26.2319 5.37838L26.2482 5.39465Z" fill="#DC1D00"/>
<path d="M12.2361 24.3765C11.691 24.4336 8.66974 26.2308 9.64469 26.8142C10.6654 27.4246 12.2361 24.3765 12.2361 24.3765ZM17.8927 22.7257C19.1039 23.8787 21.0732 24.3217 21.0732 23.2348C21.0732 22.1486 17.8927 22.7257 17.8927 22.7257ZM16.9398 22.5214C16.9398 22.5214 15.84 21.307 15.2859 20.2749C15.2859 20.2749 14.8749 21.4983 14.4728 22.3972C14.0716 23.2961 14.0716 23.2961 14.0716 23.2961C14.0716 23.2961 14.5627 23.0477 15.5409 22.8081C16.519 22.5688 16.9398 22.5214 16.9398 22.5214ZM14.8266 18.4868C14.8266 18.4868 15.3528 16.8811 15.3431 16.0581C15.3332 15.236 15.066 15.1217 14.8266 15.1217C14.588 15.1217 14.2823 15.3799 14.2823 16.3262C14.2823 17.2724 14.6451 18.2957 14.8266 18.4868ZM15.487 19.7298C16.0222 20.8869 17.4948 22.3776 17.4948 22.3776C17.4948 22.3776 17.972 22.2534 19.9415 22.206C21.9117 22.1586 21.9975 23.2667 22.0066 23.3623C22.0164 23.4588 22.0932 24.338 20.525 24.3952C18.9577 24.4525 17.3314 22.818 17.3314 22.818C17.3314 22.818 16.6629 22.9235 16.1088 23.0568C15.5549 23.1907 13.7757 23.6786 13.7757 23.6786C13.7757 23.6786 13.2495 24.6346 12.0833 26.1636C10.9164 27.6935 9.60964 27.5791 9.23702 27.0723C8.80395 26.484 9.13817 25.8965 9.9603 25.1314C10.7824 24.3666 12.6791 23.7325 12.6791 23.7325C12.6791 23.7325 13.0616 23.0444 13.6222 21.7312C14.1827 20.4179 14.6069 19.0989 14.6069 19.0989C14.6069 19.0989 14.052 17.8388 13.9441 16.7666C13.8232 15.5711 13.9572 14.7677 14.875 14.7579C15.7927 14.7481 16.0796 15.437 16.1081 16.6317C16.1365 17.8274 15.487 19.7298 15.487 19.7298Z" fill="white"/>
<path d="M13.4155 6.86531V6.24219H11.3125V9.74723H12.0914V8.34521H13.3376V7.72209H12.0914V6.86531H13.4155Z" fill="white"/>
<path d="M10.1643 6.5916C9.82437 6.33503 9.3554 6.21484 8.68523 6.21484C8.28239 6.21484 7.96171 6.24101 7.57227 6.28837V9.75174C7.88382 9.77784 8.09927 9.80401 8.51279 9.80401C9.20336 9.80401 9.78636 9.65773 10.1574 9.34882C10.4973 9.06117 10.752 8.59531 10.752 7.9204C10.7521 7.29845 10.5312 6.86367 10.1643 6.5916ZM8.7132 9.18135C8.61428 9.18135 8.50702 9.18136 8.42913 9.16586V6.85884C8.50702 6.84334 8.61918 6.82698 8.79747 6.82698C9.48228 6.82698 9.9113 7.21433 9.90631 7.94657C9.90631 8.78902 9.43562 9.18704 8.7132 9.18135Z" fill="white"/>
<path d="M6.75891 6.49758C6.52361 6.30878 6.17801 6.21484 5.68606 6.21484C5.19987 6.21484 4.84695 6.24678 4.61328 6.28837V9.74629H5.39218V8.50628C5.47007 8.51688 5.56034 8.52264 5.66495 8.52264C6.13564 8.52264 6.53879 8.40744 6.81094 8.1508C7.02015 7.95225 7.13551 7.65884 7.13551 7.31395C7.13543 6.96827 6.98362 6.6758 6.75891 6.49758ZM5.65989 7.91051C5.54469 7.91051 5.46999 7.90482 5.3921 7.88932V6.84817C5.46999 6.83267 5.56026 6.81717 5.72196 6.81717C6.1199 6.81717 6.34469 7.01002 6.34469 7.33443C6.34469 7.69561 6.08322 7.91051 5.65989 7.91051Z" fill="white"/>
</svg>
