<svg width="32" height="32" viewBox="0 0 32 32" fill="none" xmlns="http://www.w3.org/2000/svg">
<rect x="31.2485" y="0.351107" width="30.8974" height="30.8974" rx="8.07546" transform="rotate(90 31.2485 0.351107)" fill="white" stroke="#E8EEFF" stroke-width="0.702214"/>
<path fill-rule="evenodd" clip-rule="evenodd" d="M12.3029 15.3505L15.2465 18.2941C15.5142 18.5619 15.5142 18.996 15.2465 19.2638C14.9787 19.5316 14.5445 19.5316 14.2767 19.2638L10.8483 15.8353C10.5805 15.5676 10.5805 15.1334 10.8483 14.8656L14.2767 11.4372C14.5445 11.1694 14.9787 11.1694 15.2465 11.4372C15.5142 11.7049 15.5142 12.1391 15.2465 12.4069L12.3029 15.3505Z" fill="#023E7D"/>
<path fill-rule="evenodd" clip-rule="evenodd" d="M17.922 15.5499L20.8656 12.6063C21.1334 12.3385 21.1334 11.9044 20.8656 11.6366C20.5978 11.3688 20.1637 11.3688 19.8959 11.6366L16.4674 15.0651C16.1997 15.3328 16.1997 15.767 16.4674 16.0348L19.8959 19.4632C20.1637 19.731 20.5978 19.731 20.8656 19.4632C21.1334 19.1954 21.1334 18.7613 20.8656 18.4935L17.922 15.5499Z" fill="#023E7D"/>
</svg>
