<svg width="61" height="13" viewBox="0 0 61 13" fill="none" xmlns="http://www.w3.org/2000/svg">
<path fill-rule="evenodd" clip-rule="evenodd" d="M59.2119 0.0214844L58.002 1.86717H59.7904L60.9992 0.0214844H59.2119Z" fill="#F04E29"/>
<path fill-rule="evenodd" clip-rule="evenodd" d="M44.4488 6.11448H48.0641L49.2605 4.29484H44.4623V1.85545H48.9583L50.1672 0.00976562H42.4236V10.3069H48.9448L50.1547 8.46117H44.4488V6.11448ZM50.864 0.0222646L49.6541 1.86795H53.072V10.3194H55.1097V1.86795H57.2792L58.4892 0.0222646H50.864ZM37.9672 0.0358052L36.7572 1.86899H39.6102V6.76027C39.6102 7.86747 38.8603 8.71115 37.7563 8.71115C36.6523 8.71115 35.9679 7.91955 35.8371 6.86547L33.9043 7.26127C34.22 9.19965 35.6003 10.5579 37.7563 10.5579C40.0962 10.5579 41.6478 8.96217 41.6478 6.77381V0.0358052H37.9672Z" fill="#404099"/>
<path fill-rule="evenodd" clip-rule="evenodd" d="M33.2828 2.87477V10.3638H31.2327V2.87477H33.2828ZM31.2327 1.71445V0.0260396H33.2828V1.7134H31.2327V1.71445ZM25.7771 8.49099C25.8696 8.64931 25.988 8.78055 26.1323 8.88679C26.2767 8.99199 26.448 9.07115 26.6319 9.11073C26.8292 9.16385 27.013 9.18989 27.2104 9.17635C27.3682 9.17635 27.5126 9.16281 27.6704 9.12323C27.8283 9.09719 27.9727 9.04407 28.1046 8.96491C28.2365 8.89929 28.3413 8.79305 28.4327 8.67535C28.5252 8.54307 28.5646 8.38579 28.5646 8.21393C28.5646 7.91082 28.3538 7.67334 27.9467 7.51502C27.3942 7.31712 26.8167 7.1588 26.2383 7.0536C25.936 6.98798 25.6463 6.90882 25.3711 6.81612C25.1083 6.73696 24.8455 6.60468 24.6088 6.4599C24.3855 6.31512 24.2141 6.11722 24.0697 5.89328C23.9254 5.64226 23.8589 5.3527 23.8724 5.06209C23.8589 4.65379 23.9513 4.23091 24.1487 3.87573C24.3325 3.57263 24.5828 3.32161 24.8975 3.15079C25.2257 2.96643 25.5673 2.83415 25.936 2.76853C26.3307 2.68937 26.7243 2.66333 27.119 2.66333C27.5136 2.66333 27.9072 2.70291 28.3019 2.78207C28.6571 2.84769 29.0112 2.97997 29.3145 3.17787C29.6167 3.36223 29.867 3.61325 30.0633 3.90281C30.2731 4.24549 30.3915 4.64129 30.4185 5.0496H28.4732C28.4473 4.65379 28.2894 4.39027 28.0267 4.24549C27.7244 4.10071 27.4087 4.02155 27.0805 4.03405C26.9486 4.03405 26.8313 4.04759 26.6994 4.06009C26.5675 4.07363 26.4501 4.09967 26.3317 4.15279C26.2268 4.20591 26.1209 4.27153 26.0555 4.36423C25.9765 4.46943 25.9371 4.60171 25.9371 4.73295C25.9371 4.90482 26.0025 5.07564 26.1344 5.18083C26.2923 5.31312 26.4626 5.40478 26.6599 5.4579C26.9092 5.53706 27.146 5.60268 27.4087 5.6558C27.685 5.70892 27.9737 5.77454 28.2635 5.84016C28.5522 5.90578 28.8554 5.98494 29.1307 6.09118C29.4069 6.18388 29.6562 6.31512 29.893 6.47344C30.1162 6.63176 30.3001 6.82966 30.432 7.06714C30.5763 7.33066 30.6428 7.63376 30.6293 7.93686C30.6688 8.76805 30.2617 9.54507 29.5648 9.98045C29.2366 10.1919 28.8679 10.3367 28.4732 10.4023C28.0661 10.4815 27.6455 10.521 27.2249 10.521C26.8043 10.521 26.3702 10.4815 25.9495 10.3888C25.5549 10.3096 25.1872 10.1648 24.8455 9.95337C24.5174 9.75547 24.2536 9.47841 24.0573 9.14927C23.834 8.76701 23.7156 8.33162 23.7156 7.89624H25.6349C25.6349 8.12018 25.6743 8.31808 25.7792 8.48994L25.7771 8.49099ZM20.2956 8.80763C20.5189 8.67535 20.7027 8.49099 20.8481 8.28059C20.9925 8.04311 21.0974 7.79313 21.1503 7.51606C21.2033 7.2265 21.2428 6.92236 21.2428 6.6328C21.2428 6.34324 21.2168 6.0391 21.1503 5.74954C21.0974 5.47248 20.9925 5.20896 20.8346 4.97148C20.6903 4.74754 20.5064 4.56318 20.2821 4.41735C20.0328 4.27257 19.7431 4.19341 19.4544 4.20591C19.1656 4.19237 18.8624 4.27153 18.6131 4.41735C18.3898 4.54964 18.206 4.734 18.0606 4.95794C17.9163 5.19542 17.8114 5.45894 17.7584 5.72246C17.7054 6.01202 17.666 6.31616 17.666 6.61926C17.666 6.92236 17.6919 7.21296 17.7584 7.50252C17.8114 7.76604 17.9163 8.02957 18.0606 8.26705C18.5737 8.99199 19.5333 9.21593 20.2956 8.80763ZM12.4877 4.61526C12.2384 4.35173 11.8697 4.20695 11.3702 4.20695C11.0939 4.19341 10.8052 4.26008 10.5549 4.37882C10.3576 4.47152 10.1738 4.6163 10.0294 4.78712C9.91101 4.94544 9.80611 5.11626 9.75315 5.31416C9.70018 5.47248 9.67421 5.6433 9.66071 5.80162H12.9997C12.9073 5.28708 12.7369 4.89232 12.4866 4.61526H12.4877ZM10.1738 8.55765C10.476 8.86075 10.9226 9.00553 11.501 9.00553C11.8822 9.01907 12.2499 8.91283 12.5656 8.68889C12.8678 8.47745 13.0516 8.26705 13.1181 8.02956H14.919C14.6302 8.92637 14.1826 9.57215 13.5917 9.95441C12.9997 10.3367 12.2769 10.5346 11.4232 10.5346C10.8841 10.5481 10.3451 10.4419 9.83311 10.2575C9.38653 10.0857 8.96592 9.80963 8.63669 9.45341C8.3085 9.09719 8.04471 8.67535 7.87438 8.21393C7.69056 7.69938 7.59813 7.1588 7.61163 6.61822C7.61163 6.09118 7.70406 5.5506 7.88789 5.0496C8.22957 4.11321 8.95241 3.34869 9.87258 2.96643C10.3586 2.75499 10.8852 2.64979 11.4242 2.66333C12.0027 2.64979 12.5677 2.78207 13.0807 3.03205C13.5408 3.26953 13.9354 3.61221 14.2377 4.02051C14.5399 4.44235 14.7632 4.92981 14.8951 5.44436C15.027 5.98494 15.0789 6.55156 15.0394 7.10568H9.65033C9.70329 7.77854 9.87362 8.25246 10.1758 8.55556L10.1738 8.55765ZM17.7324 13H15.6948V2.87477H17.64V3.82365H17.666C17.8892 3.44139 18.2185 3.13829 18.6121 2.94039C19.0067 2.75603 19.4398 2.66333 19.8874 2.66333C20.413 2.64979 20.926 2.76853 21.3996 2.99247C21.8067 3.20391 22.1754 3.50701 22.4517 3.87573C22.7404 4.25799 22.9512 4.69337 23.0696 5.1548C23.2015 5.6558 23.2804 6.17034 23.2669 6.68384C23.2669 7.1713 23.2015 7.6598 23.0696 8.13372C22.9377 8.5816 22.7414 8.99095 22.4517 9.35967C22.1754 9.71589 21.8202 10.0054 21.4266 10.2169C20.98 10.4408 20.4929 10.546 19.9934 10.5335C19.5468 10.5335 19.1127 10.4408 18.718 10.2565C18.3234 10.0721 17.9952 9.78151 17.7584 9.42529H17.7324V12.9979V13ZM2.05012 0.0135406V3.90281H2.08959C2.32638 3.49451 2.66807 3.16433 3.08869 2.95393C3.45634 2.76957 3.86449 2.66333 4.27161 2.65083C4.73169 2.63729 5.19178 2.71645 5.6259 2.87477C5.95408 3.00705 6.24384 3.21745 6.45363 3.49451C6.66446 3.78511 6.80882 4.11425 6.87425 4.47047C6.95318 4.89232 7.00615 5.31416 6.99265 5.736V10.3377H4.94252V6.10576C4.94252 5.48602 4.85009 5.0246 4.6538 4.7215C4.45647 4.4184 4.11479 4.26008 3.62874 4.26008C3.07622 4.26008 2.66911 4.43194 2.41985 4.76108C2.1706 5.09022 2.0387 5.64434 2.0387 6.40886V10.3377H0V0L2.05012 0.0135406Z" fill="#F04E29"/>
</svg>
