<svg width="58" height="21" viewBox="0 0 58 21" fill="none" xmlns="http://www.w3.org/2000/svg">
<g clip-path="url(#clip0_50_941)">
<path fill-rule="evenodd" clip-rule="evenodd" d="M48.8681 0.588965L57.4067 9.05312C58.1989 9.85505 58.1989 11.1487 57.4067 11.934L48.8681 20.3982C48.0591 21.2001 46.754 21.2001 45.945 20.3982L37.4231 11.934C36.6142 11.1487 36.6142 9.85505 37.4231 9.05312L45.945 0.588965C46.754 -0.196322 48.0591 -0.196322 48.8681 0.588965Z" fill="#ED1C2E"/>
<path fill-rule="evenodd" clip-rule="evenodd" d="M51.2633 4.09375C51.2633 4.09375 51.2801 9.41373 51.2633 10.5606C51.2633 11.0191 50.8344 11.3959 50.3719 11.3959H46.0781L51.2633 4.09375Z" fill="white"/>
<path fill-rule="evenodd" clip-rule="evenodd" d="M51.0979 4.09375L44.3604 11.3959H40.4955C40.3139 11.3959 40.1811 11.2491 40.2315 11.0524C40.2651 10.954 40.3643 10.8557 40.462 10.7906C41.651 10.022 51.0979 4.09526 51.0979 4.09526V4.09375Z" fill="white"/>
<path fill-rule="evenodd" clip-rule="evenodd" d="M31.3117 11.5914C30.5348 11.5914 29.8082 11.4764 29.1152 11.313L29.7258 9.8226C30.2219 10.0511 30.7668 10.2478 31.3774 10.2478C31.8399 10.2478 32.5496 10.101 32.7816 9.49426C33.1449 8.46234 30.634 7.66041 31.2461 5.97484C31.675 4.76287 32.8152 3.96094 34.7644 3.96094C35.491 3.96094 36.2343 4.07593 36.9105 4.20606L36.332 5.64651C35.9352 5.46645 35.4895 5.30304 34.9445 5.30304C34.334 5.30304 33.6898 5.38474 33.4578 6.00662C33.1281 6.94019 35.6207 7.80718 34.9613 9.62439C34.4164 11.1299 32.5496 11.5884 31.3117 11.5884V11.5914Z" fill="#003A80"/>
<path fill-rule="evenodd" clip-rule="evenodd" d="M27.1663 9.85637C27.3815 9.33285 27.6776 8.62775 28.0745 7.66241C27.0671 8.33422 24.6233 8.251 24.1608 9.56132C23.9135 10.2483 24.4905 10.4616 25.0858 10.4283C26.0276 10.3633 27.1663 9.85486 27.1663 9.85486V9.85637ZM24.0952 11.5919C21.717 11.6736 21.9643 10.1998 22.1963 9.52955C23.2694 6.56694 28.1249 7.53228 28.6866 5.94355C28.9506 5.23997 28.1752 5.09169 27.6303 5.14162C26.9373 5.20668 26.5572 5.28839 25.962 5.43667L26.4244 4.24134C27.2166 4.12635 27.5143 4.04464 28.5874 3.96293C29.8924 3.86458 31.3456 4.27463 30.767 5.86185C30.4038 6.9089 29.3139 9.21785 28.5202 11.4285H26.5542C26.6534 11.2318 26.7526 10.9216 26.7526 10.9216C26.7526 10.9216 25.3483 11.5601 24.0936 11.5934L24.0952 11.5919Z" fill="#003A80"/>
<path fill-rule="evenodd" clip-rule="evenodd" d="M37.6377 5.35394C37.7033 5.10883 37.7705 4.86219 37.8529 4.60043H38.0681C38.117 4.60043 38.2009 4.61708 38.1841 4.73207C38.1505 4.86371 38.0361 4.89548 37.9201 4.89548C37.8865 4.89548 37.8544 4.87884 37.8376 4.87884C37.8865 5.04225 37.9368 5.19053 37.9857 5.35394H38.2009C38.1353 5.22231 38.0681 5.10883 38.0193 4.97719C38.1017 4.97719 38.2833 4.9439 38.349 4.71543C38.3826 4.55201 38.2833 4.50208 38.1338 4.50208H37.7216C37.6392 4.78049 37.5568 5.07554 37.4744 5.35394H37.6392H37.6377ZM37.7201 5.68077C38.2162 5.68077 38.5947 5.35394 38.6939 4.92726C38.7932 4.53386 38.6283 4.20703 38.1322 4.20703C37.6362 4.20703 37.2576 4.53386 37.1584 4.96054C37.0592 5.35394 37.224 5.68077 37.7201 5.68077ZM37.7537 5.56729C37.3736 5.56729 37.2423 5.28888 37.3248 4.96206C37.4072 4.60194 37.7369 4.32354 38.1002 4.32354C38.4635 4.32354 38.6115 4.60194 38.5291 4.92877C38.4467 5.28888 38.117 5.56729 37.7537 5.56729Z" fill="#003A80"/>
<path fill-rule="evenodd" clip-rule="evenodd" d="M17.0428 9.85637C17.258 9.33285 17.5541 8.62775 17.951 7.66241C16.9436 8.33422 14.4998 8.251 14.0373 9.56132C13.7901 10.2483 14.367 10.4616 14.9623 10.4283C15.9041 10.3633 17.0428 9.85486 17.0428 9.85486V9.85637ZM13.9702 11.5919C11.592 11.6736 11.8393 10.1998 12.0713 9.52955C13.1444 6.56694 17.9999 7.53228 18.5616 5.94355C18.8256 5.23997 18.0502 5.09169 17.5053 5.14162C16.8123 5.20668 16.4322 5.28839 15.837 5.43667L16.2995 4.24134C17.0917 4.12635 17.3725 4.04464 18.4624 3.96293C19.7674 3.86458 21.2206 4.27463 20.642 5.86185C20.2788 6.9089 19.1889 9.21785 18.3967 11.4285H16.4307C16.5299 11.2318 16.6292 10.9216 16.6292 10.9216C16.6292 10.9216 15.2249 11.5601 13.9702 11.5934V11.5919Z" fill="#003A80"/>
<path fill-rule="evenodd" clip-rule="evenodd" d="M23.0051 6.31813C22.5426 7.57853 21.0559 11.4263 21.0559 11.4263H19.041C19.1067 11.3113 20.2301 8.36533 21.0559 6.20465C21.8816 4.04398 22.9883 3.84728 24.5742 3.91234C25.0031 3.94563 25.4992 4.02733 25.9113 4.10904L25.3664 5.36943C24.5238 5.17273 23.4996 5.02596 23.0051 6.31965V6.31813Z" fill="#003A80"/>
<path fill-rule="evenodd" clip-rule="evenodd" d="M20.1145 15.455C19.8336 15.5533 19.5696 15.6018 19.3055 15.6018C18.6782 15.6018 18.4965 15.225 18.7117 14.6364C18.927 13.9979 19.4215 13.5394 20.0824 13.5394C20.3801 13.5394 20.5938 13.5879 20.8426 13.6711L21.1235 13.0159C20.8426 12.9176 20.4961 12.8691 20.1649 12.8691C18.4141 12.8691 17.8692 14.4079 17.7867 14.6531C17.4235 15.685 17.8035 16.2736 18.843 16.2736C19.1575 16.2736 19.5207 16.2085 19.8336 16.1419L20.1145 15.455Z" fill="#003A80"/>
<path fill-rule="evenodd" clip-rule="evenodd" d="M24.8218 17.5506C25.2675 17.6656 25.73 17.7307 26.2261 17.7307C27.1679 17.7307 27.9113 17.4356 28.2898 16.4052C28.8515 14.9148 29.3629 13.721 29.6605 13.0326C29.2148 12.9508 28.7691 12.8691 28.3066 12.8691C26.3742 12.8691 25.6308 14.2445 25.4324 14.818C25.118 15.6698 25.466 16.2251 26.3406 16.2251C26.8199 16.2251 27.2992 16.0284 27.6945 15.6683H27.7113C27.4137 16.3886 27.2 17.0921 26.2078 17.0921C25.7789 17.0921 25.3988 16.9938 25.0355 16.847L24.8203 17.5506H24.8218ZM28.5371 13.5712C28.3722 13.9646 28.2394 14.3565 28.041 14.7166C27.809 15.1751 27.3633 15.5836 26.8687 15.5836C26.3406 15.5836 26.191 15.2401 26.3727 14.7317C26.4887 14.3883 26.9176 13.5046 28.041 13.5046C28.2059 13.5046 28.3707 13.5379 28.5371 13.5697V13.5712Z" fill="#003A80"/>
<path fill-rule="evenodd" clip-rule="evenodd" d="M31.6754 12.8667C30.5687 12.8667 29.5781 13.5386 29.1812 14.6507C28.9339 15.3542 29.0332 16.2712 30.3703 16.2712C31.8738 16.2712 32.6156 15.1409 32.8476 14.519C33.2109 13.4553 32.6996 12.8652 31.6754 12.8652V12.8667ZM31.4433 13.5053C32.0371 13.5053 32.1211 13.9637 31.9394 14.5039C31.7242 15.0774 31.2617 15.6342 30.6023 15.6342C30.0406 15.6342 29.9093 15.1923 30.091 14.6688C30.3062 14.0636 30.7519 13.5068 31.4449 13.5068L31.4433 13.5053Z" fill="#003A80"/>
<path fill-rule="evenodd" clip-rule="evenodd" d="M22.4278 15.4698C22.527 15.2413 22.6598 14.9296 22.8399 14.4878C22.3942 14.7995 21.2876 14.7662 21.0723 15.3396C20.9563 15.6513 21.2372 15.7482 21.5013 15.733C21.9134 15.6997 22.4263 15.4713 22.4263 15.4713L22.4278 15.4698ZM21.0403 16.2566C19.984 16.305 20.0817 15.6347 20.1977 15.3396C20.677 13.9975 22.8567 14.4227 23.1208 13.7191C23.2368 13.4074 22.8903 13.3257 22.6415 13.359C22.327 13.3923 22.1622 13.4241 21.8813 13.4906L22.0966 12.9505C22.443 12.9021 22.5758 12.8688 23.0704 12.8355C23.6489 12.7871 24.3083 12.9671 24.061 13.6873C23.8794 14.1625 23.4001 15.1929 23.0368 16.1915H22.1622C22.1958 16.0931 22.2446 15.963 22.2446 15.963C22.2446 15.963 21.6173 16.2414 21.0388 16.2581L21.0403 16.2566Z" fill="#003A80"/>
<path fill-rule="evenodd" clip-rule="evenodd" d="M25.186 13.8996C24.9707 14.4731 24.3113 16.1753 24.3113 16.1753L23.4199 16.1919C23.4367 16.1269 23.9481 14.8165 24.3113 13.8678C24.7082 12.9509 25.1707 12.8042 25.8805 12.8359C26.0789 12.8526 26.2941 12.8843 26.4758 12.9176L26.2453 13.4744C25.8652 13.3927 25.4027 13.3428 25.189 13.8996H25.186Z" fill="#003A80"/>
<path fill-rule="evenodd" clip-rule="evenodd" d="M0.0488447 20.5946H0.627349C0.775409 20.3812 0.941786 20.1861 1.10664 19.9894C1.12343 20.1861 1.10664 20.3828 1.10664 20.5946H1.66835L3.41913 18.5156H2.93984C2.47734 19.1042 1.99805 19.6777 1.51876 20.2511V19.5143L2.34454 18.5156H1.91563L1.5035 19.0558H1.48671L1.52029 18.5156H1.07458C1.07458 18.8591 1.09137 19.1874 1.07458 19.5475C0.876151 19.7927 0.67772 20.0226 0.480815 20.2678C0.464024 19.6777 0.464024 19.1057 0.480815 18.5156H0L0.0488447 20.5946Z" fill="#003A80"/>
<path fill-rule="evenodd" clip-rule="evenodd" d="M4.41055 18.4668C3.70078 18.4668 3.03985 18.8768 2.77578 19.6122C2.52851 20.2991 2.94063 20.6275 3.58477 20.6275C4.29455 20.6275 4.93869 20.2507 5.18596 19.5138C5.43324 18.8269 5.05316 18.4668 4.40903 18.4668H4.41055ZM4.27776 18.8118C4.70667 18.8118 4.85626 19.1068 4.70667 19.5154C4.55861 19.9572 4.17854 20.3006 3.71604 20.3006C3.28712 20.3006 3.10548 20.0222 3.25354 19.5971C3.41839 19.1386 3.81526 18.8118 4.27776 18.8118Z" fill="#003A80"/>
<path fill-rule="evenodd" clip-rule="evenodd" d="M6.37379 19.6444C6.73707 19.5793 7.03472 19.3993 7.16599 19.0225C7.29879 18.6457 7.03319 18.5156 6.66991 18.5156H5.71133C5.46406 19.2026 5.19999 19.9077 4.90234 20.5946H5.36484C5.48085 20.2829 5.92656 19.1042 6.04256 18.8258C6.15857 18.8258 6.25778 18.8092 6.37226 18.8092C6.57069 18.8092 6.78439 18.8424 6.6867 19.0876C6.60428 19.3493 6.34021 19.4643 6.09141 19.4643C6.04256 19.4643 5.9754 19.4477 5.90977 19.431C5.9754 19.8244 6.04256 20.1845 6.05783 20.5931H6.5539L6.37226 19.6429L6.37379 19.6444Z" fill="#003A80"/>
<path fill-rule="evenodd" clip-rule="evenodd" d="M8.32263 20.2511H7.332C7.48006 19.8577 7.95935 18.6957 8.04177 18.5156H7.5457C7.29842 19.2026 7.01756 19.891 6.70312 20.5946H8.17304L8.32111 20.2511H8.32263Z" fill="#003A80"/>
<path fill-rule="evenodd" clip-rule="evenodd" d="M9.03281 18.5152C8.75195 19.3504 8.35509 20.2673 8.20703 20.5942H9.11524C9.92423 20.5942 10.4692 20.1024 10.6844 19.4639C10.9316 18.7769 10.6019 18.5137 10.057 18.5137H9.03281V18.5152ZM9.36404 18.842H9.89217C10.3379 18.842 10.3379 19.1688 10.2387 19.4472C10.1059 19.8558 9.77617 20.2492 9.14882 20.2492H8.80233L9.36404 18.842Z" fill="#003A80"/>
<path fill-rule="evenodd" clip-rule="evenodd" d="M10.9829 20.5946H11.5446C11.7094 20.3812 11.8743 20.1861 12.0407 19.9894C12.0407 20.1861 12.0407 20.3828 12.0239 20.5946H12.5856L14.3531 18.5156H13.8739C13.4114 19.1042 12.9321 19.6777 12.4528 20.2511C12.436 20.006 12.436 19.7594 12.4528 19.5143L13.2786 18.5156H12.8496L12.4207 19.0558L12.4543 18.5156H11.9918C12.0086 18.8591 12.0086 19.1874 12.0086 19.5475C11.8102 19.7927 11.6117 20.0226 11.398 20.2678C11.398 19.6777 11.398 19.1057 11.4148 18.5156H10.9355L10.9844 20.5946H10.9829Z" fill="#003A80"/>
<path fill-rule="evenodd" clip-rule="evenodd" d="M14.0879 20.5946C14.4176 19.6777 14.6496 19.1042 14.8969 18.5156H14.4008C14.1031 19.3508 13.8559 19.9561 13.5918 20.5946H14.0879Z" fill="#003A80"/>
<path fill-rule="evenodd" clip-rule="evenodd" d="M15.1109 18.5152C14.8133 19.3504 14.4332 20.2673 14.2852 20.5942H15.1934C16.0024 20.5942 16.5473 20.1024 16.7625 19.4639C17.0098 18.7769 16.6633 18.5137 16.1351 18.5137H15.1109V18.5152ZM15.4406 18.842H15.9688C16.4145 18.842 16.4145 19.1688 16.3153 19.4472C16.1825 19.8558 15.836 20.2492 15.2086 20.2492H14.8789L15.4406 18.842Z" fill="#003A80"/>
<path fill-rule="evenodd" clip-rule="evenodd" d="M17.275 18.5156C17.1269 18.9242 16.6644 20.1694 16.4492 20.5946H17.9848L18.1328 20.2345C17.852 20.2511 17.7528 20.2511 17.6703 20.2511H17.0598L17.2903 19.6943H18.2153L18.3313 19.3675C18.1664 19.3675 18.0336 19.3841 17.9176 19.3841H17.4063L17.6215 18.844H18.1328C18.3145 18.844 18.4961 18.844 18.6778 18.8606L18.8106 18.5171H17.275V18.5156Z" fill="#003A80"/>
<path fill-rule="evenodd" clip-rule="evenodd" d="M19.8844 18.5156C19.7363 18.9242 19.257 20.1694 19.0586 20.5946H20.5774L20.7254 20.2345C20.4446 20.2511 20.3621 20.2511 20.2797 20.2511H19.6524L19.8828 19.6943H20.8078L20.9406 19.3675C20.759 19.3675 20.6262 19.3841 20.5117 19.3841H20.0156L20.2309 18.844H20.7422C20.9238 18.844 21.0887 18.844 21.2703 18.8606L21.4031 18.5171H19.8844V18.5156Z" fill="#003A80"/>
<path fill-rule="evenodd" clip-rule="evenodd" d="M22.1633 19.2026L21.9984 18.5156H21.4535C21.5527 18.8424 21.6687 19.1541 21.7344 19.4976C21.3375 19.8577 20.9254 20.2345 20.5117 20.5946H21.0399L21.8656 19.8259C21.9145 20.0877 21.9984 20.3328 22.0473 20.5946H22.5922C22.493 20.2345 22.377 19.891 22.2778 19.5143C22.641 19.1708 23.0211 18.8591 23.4012 18.5156H22.8898L22.1633 19.2026Z" fill="#003A80"/>
<path fill-rule="evenodd" clip-rule="evenodd" d="M23.5668 19.711C23.6492 19.7276 23.7148 19.7276 23.7973 19.7276C24.2094 19.7276 24.6398 19.4991 24.7879 19.0558C24.8703 18.8424 24.8535 18.5156 24.4414 18.5156H23.4508C23.2691 19.0391 22.7899 20.2345 22.625 20.5946H23.0875C23.2691 20.0711 23.666 19.0391 23.7484 18.8258C23.8644 18.8258 23.9789 18.8092 24.0949 18.8092C24.3101 18.8092 24.4094 18.8742 24.3422 19.0709C24.2598 19.3009 24.0613 19.431 23.7805 19.431C23.7148 19.431 23.6645 19.4144 23.5988 19.4144L23.5653 19.7094L23.5668 19.711Z" fill="#003A80"/>
<path fill-rule="evenodd" clip-rule="evenodd" d="M25.7468 19.6444C26.1101 19.5793 26.4246 19.3993 26.539 19.0225C26.6871 18.6457 26.4062 18.5156 26.043 18.5156H25.1012C24.8539 19.2026 24.5898 19.9077 24.2754 20.5946H24.7547C24.8539 20.2829 25.3164 19.1042 25.4156 18.8258C25.5316 18.8258 25.6476 18.8092 25.7621 18.8092C25.9437 18.8092 26.159 18.8424 26.0765 19.0876C25.9773 19.3493 25.7133 19.4643 25.4812 19.4643C25.4156 19.4643 25.3484 19.4477 25.2996 19.431C25.3484 19.8244 25.4156 20.1845 25.4324 20.5931H25.9437L25.7453 19.6429L25.7468 19.6444Z" fill="#003A80"/>
<path fill-rule="evenodd" clip-rule="evenodd" d="M26.9195 18.5156C26.7715 18.9242 26.2922 20.1694 26.0938 20.5946H27.6293L27.7621 20.2345C27.498 20.2511 27.3988 20.2511 27.3164 20.2511H26.7058L26.9211 19.6943H27.8461L27.9789 19.3675C27.7972 19.3675 27.6812 19.3841 27.5499 19.3841H27.0539L27.2691 18.844H27.7804C27.9621 18.844 28.1437 18.844 28.3086 18.8606L28.4413 18.5171H26.9226L26.9195 18.5156Z" fill="#003A80"/>
<path fill-rule="evenodd" clip-rule="evenodd" d="M29.825 18.5338C29.677 18.5005 29.5106 18.4688 29.3457 18.4688C28.9824 18.4688 28.5688 18.6488 28.4375 19.0089C28.2559 19.5158 28.9992 19.7458 28.8832 20.056C28.8176 20.236 28.6024 20.3011 28.4543 20.3011C28.2559 20.3011 28.091 20.236 27.943 20.1694L27.8438 20.5462C28.0254 20.5946 28.207 20.6279 28.4055 20.6279C28.9992 20.6279 29.2648 20.3011 29.3473 20.0711C29.5289 19.5793 28.7855 19.3675 28.9015 19.0392C28.9504 18.9075 29.132 18.8107 29.3305 18.8107C29.4785 18.8107 29.6113 18.844 29.7273 18.8924L29.8265 18.5323L29.825 18.5338Z" fill="#003A80"/>
<path fill-rule="evenodd" clip-rule="evenodd" d="M31.3133 18.5338C31.1652 18.5005 30.9989 18.4688 30.834 18.4688C30.4707 18.4688 30.0571 18.6488 29.9258 19.0089C29.7442 19.5158 30.4875 19.7458 30.3715 20.056C30.3059 20.236 30.0907 20.3011 29.9426 20.3011C29.7442 20.3011 29.5793 20.236 29.4312 20.1694L29.332 20.5462C29.5137 20.5946 29.6953 20.6279 29.8937 20.6279C30.4722 20.6279 30.7531 20.3011 30.8355 20.0711C31.0172 19.5793 30.2738 19.3675 30.3898 19.0392C30.4387 18.9075 30.6203 18.8107 30.8187 18.8107C30.9668 18.8107 31.0996 18.844 31.2156 18.8924L31.3148 18.5323L31.3133 18.5338Z" fill="#003A80"/>
</g>
<defs>
<clipPath id="clip0_50_941">
<rect width="58" height="21" fill="white"/>
</clipPath>
</defs>
</svg>
