<svg width="55" height="28" viewBox="0 0 55 28" fill="none" xmlns="http://www.w3.org/2000/svg">
<g clip-path="url(#clip0_50_928)">
<path d="M12.6723 23.4843C12.8858 21.2417 11.7291 20.1152 9.87526 20.1152C8.02144 20.1152 6.93359 21.3085 6.93359 22.9648C6.93359 24.7102 8.06792 25.8692 9.97681 25.8692C10.8185 25.8692 11.7738 25.5829 12.3573 24.9862L11.4812 24.1358C11.1662 24.4564 10.5035 24.6433 9.99919 24.6433C9.03355 24.6433 8.43799 24.1581 8.34848 23.4843H12.6723ZM8.37086 22.3681C8.57225 21.6617 9.17986 21.3085 9.92001 21.3085C10.7066 21.3085 11.2678 21.6617 11.3573 22.3681H8.36914H8.37086ZM16.0529 22.1247L14.9634 20.2798H13.323V20.3244L15.1424 22.9631L13.2111 25.6909V25.7235H14.8515L16.0529 23.9009L17.2544 25.7235H18.8948V25.6909L16.9635 22.9631L18.7829 20.3244V20.2798H17.1425L16.0529 22.1247ZM22.6557 24.5559C21.7228 24.5559 21.0842 23.8598 21.0842 23.0094C21.0842 22.159 21.6677 21.4629 22.6557 21.4629C23.6438 21.4629 24.2273 22.159 24.2273 23.0094C24.2273 23.8598 23.587 24.5559 22.6557 24.5559ZM20.9603 28.0004V25.0857C21.3527 25.6823 22.2185 25.8589 22.8021 25.8589C24.5767 25.8589 25.5991 24.6004 25.5991 23.0094C25.5991 21.4183 24.4648 20.1598 22.7573 20.1598C22.129 20.1598 21.3872 20.4256 20.9603 21.0325L20.8708 20.2815H19.5902V28.0004H20.9603ZM26.6095 20.2815V25.7252H27.9797V22.8533C27.9797 21.8486 28.6424 21.4731 29.3618 21.4731C29.8111 21.4731 30.0693 21.5949 30.3499 21.8263L30.9678 20.6553C30.6649 20.357 30.114 20.1358 29.5409 20.1358C28.9677 20.1358 28.4065 20.2353 27.9797 20.9091L27.8781 20.2798H26.6095V20.2815ZM36.9751 23.4843C37.1885 21.2417 36.0318 20.1152 34.178 20.1152C32.3242 20.1152 31.2363 21.3085 31.2363 22.9648C31.2363 24.7102 32.3706 25.8692 34.2795 25.8692C35.1212 25.8692 36.0766 25.5829 36.6601 24.9862L35.7839 24.1358C35.4689 24.4564 34.8063 24.6433 34.3019 24.6433C33.3363 24.6433 32.7407 24.1581 32.6512 23.4843H36.9751ZM32.6736 22.3681C32.875 21.6617 33.4826 21.3085 34.2227 21.3085C35.0094 21.3085 35.5705 21.6617 35.66 22.3681H32.6719H32.6736ZM42.4109 20.8439C41.7705 20.2918 41.1199 20.1255 40.2541 20.1255C39.2437 20.1255 37.9183 20.5679 37.9183 21.8263C37.9183 23.0848 39.1645 23.438 40.2093 23.5151C40.996 23.5597 41.3092 23.714 41.3092 24.0895C41.3092 24.4873 40.8256 24.7513 40.3092 24.741C39.6912 24.7308 38.7927 24.4101 38.4003 23.9798L37.7273 24.9399C38.5363 25.768 39.4124 25.9121 40.2885 25.9121C41.8721 25.9121 42.669 25.0839 42.669 24.1238C42.669 22.6767 41.3437 22.4453 40.2988 22.3784C39.5914 22.3338 39.2661 22.135 39.2661 21.7818C39.2661 21.4286 39.6258 21.24 40.2765 21.24C40.8049 21.24 41.2542 21.3617 41.6466 21.7252L42.4109 20.8422V20.8439ZM47.9258 20.8439C47.2855 20.2918 46.6349 20.1255 45.7691 20.1255C44.7587 20.1255 43.4333 20.5679 43.4333 21.8263C43.4333 23.0848 44.6795 23.438 45.7243 23.5151C46.5109 23.5597 46.8242 23.714 46.8242 24.0895C46.8242 24.4873 46.3405 24.7513 45.8242 24.741C45.2062 24.7308 44.3077 24.4101 43.9153 23.9798L43.2422 24.9399C44.0512 25.768 44.9274 25.9121 45.8035 25.9121C47.3871 25.9121 48.184 25.0839 48.184 24.1238C48.184 22.6767 46.8586 22.4453 45.8138 22.3784C45.1064 22.3338 44.7811 22.135 44.7811 21.7818C44.7811 21.4286 45.1408 21.24 45.7914 21.24C46.3199 21.24 46.7691 21.3617 47.1616 21.7252L47.9258 20.8422V20.8439Z" fill="#FF671B"/>
<path fill-rule="evenodd" clip-rule="evenodd" d="M19.6656 12.9504H13.4397C13.7255 14.1146 14.6739 14.9942 15.9063 14.9942C16.6017 14.9942 17.2834 14.6958 17.7378 14.1866L19.2439 14.2192C18.5812 15.4742 17.3161 16.2766 15.8478 16.2766C13.7048 16.2766 12.0231 14.4267 12.0231 12.3315C12.0231 10.2363 13.679 8.40008 15.8805 8.40008C18.082 8.40008 19.7121 10.1455 19.7121 12.2543C19.7052 12.4807 19.6931 12.7258 19.6673 12.9522L19.6656 12.9504ZM15.8616 9.6774C14.6412 9.6774 13.512 10.6341 13.4329 11.8703H18.2886C18.2111 10.641 17.0871 9.6774 15.8599 9.6774H15.8616ZM25.9052 16.0863V12.0177C25.9052 10.7507 25.5214 9.6774 24.029 9.6774C22.6469 9.6774 22.0496 10.7438 22.0496 12.0057V16.0863H20.6398V8.59725H21.9583V9.39279H21.9842C22.5298 8.6744 23.3147 8.38979 24.1857 8.38979C25.2563 8.38979 26.2633 8.80985 26.8468 9.72884C27.21 10.2981 27.3201 10.9839 27.3201 11.6491V16.0863H25.9052ZM34.8197 16.0863V15.0199H34.7939C34.1708 15.8857 33.1776 16.2749 32.1311 16.2749C29.8779 16.2749 28.2221 14.5998 28.2221 12.3692C28.2221 10.1386 29.8521 8.3915 32.1311 8.3915C33.0795 8.3915 34.0848 8.75327 34.682 9.51109H34.7079V6.08375H36.1176V16.088H34.8197V16.0863ZM32.2103 9.6774C30.7162 9.6774 29.6335 10.893 29.6335 12.3555C29.6335 13.818 30.7627 14.9942 32.1982 14.9942C33.6338 14.9942 34.8146 13.8043 34.8146 12.3555C34.8215 10.8553 33.7491 9.6774 32.2103 9.6774ZM40.2022 18.5895H38.7408L39.8373 15.9372L36.8371 8.59725H38.357L40.5705 14.4112L42.8357 8.59725H44.3556L40.2005 18.5895H40.2022ZM48.3765 16.2749C46.163 16.2749 44.3177 14.5021 44.3177 12.2852C44.3177 10.0683 46.2077 8.3915 48.3765 8.3915C50.5453 8.3915 52.4336 10.0923 52.4336 12.3109C52.4336 14.5295 50.6538 16.2749 48.3765 16.2749ZM48.3765 9.6774C46.9083 9.6774 45.7275 10.8673 45.7275 12.3298C45.7275 13.7923 46.9083 14.9942 48.3765 14.9942C49.8448 14.9942 51.0256 13.7786 51.0256 12.3161C51.0187 10.8553 49.8379 9.6774 48.3765 9.6774ZM53.5834 16.0863V6.08203H54.9983V16.0863H53.5834ZM1.39596 14.6118C1.45448 14.8519 1.53194 15.0456 1.62317 15.1948C1.71439 15.3439 1.83144 15.4725 1.96742 15.596C2.41495 15.9834 2.97953 16.184 3.64911 16.184C4.31869 16.184 4.9349 16.0229 5.49948 15.7125V14.3666C4.91597 14.7095 4.35655 14.8844 3.83157 14.8844C3.11723 14.8844 2.74716 14.4507 2.74716 13.5917V9.92429H5.11736V8.62468H2.75405V6.21919H1.35637V8.61782H0V9.91744H1.29784V13.2419C1.29784 13.914 1.33055 14.3735 1.39596 14.6135V14.6118ZM9.9335 9.85228C10.369 9.85228 10.8492 10.0923 11.3622 10.5707L12.1281 9.30363C11.505 8.73441 10.7511 8.47552 10.3105 8.47552H10.2123C9.70629 8.47552 8.86114 8.47552 8.17435 9.58825L8.14853 9.63282L8.15542 8.62468H6.69405V16.0486H8.15542V12.1686C8.15542 11.548 8.33099 11.0044 8.68213 10.545C9.03327 10.0855 9.45498 9.85228 9.93522 9.85228H9.9335Z" fill="#231F20"/>
<path fill-rule="evenodd" clip-rule="evenodd" d="M40.3969 6.8963C40.3315 6.91002 40.2678 6.85687 40.254 6.79343L39.877 4.43938C39.7531 3.66956 39.8702 3.03004 40.2798 2.50539C40.6757 1.9876 41.2661 1.67727 42.02 1.55554L51.8382 0.00217559C51.9036 -0.0115407 51.9673 0.0416098 51.9811 0.105047L52.7281 4.82687C52.7419 4.89202 52.6885 4.95545 52.6248 4.96917L40.3986 6.8963H40.3969Z" fill="#FF671B"/>
<path fill-rule="evenodd" clip-rule="evenodd" d="M43.682 4.40562C43.5977 4.70909 43.3705 4.90969 43.0589 4.96113C42.663 5.02628 42.2086 4.79311 42.1174 4.22388C42.033 3.71295 42.305 3.30489 42.7801 3.22774C43.0916 3.1763 43.3446 3.29289 43.546 3.56379L44.0194 3.48663C43.8059 3.02714 43.2465 2.75624 42.7147 2.84025C42.0141 2.95684 41.5717 3.5775 41.6888 4.28903C41.8058 5.00742 42.422 5.46006 43.1174 5.34347C43.6493 5.25946 44.0521 4.85826 44.1502 4.32161L43.682 4.40562ZM45.5135 2.38762C44.7991 2.50421 44.312 3.15058 44.429 3.8364C44.5461 4.53421 45.2139 5.00742 45.9283 4.89083C46.6426 4.77425 47.1228 4.11415 47.0127 3.4232C46.8888 2.73738 46.2209 2.27275 45.5135 2.38762ZM45.8577 4.50164C45.3844 4.57879 44.9299 4.25646 44.8508 3.77125C44.7733 3.29289 45.0969 2.84026 45.572 2.7631C46.0453 2.68595 46.4997 3.00828 46.5789 3.48149C46.6564 3.97356 46.3379 4.4262 45.8577 4.50335V4.50164ZM51.2006 3.96499L50.9665 2.52993C50.8632 1.90241 50.4398 1.58008 49.8304 1.68295C49.4603 1.74124 49.24 1.90241 49.1092 2.20759L49.0954 2.23331L49.0817 2.21445C48.9061 1.96242 48.5429 1.89726 48.2761 1.9367C47.9714 1.98813 47.8148 2.09786 47.6461 2.37047L47.6392 2.37733L47.6134 2.38419L47.5687 2.1253L47.1797 2.19045L47.5687 4.57022L47.9973 4.49992L47.7821 3.16773C47.7046 2.67566 47.8596 2.40476 48.2761 2.33961C48.4844 2.30704 48.6531 2.35847 48.7753 2.49563C48.9044 2.6448 48.9319 2.79911 48.9577 2.98085L49.1781 4.30618L49.6067 4.23588L49.3863 2.91055C49.3278 2.56764 49.3347 2.16644 49.8545 2.08243C50.2366 2.01728 50.4845 2.2436 50.562 2.72195L50.7754 4.04728L51.1971 3.97013L51.2006 3.96499ZM41.6182 5.36919C41.6182 5.55607 41.4616 5.71209 41.2739 5.71209C41.0863 5.71209 40.9297 5.55607 40.9297 5.36919C40.9297 5.1823 41.0863 5.02628 41.2739 5.02628C41.4684 5.01942 41.6182 5.17545 41.6182 5.36919Z" fill="white"/>
</g>
<defs>
<clipPath id="clip0_50_928">
<rect width="55" height="28" fill="white"/>
</clipPath>
</defs>
</svg>
