<svg width="20" height="19" viewBox="0 0 20 19" fill="none" xmlns="http://www.w3.org/2000/svg">
<path d="M7.4814 17.9999C7.92849 17.9999 8.29092 17.6375 8.29092 17.1904C8.29092 16.7433 7.92849 16.3809 7.4814 16.3809C7.03431 16.3809 6.67188 16.7433 6.67188 17.1904C6.67188 17.6375 7.03431 17.9999 7.4814 17.9999Z" stroke="#CBDAFF" stroke-width="1.61905" stroke-linecap="round" stroke-linejoin="round"/>
<path d="M16.3798 17.9999C16.8269 17.9999 17.1894 17.6375 17.1894 17.1904C17.1894 16.7433 16.8269 16.3809 16.3798 16.3809C15.9327 16.3809 15.5703 16.7433 15.5703 17.1904C15.5703 17.6375 15.9327 17.9999 16.3798 17.9999Z" stroke="#CBDAFF" stroke-width="1.61905" stroke-linecap="round" stroke-linejoin="round"/>
<path d="M1 1H4.2381L6.40762 11.8395C6.48165 12.2122 6.6844 12.547 6.98039 12.7853C7.27639 13.0236 7.64676 13.1501 8.02667 13.1429H15.8952C16.2751 13.1501 16.6455 13.0236 16.9415 12.7853C17.2375 12.547 17.4403 12.2122 17.5143 11.8395L18.8095 5.04762H5.04762" stroke="#CBDAFF" stroke-width="1.61905" stroke-linecap="round" stroke-linejoin="round"/>
</svg>
