<svg width="27" height="28" viewBox="0 0 27 28" fill="none" xmlns="http://www.w3.org/2000/svg">
<path d="M7.99996 12.7999L12.7999 2C13.7547 2 14.6704 2.37928 15.3455 3.05441C16.0206 3.72954 16.3999 4.6452 16.3999 5.59998V10.3999H23.1919C23.5398 10.396 23.8843 10.4678 24.2017 10.6102C24.5192 10.7527 24.8018 10.9624 25.0301 11.225C25.2584 11.4875 25.4269 11.7965 25.5239 12.1306C25.6209 12.4648 25.6441 12.816 25.5918 13.1599L23.9359 23.9599C23.8491 24.5321 23.5584 25.0538 23.1174 25.4287C22.6763 25.8035 22.1147 26.0064 21.5359 25.9998H7.99996M7.99996 12.7999V25.9998M7.99996 12.7999H4.39998C3.76347 12.7999 3.15302 13.0528 2.70294 13.5029C2.25285 13.953 2 14.5634 2 15.1999V23.5999C2 24.2364 2.25285 24.8468 2.70294 25.2969C3.15302 25.747 3.76347 25.9998 4.39998 25.9998H7.99996" stroke="#05CD99" stroke-width="2.39998" stroke-linecap="round" stroke-linejoin="round"/>
</svg>
